/* XPM */
static char *door_xpm_16x16[] = {
/* columns rows colors chars-per-pixel */
"16 16 17 1 ",
"  c #848484",
". c #8D8E8E",
"X c #8F8F90",
"o c #8F9090",
"O c #909090",
"+ c #989899",
"@ c #C3C7CA",
"# c #C6CACD",
"$ c #CACDD0",
"% c #CFD2D4",
"& c #D1D4D6",
"* c #D3D6D8",
"= c #D7DADC",
"- c #D8DBDD",
"; c #DDE0E1",
": c #E8EAEB",
"> c #FFFFFF",
/* pixels */
"+XoOOOOOOoOOOO.+",
"O>>>>>>>>>>>>>>O",
"O>%--------==&>O",
"O>->>>>>>>>::%>O",
"O>->>>>>>>>=:*>.",
".>=>>>>>>>>*-$> ",
".>#*%>>>>>>>>=> ",
".>*=*->>>>>>>->o",
".>&==*>>>>>>>=>O",
"O>@==>>>>>>>>=>O",
".>->>>>>>>>=;#>O",
".>->>>>>>>>->=>O",
".>->>>>>>>>:-$>O",
" >%-=--=-----%>.",
" >>>>>>>>>>>>>>O",
". +.OOOOOOOOO.OO"
};
