/* XPM */
static char *exit2_xpm_16x16[] = {
/* columns rows colors chars-per-pixel */
"16 16 44 1 ",
"  c #8E7D3B",
". c #EBC83C",
"X c #F3CD38",
"o c #FED73A",
"O c #948549",
"+ c #9A8A4C",
"@ c #8E8255",
"# c #8A805E",
"$ c #91875D",
"% c #988B5B",
"& c #A89340",
"* c #A49249",
"= c #89877D",
"- c #F2CF44",
"; c #F4D14A",
": c #F2D357",
"> c #DAC776",
", c #DEC970",
"< c #DFCC7A",
"1 c #E6CE6A",
"2 c #E4CE75",
"3 c #8B8982",
"4 c #8E8E8E",
"5 c #98968B",
"6 c #909090",
"7 c #989899",
"8 c #D2C99E",
"9 c #D1CEB8",
"0 c #C6C6C6",
"q c #CED0CB",
"w c #D4D4CC",
"e c #D5D5D5",
"r c #D7D9DA",
"t c #DADADA",
"y c #DFE4E6",
"u c #E4E6E7",
"i c #E3E7E9",
"p c #E7EAEC",
"a c #EBEDEF",
"s c #EDEFF1",
"d c #EFF1F2",
"f c #F2F3F3",
"g c #F6F8F8",
"h c white",
/* pixels */
"pppppappisapasap",
"ahhhhhhhshhhhhhp",
"phhhhhhhshhhhhhp",
"phhhhhhhshhhhhhp",
"shhhh04$#30hhhhp",
"ahhheOo::o*thhhp",
"ahhh6-quuw:5hhhp",
"yffh%2fhhf<Offfp",
"pffr&2hhhf, affp",
"dhhh#o9sh8.7hhhi",
"phhhe%X1>;+uhhhp",
"phhhhf=O@6uhhhhp",
"ihhhhhhffhhhhhha",
"ihhhhhhffhhhhhhp",
"phhhhhhdghhhhhhp",
"assaaaappppaappp"
};
