/* XPM */
static char *exit_xpm_16x16[] = {
/* columns rows colors chars-per-pixel */
"16 16 21 1 ",
"  c #8D8D8D",
". c #949494",
"X c #989899",
"o c #A4A4A4",
"O c #A8A8A8",
"+ c #C6C6C6",
"@ c #CFD3D5",
"# c #D5D5D5",
"$ c #D3D6D8",
"% c #D7D9DA",
"& c #DADCDE",
"* c #DFE4E6",
"= c #E4E6E7",
"- c #E3E7E9",
"; c #E7EAEC",
": c #EBEDEF",
"> c #EDEFF1",
", c #EFF1F2",
"< c #F2F3F3",
"1 c #F6F8F8",
"2 c white",
/* pixels */
";;;;;:;;->:;:>:;",
":2222222>222222;",
";2222222>222222;",
";2222222>222222;",
">2222+ .  +2222;",
":222#.2<<2o&222;",
":222.<@==$<X222;",
"*<<2X=<22<*.<<<;",
";<<%O=222<* :<<;",
",222 2$>2$:X222-",
";222#X<;&<X=222;",
";2222< . .=2222;",
"-222222<<222222:",
"-222222<<222222;",
";222222,1222222;",
":>>::::;;:;::;;;"
};
