/* XPM */
static char *key_xpm_16x16[] = {
/* columns rows colors chars-per-pixel */
"16 16 58 1 ",
"  c #BD8132",
". c #C0852E",
"X c #C88C2C",
"o c #C38634",
"O c #AB805C",
"+ c #AC846B",
"@ c #AD9699",
"# c #AE969A",
"$ c #B79FA1",
"% c #BBA6A9",
"& c #CCC2C5",
"* c #D2C7C9",
"= c #DFE4E6",
"- c #E0E5E7",
"; c #E1E5E7",
": c #EAE4E5",
"> c #E2E6E8",
", c #E2E7E9",
"< c #E3E7E9",
"1 c #E4E8EA",
"2 c #E5E9EA",
"3 c #E6E9EB",
"4 c #E6EAEB",
"5 c #E6EAEC",
"6 c #E7EAEC",
"7 c #E7EBEC",
"8 c #E8EBED",
"9 c #E8ECED",
"0 c #E9ECED",
"q c #E9ECEE",
"w c #E9EDEE",
"e c #EBEDEF",
"r c #EBEEEF",
"t c #EBEEF0",
"y c #ECEFF0",
"u c #EDEFF1",
"i c #EEF0F2",
"p c #EFF1F2",
"a c #F3F0F1",
"s c #F0F2F3",
"d c #F0F3F3",
"f c #F6F3F3",
"g c #F0F3F4",
"h c #F1F3F4",
"j c #F2F4F5",
"k c #F3F4F5",
"l c #F3F5F6",
"z c #F4F5F6",
"x c #F4F6F6",
"c c #F4F6F7",
"v c #F6F8F8",
"b c #F7F8F9",
"n c #F8F9F9",
"m c #F8F9FA",
"M c #FAFAFB",
"N c #FAFBFB",
"B c #FBFCFC",
"V c white",
/* pixels */
"66666e66,ye6eye6",
"eVVVVVVVyVVVVVV6",
"6VVVVVVVyVVVVVV6",
"6VVVVVVVyVVVVVV6",
"iVVVVVVvgVVVVVV6",
"eVVVVVVggVVVVVV=",
"yVVVVg$@gVVVVVV,",
"=ggVg* XO+:Vggg6",
"6ggeg*.X o&iggge",
"iVVVVg$@%$gVVVV;",
"6VVVVVVggVVVVVV6",
"6VVVVVViVVVVVVV,",
",VVVVVVggVVVVVVe",
";VVVVVVggVVVVVV6",
";VVVVVVivVVVVVV6",
"6yyeeee66e6ee666"
};
