/* XPM */
static char *player2_xpm_16x16[] = {
/* columns rows colors chars-per-pixel */
"16 16 53 1 ",
"  c #B0743D",
". c #D39725",
"X c #C98A36",
"o c #E3A520",
"O c #BE9253",
"+ c #CC9944",
"@ c #D8AF58",
"# c #CCC2C5",
"$ c #D2C7C9",
"% c #D3C8C9",
"& c #D8CCCE",
"* c #DBCFD0",
"= c #DFE4E6",
"- c #E0E5E7",
"; c #E1E5E7",
": c #E2E6E8",
"> c #E2E7E9",
", c #E3E7E9",
"< c #E4E8EA",
"1 c #E5E9EA",
"2 c #E6E9EB",
"3 c #E6EAEB",
"4 c #E6EAEC",
"5 c #E7EAEC",
"6 c #E7EBEC",
"7 c #E8EBED",
"8 c #E8ECED",
"9 c #E9ECED",
"0 c #E9ECEE",
"q c #E9EDEE",
"w c #EBEDEF",
"e c #EBEEEF",
"r c #EBEEF0",
"t c #ECEFF0",
"y c #EDEFF1",
"u c #EEF0F2",
"i c #EFF1F2",
"p c #F0F2F3",
"a c #F0F3F3",
"s c #F0F3F4",
"d c #F1F3F4",
"f c #F2F4F5",
"g c #F3F5F6",
"h c #F4F6F6",
"j c #F4F6F7",
"k c #F6F8F8",
"l c #F7F8F9",
"z c #F8F9F9",
"x c #F8F9FA",
"c c #FAFAFB",
"v c #FAFBFB",
"b c #FBFCFC",
"n c white",
/* pixels */
"55555w55:yw5wyw5",
"wnnnnnnnynnnnnn5",
"5nnnnnnnynnnnnn5",
"5nnnnnnnynnnnnn5",
"ynnnnnnkjnnnnnn5",
"wnnnnn*$$*nnnnn=",
"wnnnn*O@@O*nnnn:",
"=jjnj$XooX&ljjj5",
"5jjwj$.++.#ijjjw",
"innnn* .. *nnnn-",
"5nnnnn*$$*nnnnn5",
"5nnnnnnilnnnnnn:",
":nnnnnnjjnnnnnnw",
"-nnnnnnjjnnnnnn5",
"-nnnnnnilnnnnnn5",
"5yywwww5555ww555"
};
