/* XPM */
static char *player_door_xpm_16x16[] = {
/* columns rows colors chars-per-pixel */
"16 16 43 1 ",
"  c #7A7B7B",
". c #37D98C",
"X c #39D98D",
"o c #40DB91",
"O c #848484",
"+ c #878888",
"@ c #8E8E8E",
"# c #8F9090",
"$ c #909090",
"% c #989899",
"& c #9FA0A1",
"* c #A2A5A7",
"= c #ACAFB1",
"- c #B6B6B6",
"; c #B7BABC",
": c #B8B8B8",
"> c #BFC3C6",
", c #95EBC2",
"< c #9DECC7",
"1 c #B4F1D4",
"2 c #B9F1D6",
"3 c #B9F2D7",
"4 c #C6C6C6",
"5 c #C3C7CA",
"6 c #CACACA",
"7 c #CBCED0",
"8 c #CFD2D4",
"9 c #D0D3D5",
"0 c #D4D7D9",
"q c #D7DADC",
"w c #D8DBDD",
"e c #C1F3DB",
"r c #CAF5E0",
"t c #D4F7E6",
"y c #D8F7E8",
"u c #DEF9EC",
"i c #E1E2E3",
"p c #EEEEEE",
"a c #E1F9ED",
"s c #E4FAF0",
"d c #E8FBF2",
"f c gray96",
"g c #FFFFFF",
/* pixels */
"%##$$%$$$#$$$$@%",
"$gggggggggggggg$",
"$g8www9;-6wqq9g$",
"$gwgw$$-:%@wp8g$",
"$gwp@gt1edf w0g@",
"@gq@f3X..oefO7gO",
"@g;*do....Xy$4g+",
"@g*41X.....<6&g#",
"@g=:1......16*g$",
"$g>$u.....Xs@6g$",
"@gw$p,X..X39&5g$",
"#gwfOfdreapOgqg$",
"@gwgf@-64%%iw7g$",
"Og8wqw:*=7www8g#",
"Ogggggggggggggg$",
"@O%@$$$$$$$$$@$$"
};
