/* XPM */
static char *player_xpm_16x16[] = {
/* columns rows colors chars-per-pixel */
"16 16 40 1 ",
"  c #7F7F7F",
". c #37D98C",
"X c #39D98D",
"o c #3CDA8F",
"O c #41DB92",
"+ c #858585",
"@ c #8C8C8C",
"# c #909090",
"$ c #9A9A9A",
"% c #A2A2A2",
"& c #ADADAD",
"* c #B6B6B6",
"= c #B8B8B8",
"- c #95EBC2",
"; c #9DECC7",
": c #B1F0D2",
"> c #B3F1D3",
", c #B9F1D6",
"< c #C6C6C6",
"1 c #C7C9CB",
"2 c #CACACA",
"3 c #CECFD0",
"4 c #D5D5D5",
"5 c #DADADB",
"6 c #C1F3DB",
"7 c #CAF5E0",
"8 c #D4F7E6",
"9 c #D8F7E8",
"0 c #DEF9EC",
"q c #E7E7E7",
"w c #E3E7E9",
"e c #E7EAEC",
"r c #EBEDEF",
"t c #E1F9ED",
"y c #EDEFF1",
"u c #EFF1F2",
"i c #E8FBF2",
"p c #F7F7F7",
"a c #F6F8F8",
"s c white",
/* pixels */
"eeeerrrewyreryrr",
"rsssssssyssssssr",
"rsssssp51psssssr",
"esss5##*=$@rsssr",
"yssr@s8>6ip+rsse",
"rss@p,X..O6p@sse",
"ysq%iX....X9#rse",
"qp<<>......;2=pe",
"ep3=>......><<pr",
"uss#0.....Xt@psw",
"ess#r-X..X,4&sse",
"essp pi76tr#ssse",
"wsssp@*2<$$psssr",
"wsssss5<2psssssr",
"esssssspasssssse",
"ryyrrrreerrrreee"
};
