/* XPM */
static char *stair_xpm_16x16[] = {
/* columns rows colors chars-per-pixel */
"16 16 23 1 ",
"  c #848484",
". c #878788",
"X c #888989",
"o c #8F9090",
"O c #909090",
"+ c #989899",
"@ c #CBCED1",
"# c #CDD0D3",
"$ c #D1D5D7",
"% c #D3D6D8",
"& c #D7DADC",
"* c #D8DBDD",
"= c #DBDDDF",
"- c #DFE1E3",
"; c #E3E5E6",
": c #E5E7E8",
"> c #E6E8E9",
", c #EAEBEC",
"< c #EEEFF0",
"1 c #EEF0F0",
"2 c #F4F5F5",
"3 c #F6F7F7",
"4 c white",
/* pixels */
"+XoOOOOOOoOOOO.+",
"O&444444444444&O",
"O*1<221>;<2221&O",
"O2@,>>,22,:;;#2O",
"O4*4444444444*4X",
"X4$%**&*****%$4 ",
"X4;2444444442;4.",
"X42%,,,,24,,*:4O",
"X44#1,,,:-,<#24O",
"O44*44444444&44O",
"X44-$******$*44O",
"O442;444444*444O",
"X444$2221,,#444O",
" 444,:;;,,,,444o",
" 44444444444444O",
"X +XOOOOOOOOOXOO"
};
