/* XPM */
static char *wall_xpm_16x16[] = {
/* columns rows colors chars-per-pixel */
"16 16 23 1 ",
"  c #7F7F7F",
". c #878787",
"X c #8A8A8A",
"o c #959595",
"O c #9F9F9F",
"+ c #A2A2A2",
"@ c #A8A8A8",
"# c #B0B0B0",
"$ c #BCBCBC",
"% c #CBCED1",
"& c #D3D6D8",
"* c #D7DADC",
"= c #DBDDDF",
"- c #DDDFE1",
"; c #DFE1E3",
": c #E4E5E7",
"> c #E4E6E8",
", c #E7E8E9",
"< c #ECEDEE",
"1 c #EEEFF0",
"2 c #EFF0F1",
"3 c #F3F4F4",
"4 c white",
/* pixels */
"X..XooooXXXXOO.o",
"O44444444444444o",
"#4432<<<<<13<44o",
"+4<&,<<<<%*:;<4o",
"+4<<4444<>44<<4X",
"X4<<444:;444=<4.",
"X43,44<;444-::4X",
".43>4<:444<:<<4o",
"+43,<=444::4:34@",
"#43%;444,>44<<4+",
"o4<=444::444<34o",
".4<<44>:4444>34o",
".4<;3>=<<32<-<4.",
" 44<::-,<,,<<44o",
"X44444444444444X",
"oOo@$#@+OooO+..X"
};
