/* XPM */
static char *win_xpm_16x16[] = {
/* columns rows colors chars-per-pixel */
"16 16 46 1 ",
"  c #6F6F6F",
". c #668B7A",
"X c #6C8D7D",
"o c #37D98C",
"O c #46DC95",
"+ c #48DC96",
"@ c #5CE0A1",
"# c #6BE3AA",
"$ c #848484",
"% c #878888",
"& c #888989",
"* c #89948F",
"= c #8F9090",
"- c #909091",
"; c #989899",
": c #A0A0A0",
"> c #A7AAAC",
", c #B2B2B2",
"< c #BCBCBC",
"1 c #81E7B7",
"2 c #89E8BB",
"3 c #A0EDC8",
"4 c #A8EECD",
"5 c #B4F1D4",
"6 c #BDF2D9",
"7 c #C3C3C3",
"8 c #CDCDCD",
"9 c #CBCED1",
"0 c #CDD0D3",
"q c #D1D5D7",
"w c #D3D6D8",
"e c #D7DADC",
"r c #D8DBDD",
"t c #DEDFE0",
"y c #DFF9ED",
"u c #E2E2E2",
"i c #E5E6E8",
"p c #E6E8E9",
"a c #EAEBEC",
"s c #E3FAEF",
"d c #EEEFF0",
"f c #EEF0F0",
"g c #E4FAF0",
"h c #F4F5F5",
"j c #F6F7F7",
"k c white",
/* pixels */
";&=------=----%;",
"-ekkkkkkkkkkkke-",
"-rfdhhfpudhhhfe-",
"-h9appahhapuu0h-",
"-krkkkkkkkkkkrk&",
"&kqwrrerrrrrwqk$",
"&kufkkkuqakkhuk%",
"&khwt:&,<:$8rik-",
"&kk0$ag56yk->hk-",
"-kk;qyOooo3k$kk-",
"=kk&k@ooooo47<k-",
"-kk-goooooo#k-k-",
"&kk-soooooo1k-k-",
"$kk&k+ooooo5,8k=",
"$kk,86Oooo2h&kk-",
"&$;& -*..X-$&&--"
};
