/* XPM */
static char *_7ebe716e15d4123a652cb38933a6947LuzlyPHWodNJhmGi[] = {
/* columns rows colors chars-per-pixel */
"64 64 63 1 ",
"  c None",
". c #2A2A2A",
"X c #333434",
"o c #343435",
"O c #373737",
"+ c #3C3D3D",
"@ c #424344",
"# c #444444",
"$ c #444545",
"% c #474848",
"& c #48494A",
"* c #494A4B",
"= c #4B4C4D",
"- c #4F5152",
"; c #515151",
": c #515253",
"> c #535556",
", c #57585A",
"< c #5B5C5D",
"1 c #5C5E5F",
"2 c #5F5F5F",
"3 c #5E5F61",
"4 c #616465",
"5 c #696B6C",
"6 c #696B6D",
"7 c #6C6C6C",
"8 c #737577",
"9 c #757779",
"0 c #797979",
"q c gray48",
"w c #7E8183",
"e c gray53",
"r c gray58",
"t c #959595",
"y c gray63",
"u c #A2A2A2",
"i c #AFAFAF",
"p c #B2B7BB",
"a c #B6BBBF",
"s c #BCBCBC",
"d c gray74",
"f c #BBC0C3",
"g c #C0C4C7",
"h c #C5C9CC",
"j c gray79",
"k c #CACACA",
"l c #CACDD0",
"z c #CED2D4",
"x c #D7D7D7",
"c c #D3D6D8",
"v c #D8DBDD",
"b c #DDDFE1",
"n c #E2E4E5",
"m c #E4E4E4",
"M c gray90",
"N c #E6E8E9",
"B c #EBEDEE",
"V c #F1F1F1",
"C c #F0F1F2",
"Z c gray95",
"A c #F5F6F6",
"S c gray98",
"D c white",
/* pixels */
"DDDDDDDDDDDDDDDDDDDDDDDDDDDDDZDDDDDDDDDDDDDDDDDDDMjjjjjjDDDDDDDD",
"D,============....................*>8wwwww>:=@...........*>>>*,D",
"D................................................$22222........D",
"D..jjjjjjjjjjjDDDDDDDDDDDDDDDDDDDDxjyrrrrrjjjxDDDDDDDDDDjjjjj..D",
"D..DDDDDDDDDDDDDDDDDDDDDDDDDDDDDDDDDDDDDDDDDDDDDDDDDDDDDDDDDD..D",
"x.ODDDDDDDDDDDDDDDDDDDDDDDDDDDDDDDDDDDDDDDDDDDDDDDDDDDDDDDDDD..D",
"d.2DDDDDDDDDDDDDDDDDDDDDDDDDDDDDDDDDDDDDDDDDDDDDDDDDDDDDDDDDD..D",
"q.rDDDDDDDDDDDDDDDDDDDDDDDDDDDDDDDDDDDDDDDDDDDDDDDDDDDDDDDDDD..D",
"2.jDDDDDSbvvvvvvvvvvvvvvvvvvvvvvvvvvvvvzhhhhhvADDSNvvvvDDDDDD..D",
"2.dDDDDDvppppppppppppppppppppppppppppppppppppppppppppppbDDDDD..D",
"e.qDDDDDNppvvvvvvvvvvvvvvvvvvvvvvvvvvvvvBBBBBhppppgcvhpvDDDDD..D",
"j.2DDDDDDfpNDDDDDDDDDDDDDDDDDDDDDDDDDDDDDDDDDDDDDDDDDvpvDDDDD..D",
"j.2DDDDDDzpbDDDDDDDDDDDDDDDDDDDDDDDDDDDDDDDDDDDDDDDDDvpvDDDDD..D",
"j.2DDDDDDlpBDDDDDDDDDDDDDDDDDDDDDDDDDDDDDDDDDDDDDDDDDvpvDDDDD..D",
"j.2DDDDDDhpBDDDDDDDDDDDDDDDDDDDDDDDDDDDDDDDDDZalNDDNvgpvDDDDD..D",
"j.2DDDDDDhpBDDDDDDDDDDDDDDDDDDDDDDDDDDDDDDDDDvpppppppppzDDDDD..D",
"i.eDDDDDDfpADDDDDDDDDDDDDDDDDDDDDDDDDDDDDDDDDvpfppplvzphDDDDD..D",
"i.7DDDDDDppDDDDDDDDDDDDDDDDDDDDDDDDDDDDDDDDDDvpvDDDDDZpaDDDDj.+D",
"j.2DDDDDDppDDDDDDDDDDDDDDDDDDDDDDDDDDDDDDDDDDvpvDDDDDDppDDDDd.=D",
"M..DDDDDDppDDDDDDDDDDDDDDDDDDDDDDDDDDDDDDDDDDvpvDDDDDDppDDDDr.4D",
"DO.xDDDDZppDDDDDDDDDDDDDDDDDDDDDDDDDDDDDDDDDDvpvDDDDDDpaDDDD7.5D",
"D3.yDDDDSppDDDDDDDDDDDDDDDDDDDDDDDDDDDDDDDDDDvpvDDDDDBphDDDD2. D",
"Dw.rDDDDDppDDDDDDDDDDDDDDDDDDDDDDDDDDDDDDDDDDvpppppppppzDDDD2. D",
"Dw.rDDDDDppDDDDDDDDDDDDDDDDDDDDDDDDDDDDDDDDDDNpppppppppvDDDD2. D",
"Dw.rDDDDDppDDZlhhbSDDDDDDDDDDDDDDDDDDDDDDDDDDDDDDDDDDlpbDDDDq.5D",
"Dw.rDDDDBpfAzpppppfADDDDDDDDDDDDDDDDDDDDDDDDDDDDDDDDDhpBDDDDr.4D",
"D5.rDDDDgpfapplvlapaSDDDDDDDDDDDDDDDDDDDDDDDDDDDDDDDDhpbDDDDr.4D",
"D>.jDDDApppacADDDZfpgSDDDDDDDDDDDDDDDDDDDDDDDDDDDDDDDcpvDDDDy.<D",
"D:.jDDDBpphSDDDSDDZfpvDDDDDDDDDDDDDDDDDDDDDDDDDDDDDDDvplDDDDj.-D",
"D%.jDDDZppSDDcappplBpaSDDDDDDDDDDDDDDDDDDDDDDDDDDDDDDBpfDDDDM.OD",
"D%.jDDDDppDDbppappaSvpzDDDDDDDDDDDDDDDDDDDDDDDDDDDDDDDppDDDDD..M",
"D..jDDDDppDDlpzDDvpzSgpZDDDDDDDDDDDDDDDDDDDDDDDDDDDDDDhpBDDDD$.j",
"Z..ZDDDDppSDhpvBBhphDbpvDDDDDDDDDDDDDDDDDDDDDDDDDDDDDDppDDDDD2.r",
"i.ODDDDDhpvDlppppppNDzpbDDDDDDDDDDDDDDDDDDDDDDDDDDDDDBpfDDDDDq.r",
"q.qDDDDDNppAAlhhhlNDzpaSDDDDDDDDDDDDDDDDDDDDDDDDDDDDDvplDDDDDr.r",
"2.dDDDDDnppvDDDDDDSgpaZDDDDDDDDDDDDDDDDDDDDDDDDDDDDDDlpvDDDDDr.r",
"2.jDDDDDvppaSDDDDZapcSDDDDDDDDDDDDDDDDDDDDDDDDDDDDDDDhpvDDDDDr.r",
"2.jDDDDDvppphSDDBppnDDDDDDDDDDDDDDDDDDDDDDDDDDDDDDDDDhpBDDDDD7.y",
"7.yDDDDDvphpppppppnDDDDDDDDDDDDDDDDDDDDDDDDDDDDDDDDDDzpnDDDDD2.j",
"r.qDDDDDvpvBfppppbDDDDDDDDDDDDDDDDDDDDDDDDDDDDABBBBBBzpcDDDDD2.j",
"d.:DDDDDNplDDSBBZDDDDDDDDDDDDDDDDDDDDDDDDDDDDZappppppppgDDDDD..Z",
"Z..DDDDDbpcDDDDDDDDDDDDDDDDDDDDDDDDDDDDDDDDDDvpfhhhhhfppSDDDD..D",
"DX.xDDDDvpvDDDDDDDDDDDDDDDDDDDDDDDDDDDDDDDDDDvpvDDDDDvppBDDDD..D",
"D=.jDDDDvpvDDDDDDDDDDDDDDDDDDDDDDDDDDDDDDDDDDvpvDDDDDbppBDDDD..D",
"D=.jDDDDvpvDDDDDDDDDDDDDDDDDDDDDDDDDDDDDDDDDDvpvDDDDDBppSDDDD..D",
"D=.jDDDDvpvDDDDDDDDDDDDDDDDDDDDDDDDDDDDDDDDDDvpvDDDDDBphDDDDD..D",
"D=.jDDDDvpvDDDDDDDDDDDDDDDDDDDDDDDDDDDDDDDDDDvpvDDDDDBphDDDDD..D",
"D=.jDDDDvpvDDDDDDDDDDDDDDDDDDDDDDDDDDDDDDDDDDvpvDDDSDNplDDDDD..D",
"D=.jDDDDvpvDDDDDDDDDDDDDDDDDDDDDDDDDDDDDDDDDDvpppppppppvDDDDx.*D",
"D=.dDDDDvpvDDDDDDDDDDDDDDDDDDDDDDDDDDDDDDDDDDNapppappppbDDDDj.>D",
"D2.eDDDDvpvDDDDDDDDDDDDDDDDDDDDDDDDDDDDDDDDDDDDDDDDDDfpBDDDDj.>D",
"D .2DDDDvpvDDDDDDDDDDDDDDDDDDDDDDDDDDDDDDDDDDDDDDDDDDzpvDDDDd.3D",
"D .2DDDDvpvDDDDDDDDDDDABBBBDDDDDDDDDDDDDDDDDDDDDDDDDDnphDDDDr.wD",
"D4.qDDDDvpzBBBNvzhappppppppppppfhhhhhhlvvvvvvvvBBBBBBvphDDDDr.wD",
"D2.rDDDDvpppppppppppppfhhhhppppppppppppppppppppppppppppvDDDDr.wD",
"D:.rDDDDZhhhhhlvvnZDDDDDDDDDDDABBBBBBBNvvvvvvvvhhhhhhhlDDDDDr.9D",
"D4.rDDDDDDDDDDDDDDDDDDDDDDDDDDDDDDDDDDDDDDDDDDDDDDDDDDDDDDDDi.=D",
"D4.rDDDDDDDDDDDDDDDDDDDDDDDDDDDDDDDDDDDDDDDDDDDDDDDDDDDDDDDDZ..D",
"D5.7DDDDDDDDDDDDDDDDDDDDDDDDDDDDDDDDDDDDDDDDDDDDDDDDDDDDDDDDD..D",
"D .2DDDDDDDDDDDDDDDDDDDDDDDDDDDDDDDDDDDDDDDDDDDDDDDDDDDDDDDDD..D",
"D4.eDDDDDZDDDDDDDDDDDDDDDDDDDDDDDDDDDDDDDDDDDDDDDDDDDDjjjjjjD..D",
"D+.$22$....O22rrjjjjjjyrrr22222222............$22222...........D",
"D$......>*............................................+=====..XD",
"DZjrrrrjDDDZjiq22222227rrijjjjjjjjDDDDDDDDDDDDMjjjjjjZDDDDDDDDDD"
};
