/* XPM */
static char *bbe1b3f681fa47a79982ee22fa05f046xEucQjDBo3t3mCf7[] = {
/* columns rows colors chars-per-pixel */
"64 64 67 1 ",
"  c None",
". c #2A2A2A",
"X c #373737",
"o c #444444",
"O c #515151",
"+ c #535556",
"@ c #565758",
"# c #595A5A",
"$ c #5F5F5F",
"% c #6C6C6C",
"& c #797979",
"* c #FFD52E",
"= c #F2D363",
"- c gray53",
"; c #898A8B",
": c gray58",
"> c #929698",
", c gray63",
"< c #A7ABAE",
"1 c #AFAFAF",
"2 c #AFB3B5",
"3 c #B1B6B9",
"4 c #B2B7BB",
"5 c #B6BBBF",
"6 c #BCBCBC",
"7 c #BBC0C3",
"8 c #C1C2C3",
"9 c #C0C4C7",
"0 c #C5C8C9",
"q c #C5C9CC",
"w c gray79",
"e c #CACDD0",
"r c #CED2D4",
"t c #D7D7D7",
"y c #D3D6D8",
"u c #D0D6DA",
"i c #D0D7DA",
"p c #D0D6DB",
"a c #D1D6DB",
"s c #D0D7DB",
"d c #D1D7DB",
"f c #D3D9DD",
"g c #D6DCDF",
"h c #D8DBDD",
"j c #D9DEE1",
"k c #DDDFE1",
"l c #DCE1E4",
"z c #DFE3E6",
"x c #E2E4E5",
"c c #E4E4E4",
"v c #E2E6E8",
"b c #E6E8E9",
"n c #E5E8EA",
"m c #E8EBED",
"M c #EBEDEE",
"N c #EAEDEF",
"B c #EDF0F1",
"V c #F1F1F1",
"C c #F0F1F2",
"Z c #F0F2F3",
"A c #F3F5F6",
"S c #F5F6F6",
"D c #F6F7F8",
"F c #F9FAFA",
"G c gray98",
"H c gray99",
"J c white",
/* pixels */
"JJJJJJJJJJJJJJJJJJJJJJJJJJJJJJJJJJJJJJJJJJJJJJJJJJJJJJJJJJJJJJJJ",
"JiiiiiiiiiiiiiiiiiiiiiiiiiiiiiiiiiiiiiiiiiiiiiiiiiiiiiiiiiiiiiiJ",
"JiiiiiiiiiiiiiiiiiiiiiiiiiiiiiiiiiiilmmmljiiiiiiiijlmmmlllgiiiiJ",
"JiiAAAAAAAAAAAJJJJJJJJJJJJJJJJJvilJJJJJJJJJDAAAAFJJJJJJJJJJJJiiJ",
"JifJJJJJJJJJJJJJJJJJJJJJJJJJJJJmilJJJJJJJJJJJJJJJJJJJJJJJJJJJiiJ",
"JilJJJJJJJJJJJJJJJJJJJJJJJJJJJJmilJJJJJJJJJJJJJJJJJJJJJJJJJJJiiJ",
"JinJJJJJJJJJJJJJJJJJJJJJJJJJJJJnimJJJJJJJJJJJJJJJJJJJJJJJJJJJiiJ",
"JilJJJJJJJJJJJJJJJJJJJJJJJJJJJJlimJJJJJJJJJJJJJJJJJJJJJJJJJJJiiJ",
"JilJJJJJJJJJJJJJJJJJJJJJJJJJJJJmimJJJJJJJJJJJJJJJJJJJJJJJJJJJiiJ",
"JiiJJJJJJJJJJJJJJJJJJJJJJJJJJJJmimJJJJJJJJJJJJJJJJJJJJJJJJJJJiiJ",
"JiiJJJJJJJJJJJJJJJJJJJJJJJJJJJJBilJJJJJJJJJJJJJJJJJJJJJJJJJJJiiJ",
"JiiAJJJJJJJJJJJJJJJJJJJJJJJJJJJAilJJJJJJJJJJJJJJJJJJJJJJJJJJJiiJ",
"JiiAJJJJJJJJJJJJJJJJJJJJJJJJJJJAilJJJJJJJJJJJJJJJJJJJJJJJJJJJiiJ",
"JiiDJJJJJJJJJJJJJJJJJJJJJJJJJJJZilJJJJJJJJJJJJJJJJJJJJJJJJJJJiiJ",
"JiiJJJJJJJJJJJJJJJJJJJJJJJJJJJJnimJJJJJJJJJJJJJJJJJJJJJJJJJJJiiJ",
"JigJJJJJJJJJJJJJJJJJJJJJJJJJJJJliZJJJJJJJJJJJJJJJJJJJJJJJJJJJiiJ",
"JilJJJJJJJJJJJJJJJJJJJJJJJJJJww2<8wwwJJJJJJJJJJJJJJJJJJJJJJJJiiJ",
"JimJJJJJJJJJJJJJJJJJJJJJw,%o.........%1cJJJJJJJJJJJJJJJJJJJJAiiJ",
"JimJJJJJJJJJJJJJJJJJJJ:X.....o$$$$o.....O,ZJJJJJJJJJJJJJJJJJZiiJ",
"JimJJJJJJJJJJJJJJJJJJO..o%,w********=,$...XtJJJJJJJJJJJJJJJJmi J",
"JilJJJJJJJJJJJJJJJJJ&.X1***************=1%.XZJJJJJJJJJJJJJJJli J",
"JifJJJJJJJJJJJJJJJJ:..1*******************%.:JJJJJJJJJJJJJJJli J",
"JiiJJJJJJJJJJJJJJJcX.$********************6.oJJJJJJJJJJJJJJJli J",
"JiiJJJJJJJJJJJJJJJ-.X=*****MkeqqqqqkM******O.6JJJJJJJJJJJJJJli J",
"JivJJJJJJJJJJJJJJJo.:***=q44444444444qS****6.$JJJJJJJJJJJJJJvi J",
"JimJJJJJJJJJJJJJJc..=***9447ekMMMMkr745k****O.wJJJJJJJJJJJJJmi J",
"JivJJJJJJJJJJJJJJ,.$***=45MJJJJJJJJJJh44h***w.$JJJJJJJJJJJJJmi J",
"JifJJJJJJJJJJJJJJ$.1***54MJJJJJJJJJJJJn44F***%.tJJJJJJJJJJJJMiiJ",
"JiiMJJJJJJJJJJJJJo.=**=44JJJJJJJJJJJJJJ54n***:.-JJJJJJJJJJJJAiiJ",
"JiivJJJJJJJJJJJJt.%***n4qJJJJJJJJJJJJJJr4i***w.$JJJJJJJJJJJJJfiJ",
"JiilJJAAAAJJJJJJ$.6***h4iJJJJJJJJJJJJJJx4q***=.oJJJJJJJJJJJJJliJ",
"JiiiiiiiiilmAAB0.o****e4kJJJJJJJJJJJJJJZ44****..iiiiiiiiiiiiiiiJ",
"Jiiiiifiiiiiiii>.&****94ZJJJJJJJJJJJJJJJ44****X.4iiiiiiiiiiiiiiJ",
"JiiJJJJJJFBmlll;.:****74JJJJJJJJJJJJJJJJ44****$.wJJJJJJJJJJJJviJ",
"JifJJJJJJJJJJJJ:.-****e4nJJJJJJJJJJJJJFe4q***=..tJJJJJJJJJJJJmiJ",
"JimJJJJJJJJJJJJ6.O****=49JJJJJJJJJJJJF945=**=X.$JJJJJJJJJJJJJjiJ",
"JiAJJJJJJJJJJJJZ..=****e4rJJJJJJJJJJJ945=***O.OZJJJJJJJJJJJJMiiJ",
"JiAJJJJJJJJJJJJJ%.-****=94enJJJJJJJJh44=***=.XcJJJJJJJJJJJJJli J",
"JiMJJJJJJJJJJJJJw.X=****=5449MJJJJJS54=****&.&JJJJJJJJJJJJJJli J",
"JivJJJJJJJJJJJJJJ%.-*****=q444kJJJS94q*****$.6JJJJJJJJJJJJJJmiiJ",
"JijJJJJJJJJJJJJJJZO.,******=r44444445=*****o.cJJJJJJJJJJJJJJAiiJ",
"JiiJJJJJJJJJJJJJJJtX.$=******=h7444e=*****w.OJJJJJJJJJJJJJJJJiiJ",
"JiiDJJJJJJJJJJJJJJJZ$.X,*****************6X.6JJJJJJJJJJJJJJJJiiJ",
"JiiAJJJJJJJJJJJJJJJJJ1X.$=************=6O..1JJJJJJJJJJJJJJJJJiiJ",
"JiiAJJJJJJJJJJJJJJJJJJco.o6********=-o...&cJJJJJJJJJJJJJJJJJDiiJ",
"JiiAJJJJJJJJJJJJJJJJJJJZo..o%:===,&....%wJJJJJJJJJJJJJJJJJJJMiiJ",
"JiiAJJJJJJJJJJJJJJJJJJJJZ-..........%1JJJJJJJJJJJJJJJJJJJJJJmi J",
"JiiAJJJJJJJJJJJJJJJJJJJJJJJw,&#+@%:6JJJJJJJJJJJJJJJJJJJJJJJJmiiJ",
"JiiAJJJJJJJJJJJJJJJJJJJJJJJJJJDifJJJJJJJJJJJJJJJJJJJJJJJJJJJDiiJ",
"JiiZJJJJJJJJJJJJJJJJJJJJJJJJJJJfiDJJJJJJJJJJJJJJJJJJJJJJJJJJJfiJ",
"JiinJJJJJJJJJJJJJJJJJJJJJJJJJJJliAJJJJJJJJJJJJJJJJJJJJJJJJJJJliJ",
"J ilJJJJJJJJJJJJJJJJJJJJJJJJJJJliAJJJJJJJJJJJJJJJJJJJJJJJJJJJliJ",
"J ilJJJJJJJJJJJJJJJJJJJJJJJJJJJjiAJJJJJJJJJJJJJJJJJJJJJJJJJJJjiJ",
"J ivJJJJJJJJJJJJJJJJJJJJJJJJJJJiiJJJJJJJJJJJJJJJJJJJJJJJJJJJJiiJ",
"JiimJJJJJJJJJJJJJJJJJJJJJJJJJJJiiJJJJJJJJJJJJJJJJJJJJJJJJJJJJiiJ",
"JiimJJJJJJJJJJJJJJJJJJJJJJJJJJAijJJJJJJJJJJJJJJJJJJJJJJJJJJJAiiJ",
"J imJJJJJJJJJJJJJJJJJJJJJJJJJJAilJJJJJJJJJJJJJJJJJJJJJJJJJJJAiiJ",
"J imJJJJJJJJJJJJJJJJJJJJJJJJJJBinJJJJJJJJJJJJJJJJJJJJJJJJJJJBiiJ",
"J ilJJJJJJJJJJJJJJJJJJJJJJJJJJBilJJJJJJJJJJJJJJJJJJJJJJJJJJJBiiJ",
"J ilJJJJJJJJJJJJJJJJJJJJJJJJJJAigJJJJJJJJJJJJJJJJJJJJJJJJJJJAiiJ",
"J inJJJJJJJJJJJJJJJJJJJJJJJJJJDiiJJJJJJJJJJJJJJJJJJJJJAAAAAADiiJ",
"JiiglnmmmmmllllllllllllllllliiiiiiiiiiiiiiiiiigllllliiiiiiiiiiiJ",
"JiiiiiiiiiiiiiiiiiiiiiiiiiiiiiiiiiiiiiiiiiiiiiiiiiiiiiiiiiiiiiiJ",
"JJJJJJJJJJJJJJJJJJJJJJJJJJJJJJJJJJJJJJJJJJJJJJJJJJJJJJJJJJJJJJJJ"
};
