/* XPM */
static char *_247126305f5410bc8ce871f7b2f0bffDnToq8zYMvSlsA6O[] = {
/* columns rows colors chars-per-pixel */
"64 64 65 1 ",
"  c None",
". c #2A2A2A",
"X c #373737",
"o c #444444",
"O c #515151",
"+ c #535556",
"@ c #565758",
"# c #595A5A",
"$ c #5F5F5F",
"% c #6C6C6C",
"& c #797979",
"* c gray53",
"= c #898A8B",
"- c gray58",
"; c #929698",
": c gray63",
"> c #A7ABAE",
", c #AFAFAF",
"< c #AFB3B5",
"1 c #B1B6B9",
"2 c #B2B7BB",
"3 c #B6BBBF",
"4 c #BCBCBC",
"5 c #BBC0C3",
"6 c #C1C2C3",
"7 c #C0C4C7",
"8 c #C5C8C9",
"9 c #C5C9CC",
"0 c gray79",
"q c #CACDD0",
"w c #CED2D4",
"e c #D7D7D7",
"r c #D3D6D8",
"t c #D0D6DA",
"y c #D0D7DA",
"u c #D0D6DB",
"i c #D1D6DB",
"p c #D0D7DB",
"a c #D1D7DB",
"s c #D3D9DD",
"d c #D6DCDF",
"f c #D8DBDD",
"g c #D9DEE1",
"h c #DDDFE1",
"j c #DCE1E4",
"k c #DFE3E6",
"l c #E2E4E5",
"z c #E4E4E4",
"x c #E2E6E8",
"c c #E6E8E9",
"v c #E5E8EA",
"b c #E8EBED",
"n c #EBEDEE",
"m c #EAEDEF",
"M c #EDF0F1",
"N c #F1F1F1",
"B c #F0F1F2",
"V c #F0F2F3",
"C c #F3F5F6",
"Z c #F5F6F6",
"A c #F6F7F8",
"S c #F9FAFA",
"D c gray98",
"F c gray99",
"G c white",
/* pixels */
"GGGGGGGGGGGGGGGGGGGGGGGGGGGGGGGGGGGGGGGGGGGGGGGGGGGGGGGGGGGGGGGG",
"GyyyyyyyyyyyyyyyyyyyyyyyyyyyyyyyyyyyyyyyyyyyyyyyyyyyyyyyyyyyyyyG",
"GyyyyyyyyyyyyyyyyyyyyyyyyyyyyyyyyyyyjbbbjgyyyyyyyygjbbbjjjdyyyyG",
"GyyCCCCCCCCCCCGGGGGGGGGGGGGGGGGxyjGGGGGGGGGACCCCSGGGGGGGGGGGGyyG",
"GysGGGGGGGGGGGGGGGGGGGGGGGGGGGGbyjGGGGGGGGGGGGGGGGGGGGGGGGGGGyyG",
"GyjGGGGGGGGGGGGGGGGGGGGGGGGGGGGbyjGGGGGGGGGGGGGGGGGGGGGGGGGGGyyG",
"GyvGGGGGGGGGGGGGGGGGGGGGGGGGGGGvybGGGGGGGGGGGGGGGGGGGGGGGGGGGyyG",
"GyjGGGGGGGGGGGGGGGGGGGGGGGGGGGGjybGGGGGGGGGGGGGGGGGGGGGGGGGGGyyG",
"GyjGGGGGGGGGGGGGGGGGGGGGGGGGGGGbybGGGGGGGGGGGGGGGGGGGGGGGGGGGyyG",
"GyyGGGGGGGGGGGGGGGGGGGGGGGGGGGGbybGGGGGGGGGGGGGGGGGGGGGGGGGGGyyG",
"GyyGGGGGGGGGGGGGGGGGGGGGGGGGGGGMyjGGGGGGGGGGGGGGGGGGGGGGGGGGGyyG",
"GyyCGGGGGGGGGGGGGGGGGGGGGGGGGGGCyjGGGGGGGGGGGGGGGGGGGGGGGGGGGyyG",
"GyyCGGGGGGGGGGGGGGGGGGGGGGGGGGGCyjGGGGGGGGGGGGGGGGGGGGGGGGGGGyyG",
"GyyAGGGGGGGGGGGGGGGGGGGGGGGGGGGVyjGGGGGGGGGGGGGGGGGGGGGGGGGGGyyG",
"GyyGGGGGGGGGGGGGGGGGGGGGGGGGGGGvybGGGGGGGGGGGGGGGGGGGGGGGGGGGyyG",
"GydGGGGGGGGGGGGGGGGGGGGGGGGGGGGjyVGGGGGGGGGGGGGGGGGGGGGGGGGGGyyG",
"GyjGGGGGGGGGGGGGGGGGGGGGGGGGG00<>6000GGGGGGGGGGGGGGGGGGGGGGGGyyG",
"GybGGGGGGGGGGGGGGGGGGGGG0:%o.........%,zGGGGGGGGGGGGGGGGGGGGCyyG",
"GybGGGGGGGGGGGGGGGGGGG-X.....o$$$$o.....O:VGGGGGGGGGGGGGGGGGVyyG",
"GybGGGGGGGGGGGGGGGGGGO..o%:0GGGGGGGGG:$...XeGGGGGGGGGGGGGGGGby G",
"GyjGGGGGGGGGGGGGGGGG&.X,GGGGGGGGGGGGGGGG,%.XVGGGGGGGGGGGGGGGjy G",
"GysGGGGGGGGGGGGGGGG-..,GGGGGGGGGGGGGGGGGGG%.-GGGGGGGGGGGGGGGjy G",
"GyyGGGGGGGGGGGGGGGzX.$GGGGGGGGGGGGGGGGGGGG4.oGGGGGGGGGGGGGGGjy G",
"GyyGGGGGGGGGGGGGGG*.XGGGGGGnhq99999hnGGGGGGO.4GGGGGGGGGGGGGGjy G",
"GyxGGGGGGGGGGGGGGGo.-GGGG9222222222229ZGGGG4.$GGGGGGGGGGGGGGxy G",
"GybGGGGGGGGGGGGGGz..GGGG7225qhnnnnhw523hGGGGO.0GGGGGGGGGGGGGby G",
"GyxGGGGGGGGGGGGGG:.$GGGG23nGGGGGGGGGGf22fGGG0.$GGGGGGGGGGGGGby G",
"GysGGGGGGGGGGGGGG$.,GGG32nGGGGGGGGGGGGv22SGGG%.eGGGGGGGGGGGGnyyG",
"GyynGGGGGGGGGGGGGo.GGGG22GGGGGGGGGGGGGG32vGGG-.*GGGGGGGGGGGGCyyG",
"GyyxGGGGGGGGGGGGe.%GGGv29GGGGGGGGGGGGGGw2yGGG0.$GGGGGGGGGGGGGsyG",
"GyyjGGCCCCGGGGGG$.4GGGf2yGGGGGGGGGGGGGGl29GGGG.oGGGGGGGGGGGGGjyG",
"GyyyyyyyyyjbCCM8.oGGGGq2hGGGGGGGGGGGGGGV22GGGG..yyyyyyyyyyyyyyyG",
"Gyyyyysyyyyyyyy;.&GGGG72VGGGGGGGGGGGGGGG22GGGGX.2yyyyyyyyyyyyyyG",
"GyyGGGGGGSMbjjj=.-GGGG52GGGGGGGGGGGGGGGG22GGGG$.0GGGGGGGGGGGGxyG",
"GysGGGGGGGGGGGG-.*GGGGq2vGGGGGGGGGGGGGSq29GGGG..eGGGGGGGGGGGGbyG",
"GybGGGGGGGGGGGG4.OGGGGG27GGGGGGGGGGGGS723GGGGX.$GGGGGGGGGGGGGgyG",
"GyCGGGGGGGGGGGGV..GGGGGq2wGGGGGGGGGGG723GGGGO.OVGGGGGGGGGGGGnyyG",
"GyCGGGGGGGGGGGGG%.*GGGGG72qvGGGGGGGGf22GGGGG.XzGGGGGGGGGGGGGjy G",
"GynGGGGGGGGGGGGG0.XGGGGGG3227nGGGGGZ32GGGGG&.&GGGGGGGGGGGGGGjy G",
"GyxGGGGGGGGGGGGGG%.*GGGGGG9222hGGGZ729GGGGG$.4GGGGGGGGGGGGGGbyyG",
"GygGGGGGGGGGGGGGGVO.:GGGGGGGw22222223GGGGGGo.zGGGGGGGGGGGGGGCyyG",
"GyyGGGGGGGGGGGGGGGeX.$GGGGGGGGf5222qGGGGGG0.OGGGGGGGGGGGGGGGGyyG",
"GyyAGGGGGGGGGGGGGGGV$.X:GGGGGGGGGGGGGGGGG4X.4GGGGGGGGGGGGGGGGyyG",
"GyyCGGGGGGGGGGGGGGGGG,X.$GGGGGGGGGGGGGG4O..,GGGGGGGGGGGGGGGGGyyG",
"GyyCGGGGGGGGGGGGGGGGGGzo.o4GGGGGGGGG*o...&zGGGGGGGGGGGGGGGGGAyyG",
"GyyCGGGGGGGGGGGGGGGGGGGVo..o%-GGG:&....%0GGGGGGGGGGGGGGGGGGGnyyG",
"GyyCGGGGGGGGGGGGGGGGGGGGV*..........%,GGGGGGGGGGGGGGGGGGGGGGby G",
"GyyCGGGGGGGGGGGGGGGGGGGGGGG0:&#+@%-4GGGGGGGGGGGGGGGGGGGGGGGGbyyG",
"GyyCGGGGGGGGGGGGGGGGGGGGGGGGGGAysGGGGGGGGGGGGGGGGGGGGGGGGGGGAyyG",
"GyyVGGGGGGGGGGGGGGGGGGGGGGGGGGGsyAGGGGGGGGGGGGGGGGGGGGGGGGGGGsyG",
"GyyvGGGGGGGGGGGGGGGGGGGGGGGGGGGjyCGGGGGGGGGGGGGGGGGGGGGGGGGGGjyG",
"G yjGGGGGGGGGGGGGGGGGGGGGGGGGGGjyCGGGGGGGGGGGGGGGGGGGGGGGGGGGjyG",
"G yjGGGGGGGGGGGGGGGGGGGGGGGGGGGgyCGGGGGGGGGGGGGGGGGGGGGGGGGGGgyG",
"G yxGGGGGGGGGGGGGGGGGGGGGGGGGGGyyGGGGGGGGGGGGGGGGGGGGGGGGGGGGyyG",
"GyybGGGGGGGGGGGGGGGGGGGGGGGGGGGyyGGGGGGGGGGGGGGGGGGGGGGGGGGGGyyG",
"GyybGGGGGGGGGGGGGGGGGGGGGGGGGGCygGGGGGGGGGGGGGGGGGGGGGGGGGGGCyyG",
"G ybGGGGGGGGGGGGGGGGGGGGGGGGGGCyjGGGGGGGGGGGGGGGGGGGGGGGGGGGCyyG",
"G ybGGGGGGGGGGGGGGGGGGGGGGGGGGMyvGGGGGGGGGGGGGGGGGGGGGGGGGGGMyyG",
"G yjGGGGGGGGGGGGGGGGGGGGGGGGGGMyjGGGGGGGGGGGGGGGGGGGGGGGGGGGMyyG",
"G yjGGGGGGGGGGGGGGGGGGGGGGGGGGCydGGGGGGGGGGGGGGGGGGGGGGGGGGGCyyG",
"G yvGGGGGGGGGGGGGGGGGGGGGGGGGGAyyGGGGGGGGGGGGGGGGGGGGGCCCCCCAyyG",
"GyydjvbbbbbjjjjjjjjjjjjjjjjjyyyyyyyyyyyyyyyyyydjjjjjyyyyyyyyyyyG",
"GyyyyyyyyyyyyyyyyyyyyyyyyyyyyyyyyyyyyyyyyyyyyyyyyyyyyyyyyyyyyyyG",
"GGGGGGGGGGGGGGGGGGGGGGGGGGGGGGGGGGGGGGGGGGGGGGGGGGGGGGGGGGGGGGGG"
};
