/* XPM */
static char *f9b363f32f5c442de73a59cc7a65b1f7OwTI1KaJTG7A0NAd[] = {
/* columns rows colors chars-per-pixel */
"64 64 19 1 ",
"  c #6F3E43",
". c #F4B41B",
"X c #CB815E",
"o c #D0D7DA",
"O c #D1D7DC",
"+ c #D3D9DD",
"@ c #D6DCDF",
"# c #D9DEE1",
"$ c #DCE1E4",
"% c #E2E6E8",
"& c #E5E8EA",
"* c #E8EBED",
"= c #EAEDEF",
"- c #EDF0F1",
"; c #F0F2F3",
": c #F3F5F6",
"> c #F6F7F8",
", c #F9FAFA",
"< c white",
/* pixels */
"<<<<<<<<<<<<<<<<<<<<<<<<<<<<<<<<<<<<<<<<<<<<<<<<<<<<<<<<<<<<<<<<",
"<oooooooooooooooooooooooooooooooooooooooooooooooooooooooooooooo<",
"<ooooooooooooooooooooooooooooooooooo$***$#oooooooo#$***$$$@oooo<",
"<oo:::::::::::<<<<<<<<<<<<<<<<<%o$<<<<<<<<<>::::,<<<<<<<<<<<<oo<",
"<o+<<<<<<<<<<<<<<<<<<<<<<<<<<<<*o$<<<<<<<<<<<<<<<<<<<<<<<<<<<oo<",
"<o$<<<<<<<<<<<<<<<<<<<<<<<<<<<<*o$<<<<<<<<<<<<<<<<<<<<<<<<<<<oo<",
"<o&<<<<<<<<<<<<<<<<<<<<<<<<<<<<&o*<<<<<<<<<<<<<<<<<<<<<<<<<<<oo<",
"<o$<<<<<<<<<<<<<<<<<<<<<<<<<<<<$o*<<<<<<<<<<<<<<<<<<<<<<<<<<<oo<",
"<o$<<<<<<<<<<<<<<<<<<<<<<<<<<<<*o*<<<<<<<<<<<<<<<<<<<<<<<<<<<oo<",
"<oo<<<<<<<<<<<<<<<<<<<<<<<<<<<<*o*<<<<<<<<<<<<<<<<<<<<<<<<<<<oo<",
"<oo<<<<<<<<<<<<<<<<<<<<<<<<<<<<-o$<<<<<<<<<<<<<<<<<<<<<<<<<<<oo<",
"<oo:<<<<<<<<<<<<<<<<<<<<<<<<<<<:o$<<<<<<<<<<<<<<<<<<<<<<<<<<<oo<",
"<oo:<<<<<<<<<<<<<<<<<<<<<<<<<<<:o$<<<<<<<<<<<<<<<<<<<<<<<<<<<oo<",
"<oo><<<<<<<<<<<<<<<<<<<<<<<<<<<;o$<<<<<<<<<<<<<<<<<<<<<<<<<<<oo<",
"<oo<<<<<<<<<<<<<<<<<<<<<<<<<<<<&o*<<<<<<<<<<<<<<<<<<<<<<<<<<<oo<",
"<o@<<<<<<<<<<<<<<<<<<<<<<<<<<<<$o;<<<<<<<<<<<<<<<<<<<<<<<<<<<oo<",
"<o$<<<<<<<<<<<<<<<<<<<<<<<<<<<<$o:<<<<<<<<<<<<<<<<<<<<<<<<<<<oo<",
"<o*<<<<<<<<<<<<<<<<<<<<<<<<<<<<$o:<<<<<<<<<<<<<<<<<<<<<<<<<<:oo<",
"<o*<<<<<<<<<<<<<<<<<<<<<<<<<<<<$o:<<<<<<<<<<<<<<<<<<<<<<<<<<;oo<",
"<o*<<<<<<<<<<<<<<<<<<<<<<<<<<<<$o:<<<<<<<<<<<<<<<<<<<<<<<<<<*oo<",
"<o$<<<<<<<<<<<<<<<<<<<<<<<<<<<<+o<<<<<<<<<<<<<<<<<<<<<<<<<<<$oO<",
"<o+<<<<<<<<<<<<<<<<<<<<<<<<<<<<oo<<<<<<<<<<<<<<<<<<<<<<<<<<<$oo<",
"<oo<<<<<<<<<<<<<<<<<<<<<<<<<<<:o@<<<<<<<<<<<<<<<<<<<<<<<<<<<$oo<",
"<oo<<<<<<<<<<<<<<<<<<<<<<<<<<<=o$<<<<<<<<<<<<<<<<<<<<<<<<<<<$oo<",
"<o%<<<<<<<<<<<<<<<<<<<<<<<<<<<&o*<<<<<<<<<<<<<<<<<<<<<<<<<<<%oO<",
"<o*<<<<<<<<<<<<<<<<<<<<<<<<<<<$o;<<<<<<<<<<<<<<<<<<<<<<<<<<<*oo<",
"<o%<<<<<<<<<<<<<<<<<<<<<        :<<<<<<<<<<<<<<<<<<<<<<<<<<<*oo<",
"<o+<<<<<<<<<<<<<<<<<<<<          <<<<<<<<<<<<<<<<<<<<<<<<<<<=oo<",
"<oo=<<<<<<<<<<<<<<<<<<<  X....X  <<<<<<<<<<<<<<<<<<<<<<<<<<<:oo<",
"<oo%<<<<<<<<<<<<<<<<<<<  ......         <<<<<<<<<<<<<<<<<<<<<+o<",
"<oo$<<::::<<<<<<<<<<<<<  ..  ..          <<<<<<<<<<<<<<<<<<<<$o<",
"<ooooooooo$*::-*$@ooooo  ..  ..........  *::-*$@ooooooooooooooo<",
"<ooooo+oooooooooooooooo  ..  ..........  oooooooooooooooooooooo<",
"<oo<<<<<<,-*$$$*-:<<<<<  ..  ..   XXXXX  *$$$*-:<<<<<<<<<<<<<%o<",
"<o+<<<<<<<<<<<<<<<<<<<<  ......   .....  <<<<<<<<<<<<<<<<<<<<*o<",
"<o*<<<<<<<<<<<<<<<<<<<<  X....X   .. ..  <<<<<<<<<<<<<<<<<<<<#o<",
"<o:<<<<<<<<<<<<<<<<<<<<                  <<<<<<<<<<<<<<<<<<<=oo<",
"<o:<<<<<<<<<<<<<<<<<<<<<        *       <<<<<<<<<<<<<<<<<<<<$oo<",
"<o=<<<<<<<<<<<<<<<<<<<<<<<<<<<$o*<<<<<<<<<<<<<<<<<<<<<<<<<<<$oo<",
"<o%<<<<<<<<<<<<<<<<<<<<<<<<<<<*o$<<<<<<<<<<<<<<<<<<<<<<<<<<<*oo<",
"<o#<<<<<<<<<<<<<<<<<<<<<<<<<<<:o@<<<<<<<<<<<<<<<<<<<<<<<<<<<:oo<",
"<oo<<<<<<<<<<<<<<<<<<<<<<<<<<<<oo<<<<<<<<<<<<<<<<<<<<<<<<<<<<oo<",
"<oo><<<<<<<<<<<<<<<<<<<<<<<<<<<oo<<<<<<<<<<<<<<<<<<<<<<<<<<<<oo<",
"<oo:<<<<<<<<<<<<<<<<<<<<<<<<<<<oo<<<<<<<<<<<<<<<<<<<<<<<<<<<<oo<",
"<oo:<<<<<<<<<<<<<<<<<<<<<<<<<<>o@<<<<<<<<<<<<<<<<<<<<<<<<<<<>oo<",
"<oo:<<<<<<<<<<<<<<<<<<<<<<<<<<=o%<<<<<<<<<<<<<<<<<<<<<<<<<<<=oo<",
"<oo:<<<<<<<<<<<<<<<<<<<<<<<<<<*o*<<<<<<<<<<<<<<<<<<<<<<<<<<<*oo<",
"<oo:<<<<<<<<<<<<<<<<<<<<<<<<<<*o%<<<<<<<<<<<<<<<<<<<<<<<<<<<*oo<",
"<oo:<<<<<<<<<<<<<<<<<<<<<<<<<<>o+<<<<<<<<<<<<<<<<<<<<<<<<<<<>oo<",
"<oo;<<<<<<<<<<<<<<<<<<<<<<<<<<<+o><<<<<<<<<<<<<<<<<<<<<<<<<<<+o<",
"<oo&<<<<<<<<<<<<<<<<<<<<<<<<<<<$o:<<<<<<<<<<<<<<<<<<<<<<<<<<<$o<",
"<oo$<<<<<<<<<<<<<<<<<<<<<<<<<<<$o:<<<<<<<<<<<<<<<<<<<<<<<<<<<$o<",
"<oo$<<<<<<<<<<<<<<<<<<<<<<<<<<<#o:<<<<<<<<<<<<<<<<<<<<<<<<<<<#o<",
"<oo%<<<<<<<<<<<<<<<<<<<<<<<<<<<oo<<<<<<<<<<<<<<<<<<<<<<<<<<<<oo<",
"<oo*<<<<<<<<<<<<<<<<<<<<<<<<<<<oo<<<<<<<<<<<<<<<<<<<<<<<<<<<<oo<",
"<oo*<<<<<<<<<<<<<<<<<<<<<<<<<<:o#<<<<<<<<<<<<<<<<<<<<<<<<<<<:oo<",
"<oo*<<<<<<<<<<<<<<<<<<<<<<<<<<:o$<<<<<<<<<<<<<<<<<<<<<<<<<<<:oo<",
"<oo*<<<<<<<<<<<<<<<<<<<<<<<<<<-o&<<<<<<<<<<<<<<<<<<<<<<<<<<<-oo<",
"<Oo$<<<<<<<<<<<<<<<<<<<<<<<<<<-o$<<<<<<<<<<<<<<<<<<<<<<<<<<<-oo<",
"<oo$<<<<<<<<<<<<<<<<<<<<<<<<<<:o@<<<<<<<<<<<<<<<<<<<<<<<<<<<:oo<",
"<oo&<<<<<<<<<<<<<<<<<<<<<<<<<<>oo<<<<<<<<<<<<<<<<<<<<<::::::>oo<",
"<oo@$&*****$$$$$$$$$$$$$$$$$oooooooooooooooooo@$$$$$ooooooooooo<",
"<oooooooooooooooooooooooooooooooooooooooooooooooooooooooooooooo<",
"<<<<<<<<<<<<<<<<<<<<<<<<<<<<<<<<<<<<<<<<<<<<<<<<<<<<<<<<<<<<<<<<"
};
