/* XPM */
static char *_5c9f1af10c7486ad17e0aa21a2868daIAlTF4ABfEmUEqAQ[] = {
/* columns rows colors chars-per-pixel */
"64 64 107 2 ",
"   c None",
".  c #2A2A2A",
"X  c gray20",
"o  c #343434",
"O  c #343535",
"+  c #353535",
"@  c #373737",
"#  c #3A3B3B",
"$  c #3C3C3D",
"%  c #424344",
"&  c #444444",
"*  c #444545",
"=  c #464748",
"-  c #48494A",
";  c #494B4B",
":  c #4B4B4C",
">  c #4B4C4D",
",  c #4C4E4F",
"<  c #4E5152",
"1  c #515151",
"2  c #515253",
"3  c gray32",
"4  c #535556",
"5  c #555656",
"6  c #545657",
"7  c #555758",
"8  c #575A5A",
"9  c #5A5A5A",
"0  c #5B5D5E",
"q  c gray36",
"w  c #5D5D5D",
"e  c #5C5E5F",
"r  c #5F5F5F",
"t  c #5E6061",
"y  c #616264",
"u  c #616465",
"i  c #696B6D",
"p  c #6C6C6C",
"a  c #6C6D6D",
"s  c #737374",
"d  c #737577",
"f  c #757779",
"g  c #767778",
"h  c #797979",
"j  c gray48",
"k  c #7E8183",
"l  c #37D98C",
"z  c #43DB93",
"x  c #50DD9A",
"c  c #5CE0A1",
"v  c #69E2A8",
"b  c #75E4AF",
"n  c gray53",
"m  c #8B8E91",
"M  c #909497",
"N  c gray58",
"B  c #959595",
"V  c #989CA0",
"C  c gray63",
"Z  c #A2A2A2",
"A  c #A2A4A4",
"S  c #A1A6A9",
"D  c #AFAFAF",
"F  c #AAAEB2",
"G  c #ADAFB0",
"H  c #B6B7B7",
"J  c #B2B7BB",
"K  c #B7BABB",
"L  c #B6BBBF",
"P  c #BBBCBD",
"I  c #BCBCBC",
"U  c gray74",
"Y  c #82E7B7",
"T  c #8EE9BE",
"R  c #BBBFC2",
"E  c #BBC0C3",
"W  c #9BECC5",
"Q  c #A7EECC",
"!  c #B4F0D3",
"~  c #C0C4C7",
"^  c #C5C9CC",
"/  c gray79",
"(  c #CACACA",
")  c #CACDD0",
"_  c #CDD0D2",
"`  c #CED2D4",
"'  c #D3D5D6",
"]  c #D7D7D7",
"[  c #D3D6D8",
"{  c #D8DBDD",
"}  c #C0F3DB",
"|  c #DDDFE1",
" . c #CDF5E2",
".. c #D9F7E9",
"X. c #E2E4E5",
"o. c #E4E4E4",
"O. c gray90",
"+. c #E6E8E9",
"@. c #EBEDEE",
"#. c #E6FAF0",
"$. c #F1F1F1",
"%. c #F0F1F2",
"&. c gray95",
"*. c #F5F6F6",
"=. c #F2FCF7",
"-. c gray98",
";. c white",
/* pixels */
";.;.;.;.;.;.;.;.;.;.;.;.;.;.;.;.;.;.;.;.;.;.;.;.;.;.;.;.;.&.;.;.;.;.;.;.;.;.;.;.;.;.;.;.;.;.;.;.;.o./ / / / / / ;.;.;.;.;.;.;.;.",
";.8 > > > > > > > > > > > > . . . . . . . . . . . . . . . . . . . . ; 4 d k k k k k 4 2 > % . . . . . . . . . . . ; 4 4 4 ; 8 ;.",
";.. . . . . . . . . . . . . . . . . . . . J . . . . . . . . . . . . . . . . . . . . . . . . . . . & r r r r r . . . . . . . . ;.",
";.. . / / / / / / / / / / / ;.;.;.;.;.;.;.;.;.;.;.;.;.;.;.;.;.;.;.;.] / Z N N N N N / / / ] ;.;.;.;.;.;.;.;.;.;./ / / / / . . ;.",
";.. . ;.;.;.;.;.;.;.;.;.;.;.;.;.;.;.;.;.;.;.;.;.;.;.;.;.;.;.;.;.;.;.;.;.;.;.;.;.;.;.;.;.;.;.;.;.;.;.;.;.;.;.;.;.;.;.;.;.;.. . ;.",
"] . @ ;.;.;.;.;.;.;.;.;.;.;.;.;.;.;.;.;.;.;.;.;.;.;.;.;.;.;.;.;.;.;.;.;.;.;.;.;.;.;.;.;.;.;.;.;.;.;.;.;.;.;.;.;.;.;.;.;.;.. . ;.",
"U . r ;.;.;.;.;.;.;.;.;.;.;.;.;.;.;.;.;.;.;.;.;.;.;.;.;.;.;.;.;.;.;.;.;.;.;.;.;.;.;.;.;.;.;.;.;.;.;.;.;.;.;.;.;.;.;.;.;.;.. . ;.",
"j . N ;.;.;.;.;.;.;.;.;.;.;.;.;.;.;.;.;.;.;.;.;.;.;.;.;.;.;.;.;.;.;.;.;.;.;.;.;.;.;.;.;.;.;.;.;.;.;.;.;.;.;.;.;.;.;.;.;.;.. . ;.",
"r . / ;.;.;.;.;.-.| { { { { { { { { { { { { { { { { { { { { { { { { { { { { { ` ^ ^ ^ ^ ^ { *.;.;.-.+.{ { { { ;.;.;.;.;.;.. . ;.",
"r . U ;.;.;.;.;.{ J J J J J J J J J J J J J J J J J J J J J J J J J J J J J J J J J J J J J J J J J J J J J J | ;.;.;.;.;.. . ;.",
"n . j ;.;.;.;.;.+.J J { { { { { { { { { { { { { { { { { { { { { { { { { { { { { @.@.@.@.@.^ J J J J ~ [ { ^ J { ;.;.;.;.;.. . ;.",
"/ . r ;.;.;.;.;.;.E J +.;.;.;.;.;.;.;.;.;.;.;.;.;.;.] Z N N r r r 2 r r n Z ;.;.;.;.;.;.;.;.;.;.;.;.;.;.;.{ J { ;.;.;.;.;.. . ;.",
"/ . r ;.;.;.;.;.;.` J | ;.;.;.;.;.;.;.;.;.;.;.;./ @ . . . . . . . . . . . . . j / ;.;.;.;.;.;.;.;.;.;.;.;.{ J { ;.;.;.;.;.. . ;.",
"/ . r ;.;.;.;.;.;.) J @.;.;.;.;.;.;.;.;.;.;.&.N . . r n N N / / / / / / Z r . . . p ] ;.;.;.;.;.;.;.;.;.;.{ J { ;.;.;.;.;.. . ;.",
"/ . r ;.;.;.;.;.;.^ J @.;.;.;.;.;.;.&.Z r & . . . n &.;.;.;.;.;.;.;.;.;.;.;.U j . . . p ] &.L ) +.;.;.+.{ ~ J { ;.;.;.;.;.. . ;.",
"/ . r ;.;.;.;.;.;.^ J @.;.;.;.;.;.] @ . . . . p ] ;.;.;.;.;.;.;.;.;.;.;.;.;.;.;.o.n . . @ K J J J J J J J J J ` ;.;.;.;.;.. . ;.",
"D . n ;.;.;.;.;.;.E J *.;.;.;.;.;.p . & D o.;.;.;.;.;.;.;.;.;.;.;.;.;.;.;.;.;.;.;.;.o.p . : F E J J J ) { ` J ^ ;.;.;.;.;.. . ;.",
"D . p ;.;.;.;.;.;.J J ;.;.;.;.;.D . & &.;.;.;.;.;.;.;.;.;.;.;.;.;.;.;.;.;.;.;.;.;.;.;.;.j . X K ;.;.;.;.;.&.J L ;.;.;.;./ . $ ;.",
"/ . r ;.;.;.;.;.;.J J ;.;.;.;.U . . ] ;.;.;.;.;.;.;.} W W W W W !  .#.;.;.;.;.;.;.;.;.;.;.p . @ / ;.;.;.;.;.J J ;.;.;.;.U . > ;.",
"o.. . ;.;.;.;.;.;.J J ;.;.;.&.@ . N ;.;.;.;.;.;.;.Y l l l l l l l l l l x b ..;.;.;.;.;.;.&.2 . . ] ;.;.;.;.J J ;.;.;.;.N . u ;.",
";.@ . ] ;.;.;.;.&.J J ;.;.;.n . p ;.;.;.;.;.;.=.c l l l l l l l l l l l l l l ..;.;.;.;.;.;.&.p . @ &.;.;.;.J L ;.;.;.;.p . i ;.",
";.t . Z ;.;.;.;.-.J J ;.;./ . @ &.;.;.;.;.;...z l l l l l l l l l l l l l l l l ! ;.;.;.;.;.;.&.& . N ;.;.@.J ^ ;.;.;.;.r .   ;.",
";.k . N ;.;.;.;.;.J J ;.&.& . N ;.;.;.;.;.;.c l l l l l l l l l l l l l l l l l l Q ;.;.;.;.;.;.U . & J J J J ` ;.;.;.;.r .   ;.",
";.k . N ;.;.;.;.;.J J ;.n . @ &.;.;.;.;.;.T l l l l l l l l l l l l l l l l l l l l Y =.;.;.;.;.&.. . V J J J { ;.;.;.;.r .   ;.",
";.k . N ;.;.;.;.;.J J &.@ . Z ;.;.;.;.;.} l l l l l l l l l l l l l l l l l l l l l l c =.;.;.;.;.p . j ;.) J | ;.;.;.;.j . i ;.",
";.k . N ;.;.;.;.@.J E H . & ;.;.;.;.;.#.l l l l l l l l l l l l l l l l l l l l l l l l Y ;.;.;.;.D . @ &.^ J @.;.;.;.;.N . u ;.",
";.i . N ;.;.;.;.~ J E 7 . N ;.;.;.;.;.Y l l l l l l l l l l l l l l l l l l l l l l l l z =.;.;.;.;.@ . N ^ J | ;.;.;.;.N . u ;.",
";.4 . / ;.;.;.*.J J J , . / ;.;.;.;.=.l l l l l l l l l l l l l l l l l l l l l l l l l l Q ;.;.;.;.N . @ [ J { ;.;.;.;.Z . 0 ;.",
";.2 . / ;.;.;.@.J J ^ r . / ;.;.;.;. .l l l l l l l l l l l l l l l l l l l l l l l l l l c ;.;.;.;.&.. . G J ) ;.;.;.;./ . < ;.",
";.= . / ;.;.;.&.J J -.. . ;.;.;.;.;.W l l l l l l l l l l l l l l l l l l l l l l l l l l l ;.;.;.;.;.. . ' J E ;.;.;.;.o.. @ ;.",
";.= . / ;.;.;.;.J J ;.. . ;.;.;.;.;.Y l l l l l l l l l l l l l l l l l l l l l l l l l l l ;.;.;.;.;.. . ;.J J ;.;.;.;.;.. . o.",
";.. . / ;.;.;.;.J J ;.. . ;.;.;.;.;.v l l l l l l l l l l l l l l l l l l l l l l l l l l l ;.;.;.;.;.. . ;.^ J @.;.;.;.;.& . / ",
"&.. . &.;.;.;.;.J J -.2 . ] ;.;.;.;.v l l l l l l l l l l l l l l l l l l l l l l l l l l x ;.;.;.;.;.. . ;.J J ;.;.;.;.;.r . N ",
"D . @ ;.;.;.;.;.^ J { r . / ;.;.;.;.v l l l l l l l l l l l l l l l l l l l l l l l l l l Y ;.;.;.;.;.. . @.J E ;.;.;.;.;.j . N ",
"j . j ;.;.;.;.;.+.J J r . U ;.;.;.;.T l l l l l l l l l l l l l l l l l l l l l l l l l l Q ;.;.;.;.;.. . { J ) ;.;.;.;.;.N . N ",
"r . U ;.;.;.;.;.X.J J g . n ;.;.;.;...l l l l l l l l l l l l l l l l l l l l l l l l l l #.;.;.;.;.] . & ) J { ;.;.;.;.;.N . N ",
"r . / ;.;.;.;.;.{ J J m . r ;.;.;.;.;.l l l l l l l l l l l l l l l l l l l l l l l l l l ;.;.;.;.;.j . j ^ J { ;.;.;.;.;.N . N ",
"r . / ;.;.;.;.;.{ J J S . . ;.;.;.;.;.v l l l l l l l l l l l l l l l l l l l l l l l l v ;.;.;.;.o.. . / ^ J @.;.;.;.;.;.p . Z ",
"p . Z ;.;.;.;.;.{ J ^ J # . / ;.;.;.;.W l l l l l l l l l l l l l l l l l l l l l l l l ! ;.;.;.;.j . & ;.` J X.;.;.;.;.;.r . / ",
"N . j ;.;.;.;.;.{ J { @.y . j ;.;.;.;.! l l l l l l l l l l l l l l l l l l l l l l l Y ;.;.;.;.&.@ . A @.` J [ ;.;.;.;.;.r . / ",
"U . 2 ;.;.;.;.;.+.J ) ;./ . . &.;.;.;.;.x l l l l l l l l l l l l l l l l l l l l l Y ;.;.;.;.;.N . 5 J J J J ~ ;.;.;.;.;.. . &.",
"&.. . ;.;.;.;.;.| J [ ;.;.& . N ;.;.;.;.=.c l l l l l l l l l l l l l l l l l l l c =.;.;.;.;.U . @ R ^ ^ E J J -.;.;.;.;.. . ;.",
";.@ . ] ;.;.;.;.{ J { ;.;./ . @ ] ;.;.;.;.;.W l l l l l l l l l l l l l l l l l x =.;.;.;.;.o.@ . U ;.;.;.{ J J @.;.;.;.;.. . ;.",
";.> . / ;.;.;.;.{ J { ;.;.;.Z . & ] ;.;.;.;.;...Y l l l l l l l l l l l l l l c ..;.;.;.;.;.r . p ;.;.;.;.| J J @.;.;.;.;.. . ;.",
";.> . / ;.;.;.;.{ J { ;.;.;.;.p . 2 &.;.;.;.;.;.;.! Y v z l l l l l l l l x ! ;.;.;.;.;.;.N . 5 ;.;.;.;.;.@.J J -.;.;.;.;.. . ;.",
";.> . / ;.;.;.;.{ J { ;.;.;.;.&.2 . 2 &.;.;.;.;.;.;.;.;.;.;.=. . . . . ...;.;.;.;.;.;.;./ . X _ ;.;.;.;.;.@.J ^ ;.;.;.;.;.. . ;.",
";.> . / ;.;.;.;.{ J { ;.;.;.;.;.] @ . 2 &.;.;.;.;.;.;.;.;.;.;.;.;.;.;.;.;.;.;.;.;.;.;.&.2 . M { ;.;.;.;.;.@.J ^ ;.;.;.;.;.. . ;.",
";.> . / ;.;.;.;.{ J { ;.;.;.;.;.;.] & . 2 ] ;.;.;.;.;.;.;.;.;.;.;.;.;.;.;.;.;.;.;.;./ @ . p J { ;.;.;.-.;.+.J ) ;.;.;.;.;.. . ;.",
";.> . / ;.;.;.;.{ J { ;.;.;.;.;.;.;.&.r . @ D ;.;.;.;.;.;.;.;.;.;.;.;.;.;.;.;.;.o.p . . n { J J J J J J J J J { ;.;.;.;.] . ; ;.",
";.> . U ;.;.;.;.{ J { ;.;.;.;.;.;.;.;.&.p . . n ;.;.;.;.;.;.;.;.;.;.;.;.;.;.] Z @ . 2 / ;.+.L J J J L J J J J | ;.;.;.;./ . 4 ;.",
";.r . n ;.;.;.;.{ J { ;.;.;.;.;.;.;.;.;.;.Z @ . & Z / &.;.;.;.;.;.o./ U N p . . @ Z ;.;.;.;.;.;.;.;.;.;.;.E J @.;.;.;.;./ . 4 ;.",
";.  . r ;.;.;.;.{ J { ;.;.;.;.;.;.;.;.;.;.;.&.p . . . . . . . . . . . . . . . r o.;.;.;.;.;.;.;.;.;.;.;.;.` J { ;.;.;.;.U . t ;.",
";.  . r ;.;.;.;.{ J { ;.;.;.;.;.;.;.;.;.;.;.*.@.P s 9 @ . . . . . & r p N D o.;.;.;.;.;.;.;.;.;.;.;.;.;.;.X.J ^ ;.;.;.;.N . k ;.",
";.u . j ;.;.;.;.{ J ` @.@.@.+.{ ` ^ L J J J J J J J J J J J J E ^ ^ ^ ^ ^ ^ ) { { { { { { { { @.@.@.@.@.@.{ J ^ ;.;.;.;.N . k ;.",
";.r . N ;.;.;.;.{ J J J J J J J J J J J J J E ^ ^ ^ ^ J J J J J J J J J J J J J J J J J J J J J J J J J J J J { ;.;.;.;.N . k ;.",
";.2 . N ;.;.;.;.&.^ ^ ^ ^ ^ ) { { X.&.;.;.;.;.;.;.;.;.;.;.;.*.@.@.@.@.@.@.@.+.{ { { { { { { { ^ ^ ^ ^ ^ ^ ^ ) ;.;.;.;.;.N . g ;.",
";.u . N ;.;.;.;.;.;.;.;.;.;.;.;.;.;.;.;.;.;.;.;.;.;.;.;.;.;.;.;.;.;.;.;.;.;.;.;.;.;.;.;.;.;.;.;.;.;.;.;.;.;.;.;.;.;.;.;.D . > ;.",
";.u . N ;.;.;.;.;.;.;.;.;.;.;.;.;.;.;.;.;.;.;.;.;.;.;.;.;.;.;.;.;.;.;.;.;.;.;.;.;.;.;.;.;.;.;.;.;.;.;.;.;.;.;.;.;.;.;.;.&.. . ;.",
";.i . p ;.;.;.;.;.;.;.;.;.;.;.;.;.;.;.;.;.;.;.;.;.;.;.;.;.;.;.;.;.;.;.;.;.;.;.;.;.;.;.;.;.;.;.;.;.;.;.;.;.;.;.;.;.;.;.;.;.. . ;.",
";.  . r ;.;.;.;.;.;.;.;.;.;.;.;.;.;.;.;.;.;.;.;.;.;.;.;.;.;.;.;.;.;.;.;.;.;.;.;.;.;.;.;.;.;.;.;.;.;.;.;.;.;.;.;.;.;.;.;.;.. . ;.",
";.u . n ;.;.;.;.;.&.;.;.;.;.;.;.;.;.;.;.;.;.;.;.;.;.;.;.;.;.;.;.;.;.;.;.;.;.;.;.;.;.;.;.;.;.;.;.;.;.;.;.;.;./ / / / / / ;.. . ;.",
";.$ . & r r & . . . . @ r r N N / / / / / / Z N N N r r r r r r r r . . . . . . . . . . . . & r r r r r . . . . . . . . . . . ;.",
";.& . . . . . . 4 ; . . . . . . . . . . . . . . . . . . . . . . . . . . . . . . . . . . . . . . . . . . . . $ > > > > > . . @ ;.",
";.&./ N N N N / ;.;.;.&./ D j r r r r r r r p N N D / / / / / / / / ;.;.;.;.;.;.;.;.;.;.;.;.o./ / / / / / &.;.;.;.;.;.;.;.;.;.;."
};
