/* XPM */
static char *result[] = {
/* columns rows colors chars-per-pixel */
"64 64 69 1 ",
"  c #2A2A2A",
". c #373737",
"X c #424343",
"o c #444444",
"O c #494A4B",
"+ c #4B4C4D",
"@ c #515151",
"# c gray32",
"$ c #535556",
"% c #595A5A",
"& c #5C5C5D",
"* c #5F5F5F",
"= c #6C6C6C",
"- c #797979",
"; c gray48",
": c #37D98C",
"> c #43DB93",
", c #50DD9A",
"< c #5CE0A1",
"1 c #69E2A8",
"2 c #75E4AF",
"3 c gray53",
"4 c gray58",
"5 c #959595",
"6 c gray63",
"7 c #A2A2A2",
"8 c #AFAFAF",
"9 c #BCBCBC",
"0 c gray74",
"q c #82E7B7",
"w c #8EE9BE",
"e c #9BECC5",
"r c #A7EECC",
"t c #B4F0D3",
"y c gray79",
"u c #CACACA",
"i c #D7D7D7",
"p c #D0D6DA",
"a c #D0D7DA",
"s c #D0D6DB",
"d c #D1D6DB",
"f c #D0D7DB",
"g c #D1D7DB",
"h c #D3D9DD",
"j c #D6DCDF",
"k c #C0F3DB",
"l c #D9DEE1",
"z c #DCE1E4",
"x c #DFE3E6",
"c c #CDF5E2",
"v c #D9F7E9",
"b c #E4E4E4",
"n c gray90",
"m c #E2E6E8",
"M c #E5E8EA",
"N c #E8EBED",
"B c #EAEDEF",
"V c #EDF0F1",
"C c #E6FAF0",
"Z c #F1F1F1",
"A c #F0F2F3",
"S c gray95",
"D c #F3F5F6",
"F c #F2FCF7",
"G c #F6F7F8",
"H c #F9FAFA",
"J c gray99",
"K c white",
"L c None",
/* pixels */
"KKKKKKKKKKKKKKKKKKKKKKKKKKKKKKKKKKKKKKKKKKKKKKKKKKKKKKKKKKKKKKKK",
"KaffffffffffffgggggggggggggggggggggggggggggsffffggggggggggggggaK",
"KgggggggggggggggggggggggggggggggggggxNNNxlgggggggglxNNNxzzjggggK",
"KggDDDDDDDDDDDKKKKKKKKKKKKKKKKKmgxKKKKKKKKKGDDDDHKKKKKKKKKKKKggK",
"KghKKKKKKKKKKKKKKKKKKKKKKKKKKKKNgzKKKKKKKKKKKKKKKKKKKKKKKKKKKggK",
"KgzKKKKKKKKKKKKKKKKKKKKKKKKKKKKNgxKKKKKKKKKKKKKKKKKKKKKKKKKKKggK",
"KgMKKKKKKKKKKKKKKKKKKKKKKKKKKKKMgNKKKKKKKKKKKKKKKKKKKKKKKKKKKggK",
"KgzKKKKKKKKKKKKKKKKKKKKKKKKKKKKxgNKKKKKKKKKKKKKKKKKKKKKKKKKKKggK",
"KgzKKKKKKKKKKKKKKKKKKKKKKKKKKKKNgNKKKKKKKKKKKKKKKKKKKKKKKKKKKggK",
"KggKKKKKKKKKKKKKKKKKKKKKKKKKKKKNgNKKKKKKKKKKKKKKKKKKKKKKKKKKKggK",
"KggJKKKKKKKKKKKKKKKKKKKKKKKKKKKVgzKKKKKKKKKKKKKKKKKKKKKKKKKKKggK",
"KpgDKKKKKKKKKKKKKKKKKKKKKKi755*&$+**37KKKKKKKKKKKKKKKKKKKKKKKggK",
"KfgDKKKKKKKKKKKKKKKKKKKKu.             ;uKKKKKKKKKKKKKKKKKKKKggK",
"KagGKKKKKKKKKKKKKKKKKKS5  *344yyyyyy6*   =iKKKKKKKKKKKKKKKKKKggK",
"KggKKKKKKKKKKKKKKKS7*o   3ZKKKKKKKKKKK9-   =iKKKKKKKKKKKKKKKKggK",
"KgjKKKKKKKKKKKKKKi.    =iKKKKKKKKKKKKKKKb3  .iKKKKKKKKKKKKKKKggK",
"KgzKKKKKKKKKKKKKK= o8bKKKKKKKKKKKKKKKKKKKKb= #SKKKKKKKKKKKKKKggK",
"KgNKKKKKKKKKKKKK8 oZKKKKKKKKKKKKKKKKKKKKKKKK- .iKKKKKKKKKKKKDgaK",
"KgNKKKKKKKKKKKK0  iKKKKKKKkeeeeetcCKKKKKKKKKK= .uKKKKKKKKKKKAgfK",
"KgNKKKKKKKKKKKS. 4KKKKKKKq::::::::::,2vKKKKKKZ@  iKKKKKKKKKKNgLK",
"KgxKKKKKKKKKKK3 =KKKKKKF<::::::::::::::vKKKKKKZ= .SKKKKKKKKKxgLK",
"KghKKKKKKKKKKu .ZKKKKKv>::::::::::::::::tKKKKKKZo 5KKKKKKKKKzgLK",
"KggKKKKKKKKKSo 4KKKKKK<::::::::::::::::::rKKKKKK9 #KKKKKKKKKzgLK",
"KggKKKKKKKKK3 .ZKKKKKw::::::::::::::::::::qFKKKKZ  iKKKKKKKKzgLK",
"KgmKKKKKKKKS. 6KKKKKk::::::::::::::::::::::<FKKKK= ;KKKKKKKKmgLK",
"KgNKKKKKKKK0 oKKKKKC::::::::::::::::::::::::qKKKK8 .SKKKKKKKNgLK",
"KgmKKKKKKKK= 4KKKKKq::::::::::::::::::::::::>FKKKK. 5KKKKKKKNgLK",
"KghJKKKKKKK* yKKKKF::::::::::::::::::::::::::rKKKK4 .KKKKKKKBgsK",
"KsgBKKKKKKK* yKKKKc::::::::::::::::::::::::::<KKKKZ  uKKKKKKDgaK",
"KagmKKKKKKK  KKKKKe:::::::::::::::::::::::::::KKKKK  nKKKKKKJhgK",
"KagxKJDDDDK  KKKKKq:::::::::::::::::::::::::::KKKKK  KKKKKKKKzgK",
"Kaggggggggx  KKKKK1:::::::::::::::::::::::::::KKKKK  ggggggggggK",
"KggggghggggO iKKKK1::::::::::::::::::::::::::,KKKKK  ggggggggggK",
"KpgKKKKKKHV% yKKKK1::::::::::::::::::::::::::qKKKKK  KKKKKKKKmgK",
"KghKKKKKKKK* 9KKKKw::::::::::::::::::::::::::rKKKKK  KKKKKKKKNgK",
"KgNKKKKKKKK3 3KKKKv::::::::::::::::::::::::::CKKKKi oKKKKKKKJlgK",
"KgDKKKKKKKK0 *KKKKK::::::::::::::::::::::::::KKKKK- ;KKKKKKKBgfK",
"KgDKKKKKKKKn  KKKKK1::::::::::::::::::::::::1KKKKb  uKKKKKKKxgLK",
"KgBKKKKKKKKKo yKKKKe::::::::::::::::::::::::tKKKK- oKKKKKKKKxgLK",
"KgmKKKKKKKKK; -KKKKt:::::::::::::::::::::::qKKKKZ. 8KKKKKKKKNgsK",
"KglKKKKKKKKKu  ZKKKK,:::::::::::::::::::::qKKKKK4 =KKKKKKKKKDgaK",
"KggKKKKKKKKKKo 4KKKKF<:::::::::::::::::::<FKKKK9 .SKKKKKKKKKKggK",
"KsgGKKKKKKKKKu .iKKKKKe:::::::::::::::::,FKKKKb. 0KKKKKKKKKKKggK",
"KfgDKKKKKKKKKK7 oiKKKKKvq::::::::::::::<vKKKKK* =KKKKKKKKKKKKggK",
"KfgDKKKKKKKKKKK= @ZKKKKKKtq1>::::::::,tKKKKKK4 *KKKKKKKKKKKKGgaK",
"KfgDKKKKKKKKKKKS# @ZKKKKKKKKKKFcccccvKKKKKKKy .SKKKKKKKKKKKKBgaK",
"KfgDKKKKKKKKKKKKi. @ZKKKKKKKKKKKKKKKKKKKKKKZ@ uKKKKKKKKKKKKKNgLK",
"KfgDKKKKKKKKKKKKKio @iKKKKKKKKKKKKKKKKKKKKy. ;KKKKKKKKKKKKKKNgaK",
"KfgDKKKKKKKKKKKKKKS* .8KKKKKKKKKKKKKKKKKb=  3KKKKKKKKKKKKKKKGgsK",
"KfgAKKKKKKKKKKKKKKKS=  3KKKKKKKKKKKKKKi6. #uKKKKKKKKKKKKKKKKKhgK",
"KdgMKKKKKKKKKKKKKKKKK7. o6yZKKKKKby94=  .7KKKKKKKKKKKKKKKKKKKzgK",
"KLgzKKKKKKKKKKKKKKKKKKS=               *nKKKKKKKKKKKKKKKKKKKKzgK",
"KLgzKKKKKKKKKKKKKKKKKKKKu;*.     X*=58nKKKKKKKKKKKKKKKKKKKKKKlgK",
"KLgmKKKKKKKKKKKKKKKKKKKKKKKKKKKggKKKKKKKKKKKKKKKKKKKKKKKKKKKKggK",
"KdgNKKKKKKKKKKKKKKKKKKKKKKKKKKKggKKKKKKKKKKKKKKKKKKKKKKKKKKKKggK",
"KsgNKKKKKKKKKKKKKKKKKKKKKKKKKKDglKKKKKKKKKKKKKKKKKKKKKKKKKKKDgpK",
"KLgNKKKKKKKKKKKKKKKKKKKKKKKKKKDgzKKKKKKKKKKKKKKKKKKKKKKKKKKKDgfK",
"KLgNKKKKKKKKKKKKKKKKKKKKKKKKKKVgMKKKKKKKKKKKKKKKKKKKKKKKKKKKVgdK",
"KLgxKKKKKKKKKKKKKKKKKKKKKKKKKKVgzKKKKKKKKKKKKKKKKKKKKKKKKKKKVgfK",
"KLgzKKKKKKKKKKKKKKKKKKKKKKKKKKDgjKKKKKKKKKKKKKKKKKKKKKKKKKKKDgaK",
"KLgMKKKKKKKKKKKKKKKKKKKKKKKKKKGggKKKKKKKKKKKKKKKKKKKKKDDDDDDGggK",
"KagjzMNNNNNxzzzzzzzzzzzzzzzzggggggggggggggggggjzzzzzgggggggggggK",
"KpggggggggggggggggggggggggggggggggggggggggggggggggggggafffffggsK",
"KKKKKKKKKKKKKKKKKKKKKKKKKKKKKKKKKKKKKKKKKKKKKKKKKKKKKKKKKKKKKKKK"
};
