/* XPM */
static char *a65161b7760042ebafbab841e876fe8ajhBzlGosOBiS91lL[] = {
/* columns rows colors chars-per-pixel */
"64 64 66 1 ",
"  c None",
". c #2A2A2A",
"X c #333434",
"o c #343435",
"O c #373737",
"+ c #3C3D3D",
"@ c #424344",
"# c #444444",
"$ c #444545",
"% c #474848",
"& c #48494A",
"* c #494A4B",
"= c #4B4C4D",
"- c #4F5152",
"; c #515151",
": c #515253",
"> c #535556",
", c #57585A",
"< c #5B5C5D",
"1 c #5C5E5F",
"2 c #5F5F5F",
"3 c #5E5F61",
"4 c #616465",
"5 c #696B6C",
"6 c #696B6D",
"7 c #6C6C6C",
"8 c #737577",
"9 c #757779",
"0 c #797979",
"q c gray48",
"w c #7E8183",
"e c gray53",
"r c #909396",
"t c gray58",
"y c #959595",
"u c #9EA1A3",
"i c gray63",
"p c #A2A2A2",
"a c #A8AAAC",
"s c #AFAFAF",
"d c #B2B7BB",
"f c #B6BBBF",
"g c #BCBCBC",
"h c gray74",
"j c #BBC0C3",
"k c #C0C4C7",
"l c #C5C9CC",
"z c gray79",
"x c #CACACA",
"c c #CACDD0",
"v c #CED2D4",
"b c #D7D7D7",
"n c #D3D6D8",
"m c #D8DBDD",
"M c #DDDFE1",
"N c #E2E4E5",
"B c #E4E4E4",
"V c gray90",
"C c #E6E8E9",
"Z c #EBEDEE",
"A c #F1F1F1",
"S c #F0F1F2",
"D c gray95",
"F c #F5F6F6",
"G c gray98",
"H c white",
/* pixels */
"HHHHHHHHHHHHHHHHHHHHHHHHHHHHHSHHHHHHHHHHHHHHHHHHHVzzzzzzHHHHHHHH",
"H,============....................*>8wwwww>:=@...........*>>>*,H",
"H................................................$22222........H",
"H..zzzrrzzzzzzHHHHHHHHHHHHHHHHHHHHbzitttttzzzbHHHHHHHHHHaruzz..H",
"H..HHHddHHHHHHHHHHHHHHHHHHHHHHHHHHHHHHHHHHHHHHHHHHHHHHHHmdlHH..H",
"b.OHHFddHHHHHHHHHHHHHHHHHHHHHHHHHHHHHHHHHHHHHHHHHHHHHHHHmdlHH..H",
"h.2HHZdfHHHHHHHHHHHHHHHHHHHHHHHHHHHHHHHHHHHHHHHHHHHHHHHHldNHH..H",
"q.tHHZdlHHHHHHHHHHHHHHHHHHHHHHHHHHHHHHHHHHHHHHHHHHHHHHHHldZHH..H",
"2.zHHZdlHHHHHHHHHHHHHHHHHHHHHHHHHHHHHHHHHHHHHHHHHHHHHHHHcdNHH..H",
"2.hHHZdlHHHHHHHHHHHHHHHHHHHHHHHHHHHHHHHHHHHHHHHHHHHHHHHHNdcHH..H",
"e.qHHFdjHHHHHHHHHHHHHHHHHHHHGZCmmmMZGHHHHHHHHHHHHHHHHHHHZdnHH..H",
"z.2HHHddnjddddklllllllllllkddddddddddjllllvmmmmmmmlllljdddCHH..H",
"z.2HHHkdddddddddddddddddddddflcmmmcjdddddddddddddddddddddkHHH..H",
"z.2HHHGNndfHHHSZZZZZZZZZZZSHHHHHHHHHHSZZZZZmmmmmmmmZZvdmHHHHH..H",
"z.2HHHHHGddHHHHHHHHHHHHHHHHHHHHHHHHHHHHHHHHHHHHHHHHHHmdmHHHHH..H",
"z.2HHHHHMdkHHHHHHHHHHHHHHHHHHHHHHHHHHHHHHHHHHHHHHHHHHmdnHHHHH..H",
"s.eHHHHHmdCHHHHHHHHHHHHHHHHHHHHHHHHHHHHHHHHHHHHHHHHHHZdlHHHHH..H",
"s.7HHHHHmdmHHHHHHHHHHHHHHHHHHHHHHHHHHHHHHHHHHHHHHHHHHSdlHHHHz.+H",
"z.2HHHHHMdcHHHHHHHHHHHHHHHHHHHHHHHHHHHHHHHHHHHHHHHHHHGdjHHHHh.=H",
"V..HHHHHZdlHHHHHHHHHHHHHHHHHHHHHHHHHHHHHHHHHHHHHHHHHHNdjHHHHt.4H",
"HO.bHHHHZdlHHHHHHGHHHHHHGHHHHHHHHHHHHHHHHHHHHHHHHHHHHmdMHHHH7.5H",
"H3.iHHHHNddddddddddddddddjcmmmmvllllllllllllllllfddddddMHHHH2. H",
"Hw.tHHHHCddddddddddddddddddddddddddddddddddddddddddddddMHHHH2. H",
"Hw.tHHHHHHHldHHHHHHHHHHHHZMmmmmmZZZZZZZZZZZZZZZZSHHddHHHHHHH2. H",
"Hw.tHHHHHHNjdHHHHHHHHHHHHHHHHHHHHHHHHHHHHHHHHHHHHHHkdZHHHHHHq.5H",
"Hw.tHHHHHHldjHHHHHHHHHHHHHHHHHHHHHHHHHHHHHHHHHHHHHHcdNHHHHHHt.4H",
"H5.tHHHHHHndCHHHHHHHHHHHHHHHHHHHHHHHHHHHHHHHHHHHHHHmdmHHHHHHt.4H",
"H>.zHHHHHHZdfGHHHHHHHHHHHHHHHHHHHHHHHHHHHHHHHHHHHHHmdmHHHHHHi.<H",
"H:.zHHHHHHHfdMHHHHHHHHHHHHHHHHHHHHHHHHHHHHHHHHHHHHHvdMHHHHHHz.-H",
"H%.zHHHHHHHvdvHHHHHHHHHHHHHHHHHHHHHHHHHHHHHHHHHHHHNdfGHHHHHHV.OH",
"H%.zHHHHHHHvdcFZZZZHHHHHHHHHHHHHHHHHHHHHHHHHHGHHHHmdnHHHHHHHH..V",
"H..zHHHHHHHjdddddddddddddddddddddjvMZZZMjdddddddddddjllGHHHHH$.z",
"S..SHHHHHHHkdddflldddddddddddddddddddddddfllljddddddddfGHHHHH2.t",
"s.OHHHHHHHHHHFddHHHHHHHHHHHHHHHHHZmvlllcmZHHHHHHFddHHHHHHHHHHq.t",
"q.qHHHHHHHHHHZddHHHHHHHHHHHHHHHHHHHHHHHHHHHHHHHHHddHHHHHHHHHHt.t",
"2.hHHHHHHHHHHmdvHHHHHHHHHHHHHHHHHHHHHHHHHHHHHHHHNdlHHHHHHHHHHt.t",
"2.zHHHHHHHHHHmdmHHHHHHHHHHHHHHHHHHHHHHHHHHHHHHHHfdSHHHHHHHHHHt.t",
"2.zHHHHHHHHHHmdmHHHHHHHHHHHHHHHHHHHHHHHHHHHHHHHSddHHHHHHHHHHH7.i",
"7.iHHHHHHHHHHMdcHHHHHHHHHHHHHHHHHHHHHHHHHHHHHHHFddSHHHHHHHHHH2.z",
"t.qHHHHHHHHHHZdlHHHHHHHHHHHHHHHHHHHHHHHHHHHHHHHHkdMHHHHHHHHHH2.z",
"h.:HHHHHHHHHHZdlHHHHHHHHHHHHHHHHHHHHHHHHHHGHHHHHmdmHHHHHHHHHH..S",
"S..HHHHHHHHHHNddddjllllddddllllvmmmmmmmllldddddlldmHHHHHHHHHH..H",
"HX.bHHHHHHHHHCddddddddddddddddddddddddddddddddddddMHHHHHHHHHH..H",
"H=.zHHHHHHHHHHHHldCZZHHHHHHZZZZmmmmmmmmZZZGHHHddmmGHHHHHHHHHH..H",
"H=.zHHHHHHHHHHHMdjHHHHHHHHHHHHHHHHHHHHHHHHHHHHddHHHHHHHHHHHHH..H",
"H=.zHHHHHHHHHHHcdnHHHHHHHHHHHHHHHHHHHHHHHHHHHHddHHHHHHHHHHHHH..H",
"H=.zHHHHHHHHHHHldZHHHHHHHHHHHHHHHHHHHHHHHHHHHHddHHHHHHHHHHHHH..H",
"H=.zHHHHHHHHHHHcdNHHHHHHHHHHHHHHHHHHHHHHHHHHHHddHHHHHHHHHHHHH..H",
"H=.zHHHHHHHHHHHMdvHHHHHHHHHHHHHHHHHHHHHHHHHHHHddHHHHHHHHHHHHb.*H",
"H=.hHHHHHHHHHHHZdlHHHHHHHHHHHHHHHHHHHHHHHHHHHHddHHHHHHHHHHHHz.>H",
"H2.eHHHHHHHHHHHGddHHGHHHHHHHHHHHHHHHHHHHHHGHHHddHHHHHHHHHHHHz.>H",
"H .2HHHHHHHHHHHHdddddkmmmmmmmmmvllkdddddddddddddHHHHHHHHHHHHh.3H",
"H .2HHHHHHHHHHHHlddddddddddddddddddddddddddfdddlHHHHHHHHHHHHt.wH",
"H4.qHHHHHHHHHHHHHHHHGCmmmmmmmmmZZZSHHHHHHHHHHHHHHHHHHHHHHHHHt.wH",
"H2.tHHHHHHHHHHHHHHHHHHHHHHHHHHHHHHHHHHHHHHHHHHHHHHHHHHHHHHHHt.wH",
"H:.tHHHHHHHHHHHHHHHHHHHHHHHHHHHHHHHHHHHHHHHHHHHHHHHHHHHHHHHHt.9H",
"H4.tHHHHHHHHHHHHHHHHHHHHHHHHHHHHHHHHHHHHHHHHHHHHHHHHHHHHHHHHs.=H",
"H4.tHHHHHHHHHHHHHHHHHHHHHHHHHHHHHHHHHHHHHHHHHHHHHHHHHHHHHHHHS..H",
"H5.7HHHHHHHHHHHHHHHHHHHHHHHHHHHHHHHHHHHHHHHHHHHHHHHHHHHHHHHHH..H",
"H .2HHHHHHHHHHHHHHHHHHHHHHHHHHHHHHHHHHHHHHHHHHHHHHHHHHHHHHHHH..H",
"H4.eHHHHHSHHHHHHHHHHHHHHHHHHHHHHHHHHHHHHHHHHHHHHHHHHHHzzzzzzH..H",
"H+.$22$....O22ttzzzzzzittt22222222............$22222...........H",
"H$......>*............................................+=====..XH",
"HSzttttzHHHSzsq22222227ttszzzzzzzzHHHHHHHHHHHHVzzzzzzSHHHHHHHHHH"
};
