/* XPM */
static char *result[] = {
/* columns rows colors chars-per-pixel */
"64 64 23 1 ",
"  c #D0D6DA",
". c #D0D7DA",
"X c #D0D6DB",
"o c #D1D6DB",
"O c #D0D7DB",
"+ c #D1D7DB",
"@ c #D3D9DD",
"# c #D6DCDF",
"$ c #D9DEE1",
"% c #DCE1E4",
"& c #DFE3E6",
"* c #E2E6E8",
"= c #E5E8EA",
"- c #E8EBED",
"; c #EAEDEF",
": c #EDF0F1",
"> c #F0F2F3",
", c #F3F5F6",
"< c #F6F7F8",
"1 c #F9FAFA",
"2 c gray99",
"3 c white",
"4 c None",
/* pixels */
"3333333333333333333333333333333333333333333333333333333333333333",
"3.OOOOOOOOOOOO+++++++++++++++++++++++++++++XOOOO++++++++++++++.3",
"3+++++++++++++++++++++++++++++++++++&---&$++++++++$&---&%%#++++3",
"3++,,,,,,,,,,,33333333333333333*+&333333333<,,,,1333333333333++3",
"3+@3333333333333333333333333333-+%333333333333333333333333333++3",
"3+%3333333333333333333333333333-+&333333333333333333333333333++3",
"3+=3333333333333333333333333333=+-333333333333333333333333333++3",
"3+%3333333333333333333333333333&+-333333333333333333333333333++3",
"3+%3333333333333333333333333333-+-333333333333333333333333333++3",
"3++3333333333333333333333333333-+-333333333333333333333333333++3",
"3++2333333333333333333333333333:+%333333333333333333333333333++3",
"3 +,333333333333333333333333333,+%333333333333333333333333333++3",
"3O+,333333333333333333333333333,+%333333333333333333333333333++3",
"3.+<333333333333333333333333333>+%333333333333333333333333333++3",
"3++3333333333333333333333333333=+-333333333333333333333333333++3",
"3+#3333333333333333333333333333%+>333333333333333333333333333++3",
"3+%3333333333333333333333333333%+,333333333333333333333333333++3",
"3+-3333333333333333333333333333%+,33333333333333333333333333,+.3",
"3+-3333333333333333333333333333%+,33333333333333333333333333>+O3",
"3+-3333333333333333333333333333%+,33333333333333333333333333-+43",
"3+&3333333333333333333333333333@+233333333333333333333333333&+43",
"3+@3333333333333333333333333333++333333333333333333333333333%+43",
"3++333333333333333333333333333,+#333333333333333333333333333%+43",
"3++333333333333333333333333333;+&333333333333333333333333333%+43",
"3+*333333333333333333333333333=+-333333333333333333333333333*+43",
"3+-333333333333333333333333333%+>333333333333333333333333333-+43",
"3+*333333333333333333333333333%+,333333333333333333333333333-+43",
"3+@233333333333333333333333333%+,333333333333333333333333333;+X3",
"3X+;33333333333333333333333333;+*333333333333333333333333333,+.3",
"3.+*333333333333333333333333331++3333333333333333333333333332@+3",
"3.+&32,,,,333333333333333333333++332,,,,333333333333333333333%+3",
"3.++++++++&-,,:-%#++++++++++++++++++++++&-,,:-%#+++++++++++++++3",
"3+++++@+++++++++++++++++++++++++++++@++++++++++++++++++++++++++3",
"3 +3333331:-%%%-:,3333333333333*+-333331:-%%%-:,3333333333333*+3",
"3+@3333333333333333333333333333-+-333333333333333333333333333-+3",
"3+-3333333333333333333333333332$+,333333333333333333333333332$+3",
"3+,333333333333333333333333333;+%333333333333333333333333333;+O3",
"3+,333333333333333333333333333&+-333333333333333333333333333&+43",
"3+;333333333333333333333333333&+-333333333333333333333333333&+43",
"3+*333333333333333333333333333-+&333333333333333333333333333-+X3",
"3+$333333333333333333333333333,+#333333333333333333333333333,+.3",
"3++3333333333333333333333333333++3333333333333333333333333333++3",
"3X+<333333333333333333333333333++3333333333333333333333333333++3",
"3O+,333333333333333333333333333++3333333333333333333333333333++3",
"3O+,33333333333333333333333333<+#333333333333333333333333333<+.3",
"3O+,33333333333333333333333333;+*333333333333333333333333333;+.3",
"3O+,33333333333333333333333333-+-333333333333333333333333333-+43",
"3O+,33333333333333333333333333-+*333333333333333333333333333-+.3",
"3O+,33333333333333333333333333<+@333333333333333333333333333<+X3",
"3O+>333333333333333333333333333@+<333333333333333333333333333@+3",
"3o+=333333333333333333333333333%+,333333333333333333333333333%+3",
"34+%333333333333333333333333333%+,333333333333333333333333333%+3",
"34+%333333333333333333333333333$+,333333333333333333333333333$+3",
"34+*333333333333333333333333333++3333333333333333333333333333++3",
"3o+-333333333333333333333333333++3333333333333333333333333333++3",
"3X+-33333333333333333333333333,+$333333333333333333333333333,+ 3",
"34+-33333333333333333333333333,+%333333333333333333333333333,+O3",
"34+-33333333333333333333333333:+=333333333333333333333333333:+o3",
"34+&33333333333333333333333333:+%333333333333333333333333333:+O3",
"34+%33333333333333333333333333,+#333333333333333333333333333,+.3",
"34+=33333333333333333333333333<++333333333333333333333,,,,,,<++3",
"3.+#%=-----&%%%%%%%%%%%%%%%%++++++++++++++++++#%%%%%+++++++++++3",
"3 ++++++++++++++++++++++++++++++++++++++++++++++++++++.OOOOO++X3",
"3333333333333333333333333333333333333333333333333333333333333333"
};
