/* XPM */
static char *result[] = {
/* columns rows colors chars-per-pixel */
"64 64 35 1 ",
"  c gray16",
". c #2A2A2A",
"X c #373737",
"o c #444444",
"O c #515151",
"+ c #5F5F5F",
"@ c #6C6C6C",
"# c #797979",
"$ c gray53",
"% c gray58",
"& c gray63",
"* c #AFAFAF",
"= c #B2B7BB",
"- c #B6BBBF",
"; c #BCBCBC",
": c #BBC0C3",
"> c #C0C4C7",
", c #C5C9CC",
"< c gray79",
"1 c #CACDD0",
"2 c #CED2D4",
"3 c #D7D7D7",
"4 c #D3D6D8",
"5 c #D8DBDD",
"6 c #DDDFE1",
"7 c #E2E4E5",
"8 c #E4E4E4",
"9 c #E6E8E9",
"0 c #EBEDEE",
"q c #F1F1F1",
"w c #F0F1F2",
"e c #F5F6F6",
"r c gray98",
"t c white",
"y c None",
/* pixels */
"tttttttttttttttttttttttttttttttttttttttttttttttttttttttttttttttt",
"y.            .....................  yyyyy   .............   ..t",
"t................................................o+++++........t",
"t..<<<<<<<<<<<tttttttttttttttttttt3<&%%%%%<<<3tttttttttt<<<<<..t",
"t..tttttttttttttttttttttttttttttttttttttttttttttttttttttttttt..t",
"t.Xtttttttttttttttttttttttttttttttttttttttttttttttttttttttttt..t",
"t.+tttttttttttttttttttttttttttttttttttttttttttttttttttttttttt..t",
"t.%tttttttttttttttttttttttttttttttttttttttttttttttttttttttttt..t",
"t.<tttttttttttttttttttttttttttttttttttttttttttttttttttttttttt..t",
"t.;tttttttttttttttttttttttttttttttttttttttttttttttttttttttttt..t",
"t.#ttttttttttttttttrttttttttttttttttttttttttttttttttttttttttt..t",
"t.+tttttttt2:2555,========================:255,,,===2tttttttt..t",
"t.+tttttttt==========================================tttttttt..t",
"t.+tttttttt==1,,47ettttttttttttttttttt04=:5,,,600tt-=rttttttt..t",
"t.+tttttttt==tttttttttttttttttttttttr>==-wttttttttt>=wttttttt..t",
"t.+tttttttt==ttttttttttttttttttttttt,=-5rtttttttttt==tttttttt..t",
"t.$tttttttt==ttttttttttttttttttttttr==9tttttttttttt==tttttttt..t",
"t.@tttttttt==tttttttttttttttttttttt5=2ttttttttttttt==ttttttt<. t",
"t.+tttttttt==ttttttttttttttttttttt0=-ettttttttttttt==ttttttt;. t",
"t..tttttttt==tttttttttttttttttttt2==0tttttttttttttt-=ttttttt%.yt",
"t..3ttttttt==ttttttttttttttttttr1==9ttttttttttttttt,=ttttttt@.yt",
"t .&ttttttt==tttttttttttttttttr>==7ttttttttttttttte==ttttttt+.yt",
"ty.%ttttttt==ttttttttttttttttr>=-wttttttttttttttt7-==ttttttt+.yt",
"ty.%ttttttt==tttttttttttttttr>=-wttttttttttttttt4=-==ttttttt+.yt",
"ty.%ttttttt-=rtttttttttttttt1=-wttttttttttttttt4=:w>=0tttttt#.yt",
"ty.%ttttttt,=0ttttttttttttt7==wttttttttttttttt7==0t1=7tttttt%.yt",
"t..%ttttttt,=7tttttttttttt7-=0ttttttttttttttt7==4tt5=5tttttt%.yt",
"t .<ttttttt5=5ttttttttttr,==9tttttttttttttttw-=4ttt5=5tttttt&..t",
"t .<ttttttt5=5tttttttttr>==9tttttttttttttttr-=,tttt5=5tttttt<. t",
"t .<ttttttt4=5ttttttttt1=2ttttttttttttttttt,=>rtttt>=9tttttt8..t",
"t .<ttttttt,=0tttttttt4=,ttttttttttttttttt6=:wtttt9==rttttttt..t",
"t..<ttttttt,=0tttttttw-=9tttttttttttttttr6=-ettttt2=,tttttttto.t",
"t..qttttttt,=0tttttte:=>tttttttttttttttw>=-wtttttt,=5tttttttt+.t",
"t.Xtttttttt,=0tttttw-=>rtttttttttttttt0-=-ettttttt,=5tttttttt#.t",
"t.#tttttttt,=0tttt9-=5rtttttttttttttt9==>rtttttttt4=4tttttttt%.t",
"t.;tttttttt1=9ttt6=-7tttttttttttttttw-=2rttttttttt0=,tttttttt%.t",
"t.<tttttttt5=5tt2=-wtttttttttttttttt>=2ttttttttttte=-tttttttt%.t",
"t.<tttttttt5=5t2==7tttttttttttttttt2=2ttttttttttttt==tttttttt@.t",
"t.&tttttttt5=41==7tttttttttttttttt2=:tttttttttttttt==tttttttt+.t",
"t.#tttttttt,====7tttttttttttttttt2==9tttttttttttttt==tttttttt+.t",
"t.Otttttttt>==-wtttttttttttttttt5==4ttttttttttttttr=-tttttttt..t",
"t..tttttttt==-wtttttttttttttttr>=-9ttttttttttttttt0=,tttttttt..t",
"t..3ttttttt==wtttttttttttttttw-=,rtttttttttttttttt0=,tttttttt..t",
"t .<ttttttt==tttttttttttttttw-=2tttttttttttttttttt0=,tttttttt..t",
"t .<ttttttt==ttttttttttttttr-=>rtttttttttttttttttt6=5tttttttt..t",
"t .<ttttttt==tttttttttttttr>=>rttttttttttttttttttt7=,tttttttt..t",
"t .<ttttttt==ttttttttttttt>=-wtttttttttttttttttttt0=,tttttttt..t",
"t .<ttttttt==tttttttttttt2=:wttttttttttttttttttttt0=:tttttttt..t",
"t .<ttttttt==ttttttttttt7=>etttttttttttttttttttttte==ttttttt3..t",
"t .;ttttttt==tttttttttt7=-wtttttttttttttttttttttttt==ttttttt<. t",
"t .$ttttttt==ttttttttt6==5ttttttttttttttttttttttttt==ttttttt<. t",
"ty.+ttttttt====,,,554:==>007,-======>,,,,,,:=========ttttttt;. t",
"ty.+ttttttt:========================================-ttttttt%.yt",
"ty.#ttttttttttt006,,,505,,,,47ettttr0000000etttttttttttttttt%.yt",
"t .%tttttttttttttttttttttttttttttttttttttttttttttttttttttttt%.yt",
"t .%tttttttttttttttttttttttttttttttttttttttttttttttttttttttt%.yt",
"ty.%tttttttttttttttttttttttttttttttttttttttttttttttttttttttt*. t",
"ty.%ttttttttttttttttttttttttttttttttttttttttttttttttttttttttq..t",
"ty.@ttttttttttttttttttttttttttttttttttttttttttttttttttttttttt..t",
"ty.+ttttttttttttttttttttttttttttttttttttttttttttttttttttttttt..t",
"ty.$tttttqtttttttttttttttttttttttttttttttttttttttttttt<<<<<<t..t",
"t .o++o....X++%%<<<<<<&%%%++++++++............o+++++...........t",
"t....... .............................................      ...y",
"tttttttttttttttttttttttttttttttttttttttttttttttttttttytttttttttt"
};
