/* XPM */
static char *_a0f47164aba4380ef72a11da9ebbbdbIJb8ZLYwk7w9qJ3C[] = {
/* columns rows colors chars-per-pixel */
"64 64 99 2 ",
"   c None",
".  c #2A2A2A",
"X  c gray19",
"o  c gray20",
"O  c #343434",
"+  c #343535",
"@  c gray21",
"#  c #363637",
"$  c #373737",
"%  c #3A3B3B",
"&  c #3C3C3D",
"*  c #424344",
"=  c #444444",
"-  c #444545",
";  c #464748",
":  c #48494A",
">  c #494B4B",
",  c #4B4C4D",
"<  c #4E5152",
"1  c #515151",
"2  c #515253",
"3  c gray32",
"4  c #535556",
"5  c gray33",
"6  c #545657",
"7  c #575A5A",
"8  c #5B5D5E",
"9  c #5C5E5F",
"0  c #5F5F5F",
"q  c #5E6061",
"w  c #616465",
"e  c #696B6D",
"r  c #6C6C6C",
"t  c #737577",
"y  c #757779",
"u  c #767778",
"i  c #797979",
"p  c gray48",
"a  c #7E7F80",
"s  c #7E8183",
"d  c #37D98C",
"f  c #43DB93",
"g  c #50DD9A",
"h  c #5CE0A1",
"j  c #69E2A8",
"k  c #75E4AF",
"l  c gray53",
"z  c #909396",
"x  c #909497",
"c  c gray58",
"v  c #959595",
"b  c #989CA0",
"n  c #9EA1A3",
"m  c gray63",
"M  c #A2A2A2",
"N  c #A8AAAC",
"B  c #A8ABAD",
"V  c #AFAFAF",
"C  c #AAAEB2",
"Z  c #B2B7BB",
"A  c #B6BBBF",
"S  c #BCBCBC",
"D  c gray74",
"F  c #82E7B7",
"G  c #8EE9BE",
"H  c #BBC0C3",
"J  c #9BECC5",
"K  c #A7EECC",
"L  c #B4F0D3",
"P  c #C0C4C7",
"I  c #C4C8CA",
"U  c #C5C9CC",
"Y  c gray79",
"T  c #CACACA",
"R  c #CACDD0",
"E  c #CFD0D0",
"W  c #CED2D4",
"Q  c LightGray",
"!  c #D2D4D6",
"~  c #D7D7D7",
"^  c #D3D6D8",
"/  c #D8DBDD",
"(  c #C0F3DB",
")  c #DDDFE1",
"_  c #CDF5E2",
"`  c #D9F7E9",
"'  c #E2E4E5",
"]  c #E4E4E4",
"[  c gray90",
"{  c #E6E8E9",
"}  c #EBEDEE",
"|  c #E6FAF0",
" . c #F1F1F1",
".. c #F0F1F2",
"X. c gray95",
"o. c #F5F6F6",
"O. c #F2FCF7",
"+. c gray98",
"@. c white",
/* pixels */
"@.@.@.@.@.@.@.@.@.@.@.@.@.@.@.@.@.@.@.@.@.@.@.@.@.@.@.@.@...@.@.@.@.@.@.@.@.@.@.@.@.@.@.@.@.@.@.@.[ Y Y Y Y Y Y @.@.@.@.@.@.@.@.",
"@.7 , , , , , , , , , , , , . . . . . . . . . . . . . . . . . . . . > 4 t s s s s s 4 2 , * . . . . . . . . . . . > 4 4 4 > 7 @.",
"@.. . . . . . . . . . . . . . . . . . . . . . . . . . . . . . . . . . . . . . . . . . . . . . . . = 0 0 0 0 0 . . . . . . . . @.",
"@.. . Y Y Y z z Y Y Y Y Y Y @.@.@.@.@.@.@.@.@.@.@.@.@.@.@.@.@.@.@.@.~ Y M c c c c c Y Y Y ~ @.@.@.@.@.@.@.@.@.@.B z n Y Y . . @.",
"@.. . @.@.@.Z Z @.@.@.@.@.@.@.@.@.@.@.@.@.@.@.@.@.@.@.@.@.@.@.@.@.@.@.@.@.@.@.@.@.@.@.@.@.@.@.@.@.@.@.@.@.@.@.@./ Z U @.@.. . @.",
"~ . $ @.@.o.Z Z @.@.@.@.@.@.@.@.@.@.@.@.@.@.@.@.@.@.@.@.@.@.@.@.@.@.@.@.@.@.@.@.@.@.@.@.@.@.@.@.@.@.@.@.@.@.@.@./ Z U @.@.. . @.",
"D . 0 @.@.} Z A @.@.@.@.@.@.@.@.@.@.@.@.@.@.@.@.@.@.@.@.@.@.@.@.@.@.@.@.@.@.@.@.@.@.@.@.@.@.@.@.@.@.@.@.@.@.@.@.U Z ' @.@.. . @.",
"p . c @.@.} Z U @.@.@.@.@.@.@.@.@.@.@.@.@.@.@.@.@.@.@.@.@.@.@.@.@.@.@.@.@.@.@.@.@.@.@.@.@.@.@.@.@.@.@.@.@.@.@.@.U Z } @.@.. . @.",
"0 . Y @.@.} Z U @.@.@.@.@.@.@.@.@.@.@.@.@.@.@.@.@.@.@.@.@.@.@.@.@.@.@.@.@.@.@.@.@.@.@.@.@.@.@.@.@.@.@.@.@.@.@.@.R Z ' @.@.. . @.",
"0 . D @.@.} Z U @.@.@.@.@.@.@.@.@.@.@.@.@.@.@.@.@.@.@.@.@.@.@.@.@.@.@.@.@.@.@.@.@.@.@.@.@.@.@.@.@.@.@.@.@.@.@.@.' Z R @.@.. . @.",
"l . p @.@.o.Z H @.@.@.@.@.@.@.@.@.@.@.@.@.@.@.@.@.@.@.@.+.} { / / / ) } +.@.@.@.@.@.@.@.@.@.@.@.@.@.@.@.@.@.@.@.} Z ^ @.@.. . @.",
"Y . 0 @.@.@.Z Z ^ H Z Z Z Z P U U U U U U U U U U U P Z Z Z Z Z Z Z Z Z Z H U U U U W / / / / / / / U U U U H Z Z Z { @.@.. . @.",
"Y . 0 @.@.@.P Z Z Z Z Z Z Z Z Z Z Z Z Z Z Z Z Z Z Z Z Z A U R / / / R H Z Z Z Z Z Z Z Z Z Z Z Z Z Z Z Z Z Z Z Z Z P @.@.@.. . @.",
"Y . 0 @.@.@.+.' ^ Z A @.@.@...} } } } } } } } } } } ..@.@.@.@.@.@.@.@.@.@...} } } } } / / / / / / / / } } W Z / @.@.@.@.@.. . @.",
"Y . 0 @.@.@.@.@.+.Z Z @.@.@.@.@.@.@.@.@.@.@.@.@.@.@.@.@.@.@.@.@.@.@.@.@.@.@.@.@.@.@.@.@.@.@.@.@.@.@.@.@.@./ Z / @.@.@.@.@.. . @.",
"Y . 0 @.@.@.@.@.) Z P @.@.@.@.@.@.@.@.@.@.@.@.@.@.@.@.@.@.@.@.@.@.@.@.@.@.@.@.@.@.@.@.@.@.@.@.@.@.@.@.@.@./ Z ^ @.@.@.@.@.. . @.",
"V . l @.@.@.@.@./ Z { @.@.@.@.@.@.@.@.@.@.@.@.@.@.@.@.@.@.@.@.@.@.@.@.@.@.@.@.@.@.@.@.@.@.@.@.@.@.@.@.@.@.} Z U @.@.@.@.@.. . @.",
"V . r @.@.@.@.@./ Z / @.@.@.@.@.@.@.@.@.@.@.@.@.@.@.@.@.@.@.@.@.@.@.@.@.@.@.@.@.@.@.@.@.@.@.@.@.@.@.@.@.@...Z U @.@.@.@.Y . & @.",
"Y . 0 @.@.@.@.@.) Z R @.@.@.@.@.@.@.@.@.@.@.@.@.@.@.@.@.@.@.@.@.@.@.@.@.@.@.@.@.@.@.@.@.@.@.@.@.@.@.@.@.@.+.Z H @.@.@.@.D . , @.",
"[ . . @.@.@.@.@.} Z U @.@.@.@.@.@.@.@.@.@.@.@.@.@.@.@.@.@.@.@.@.@.@.@.@.@.@.@.@.@.@.@.@.@.@.@.@.@.@.@.@.@.' Z H @.@.@.@.c . w @.",
"@.$ . ~ @.@.@.@.} Z U @.@.@.@.@.@.+.@.@.@.@.@.@.+.@.@.@.@.@.@.@.@.@.@.@.@.@.@.@.@.@.@.@.@.@.@.@.@.@.@.@.@./ Z ) @.@.@.@.r . e @.",
"@.q . M @.@.@.@.' Z Z Z Z Z Z Z Z Z Z Z Z Z Z Z Z H R / / / / W U U U U U U U U U U U U U U U U A Z Z Z Z Z Z ) @.@.@.@.0 .   @.",
"@.s . c @.@.@.@.{ Z Z Z Z Z Z Z Z Z Z Z Z Z Z Z Z Z Z Z Z Z Z Z Z Z Z Z Z Z Z Z Z Z Z Z Z Z Z Z Z Z Z Z Z Z Z ) @.@.@.@.0 .   @.",
"@.s . c @.@.@.@.@.@.@.U Z @.@.@.@.@.@.@.@.@.@.@.@.} ) / / / / / } } } } } } } } } } } } } } } } ..@.@.Z Z @.@.@.@.@.@.@.0 .   @.",
"@.s . c @.@.@.@.@.@.' H Z @.@.@.@.@.@.@.@.@.@.@.@.@.@.@.@.@.@.@.@.@.@.@.@.@.@.@.@.@.@.@.@.@.@.@.@.@.@.P Z } @.@.@.@.@.@.p . e @.",
"@.s . c @.@.@.@.@.@.U Z H @.@.@.@.@.@.@.@.@.@.@.@.@.@.@.@.@.@.@.@.@.@.@.@.@.@.@.@.@.@.@.@.@.@.@.@.@.@.R Z ' @.@.@.@.@.@.c . w @.",
"@.e . c @.@.@.@.@.@.^ Z { @.@.@.@.@.@.@.@.@.@.@.@.@.@.@.@.@.@.@.@.@.@.@.@.@.@.@.@.@.@.@.@.@.@.@.@.@.@./ Z / @.@.@.@.@.@.c . w @.",
"@.4 . Y @.@.@.@.@.@.} Z A +.@.@.@.@.@.@.@.@.@.@.@.@.@.~ M c c 0 0 0 2 0 0 l M @.@.@.@.@.@.@.@.@.@.@.@./ Z / @.@.@.@.@.@.M . 8 @.",
"@.2 . Y @.@.@.@.@.@.@.A Z ) @.@.@.@.@.@.@.@.@.@.@.Y $ . . . . . . . . . . . . . p Y @.@.@.@.@.@.@.@.@.W Z ) @.@.@.@.@.@.Y . < @.",
"@.; . Y @.@.@.@.@.@.@.W Z W @.@.@.@.@.@.@.@.@...c . . 0 l c c Y Y Y Y Y Y M 0 . . . r ~ @.@.@.@.@.@.' Z A +.@.@.@.@.@.@.[ . $ @.",
"@.; . Y @.@.@.@.@.@.@.W Z R o.} } } } ..M 0 = . . . l ..@.@.@.@.@.@.@.@.@.@.@.D p . . . r Q @.@.@.@./ Z ^ @.@.@.@.@.@.@.@.. . [ ",
"@.. . Y @.@.@.@.@.@.@.H Z Z Z Z Z Z b o . . . . r ~ @.@.@.@.@.@.@.@.@.@.@.@.@.@.@.[ l . . o b Z Z Z Z Z H U U +.@.@.@.@.@.= . Y ",
"... . ..@.@.@.@.@.@.@.P Z Z Z A U U 5 . = V [ @.@.@.@.@.@.@.@.@.@.@.@.@.@.@.@.@.@.@.@.[ r . = C Z Z Z Z Z Z A +.@.@.@.@.@.0 . c ",
"V . $ @.@.@.@.@.@.@.@.@.@.o.Z Z @.V . = ..@.@.@.@.@.@.@.@.@.@.@.@.@.@.@.@.@.@.@.@.@.@.@.@.p . $ E Z Z @.@.@.@.@.@.@.@.@.@.p . c ",
"p . p @.@.@.@.@.@.@.@.@.@.} Z Z D . . ~ @.@.@.@.@.@.@.( J J J J J L _ | @.@.@.@.@.@.@.@.@.@.r . $ x Z @.@.@.@.@.@.@.@.@.@.c . c ",
"0 . D @.@.@.@.@.@.@.@.@.@./ Z I $ . c @.@.@.@.@.@.@.F d d d d d d d d d d g k ` @.@.@.@.@.@...2 . . B @.@.@.@.@.@.@.@.@.@.c . c ",
"0 . Y @.@.@.@.@.@.@.@.@.@./ Z u . r @.@.@.@.@.@.O.h d d d d d d d d d d d d d d ` @.@.@.@.@.@...r . $ ..@.@.@.@.@.@.@.@.@.c . c ",
"0 . Y @.@.@.@.@.@.@.@.@.@./ x . $ ..@.@.@.@.@.` f d d d d d d d d d d d d d d d d L @.@.@.@.@.@...= . c @.@.@.@.@.@.@.@.@.r . M ",
"r . M @.@.@.@.@.@.@.@.@.@.! % . c @.@.@.@.@.@.h d d d d d d d d d d d d d d d d d d K @.@.@.@.@.@.D . 2 @.@.@.@.@.@.@.@.@.0 . Y ",
"c . p @.@.@.@.@.@.@.@.@.@.a . $ ..@.@.@.@.@.G d d d d d d d d d d d d d d d d d d d d F O.@.@.@.@.... . ~ @.@.@.@.@.@.@.@.0 . Y ",
"D . 2 @.@.@.@.@.@.@.@.@...$ . M @.@.@.@.@.( d d d d d d d d d d d d d d d d d d d d d d h O.@.@.@.@.r . p @.@.@.@.@.@.@.@.. . ..",
"... . @.@.@.@.@.@.@.@.@.D . = @.@.@.@.@.| d d d d d d d d d d d d d d d d d d d d d d d d F @.@.@.@.V . $ ..@.@.@.@.@.@.@.. . @.",
"@.$ . ~ @.@.@.@.@.@.@.@.r . c @.@.@.@.@.F d d d d d d d d d d d d d d d d d d d d d d d d f O.@.@.@.@.$ . c @.@.@.@.@.@.@.. . @.",
"@., . Y @.@.@.@.@.@.@.@.0 . Y @.@.@.@.O.d d d d d d d d d d d d d d d d d d d d d d d d d d K @.@.@.@.c . $ @.@.@.@.@.@.@.. . @.",
"@., . Y @.@.@.@.@.@.@.@.0 . Y @.@.@.@._ d d d d d d d d d d d d d d d d d d d d d d d d d d h @.@.@.@.... . Y @.@.@.@.@.@.. . @.",
"@., . Y @.@.@.@.@.@.@.@.. . @.@.@.@.@.J d d d d d d d d d d d d d d d d d d d d d d d d d d d @.@.@.@.@.. . [ @.@.@.@.@.@.. . @.",
"@., . Y @.@.@.@.@.@.@.@.. . @.@.@.@.@.F d d d d d d d d d d d d d d d d d d d d d d d d d d d @.@.@.@.@.. . @.@.@.@.@.@.@.. . @.",
"@., . Y @.@.@.@.@.@.@.@.. . @.@.@.@.@.j d d d d d d d d d d d d d d d d d d d d d d d d d d d @.@.@.@.@.. . @.@.@.@.@.@.@.. . @.",
"@., . Y @.@.@.@.@.@.@.@.2 . ~ @.@.@.@.j d d d d d d d d d d d d d d d d d d d d d d d d d d g @.@.@.@.@.. . @.@.@.@.@.@.~ . > @.",
"@., . D @.@.@.@.@.@.@.@.0 . Y @.@.@.@.j d d d d d d d d d d d d d d d d d d d d d d d d d d F @.@.@.@.@.. . @.@.@.@.@.@.Y . 4 @.",
"@.0 . l @.@.@.@.@.@.@.@.0 . D @.@.@.@.G d d d d d d d d d d d d d d d d d d d d d d d d d d K @.@.@.@.@.. . @.@.@.@.@.@.Y . 4 @.",
"@.  . 0 @.@.@.@.@.@.@.@.l . l @.@.@.@.` d d d d d d d d d d d d d d d d d d d d d d d d d d | @.@.@.@.~ . = @.@.@.@.@.@.D . q @.",
"@.  . 0 @.@.@.@.@.@.@.@.D . 0 @.@.@.@.@.d d d d d d d d d d d d d d d d d d d d d d d d d d @.@.@.@.@.p . p @.@.@.@.@.@.c . s @.",
"@.w . p @.@.@.@.@.@.@.@.[ . . @.@.@.@.@.j d d d d d d d d d d d d d d d d d d d d d d d d j @.@.@.@.[ . . Y @.@.@.@.@.@.c . s @.",
"@.0 . c @.@.@.@.@.@.@.@.@.= . Y @.@.@.@.J d d d d d d d d d d d d d d d d d d d d d d d d L @.@.@.@.p . = @.@.@.@.@.@.@.c . s @.",
"@.2 . c @.@.@.@.@.@.@.@.@.p . p @.@.@.@.L d d d d d d d d d d d d d d d d d d d d d d d F @.@.@.@...$ . V @.@.@.@.@.@.@.c . u @.",
"@.w . c @.@.@.@.@.@.@.@.@.Y . . ..@.@.@.@.g d d d d d d d d d d d d d d d d d d d d d F @.@.@.@.@.c . r @.@.@.@.@.@.@.@.V . , @.",
"@.w . c @.@.@.@.@.@.@.@.@.@.= . c @.@.@.@.O.h d d d d d d d d d d d d d d d d d d d h O.@.@.@.@.D . $ ..@.@.@.@.@.@.@.@.... . @.",
"@.e . r @.@.@.@.@.@.@.@.@.@.Y . $ ~ @.@.@.@.@.J d d d d d d d d d d d d d d d d d g O.@.@.@.@.[ $ . D @.@.@.@.@.@.@.@.@.@.. . @.",
"@.  . 0 @.@.@.@.@.@.@.@.@.@.@.M . = ~ @.@.@.@.@.` F d d d d d d d d d d d d d d h ` @.@.@.@.@.0 . r @.@.@.@.@.@.@.@.@.@.@.. . @.",
"@.w . l @.@.@.@.@...@.@.@.@.@.@.r . 2 ..@.@.@.@.@.@.L F j f d d d d d d d d g L @.@.@.@.@.@.c . 0 @.@.@.@.@.Y Y Y Y Y Y @.. . @.",
"@.& . = 0 0 = . . . . $ 0 0 c c Y Y Y Y Y Y M c c c 0 0 0 0 0 0 0 0 . . . . . . . . . . . . = 0 0 0 0 0 . . . . . . . . . . . @.",
"@.= . . . . . . 4 > . . . . . . . . . . . . . . . . . . . . . . . . . . . . . . . . . . . . . . . . . . . . & , , , , , . . $ @.",
"@...Y c c c c Y @.@.@...Y V p 0 0 0 5 o 0 0 r c c V Y Y Y Y Y Y Y Y @.@.@.@.@.@.@.@.@.@.@.@.[ Y Y Y Y Y Y ..@.@.@.@.@.@.@.@.@.@."
};
