/* XPM */
static char *door_32x32[] = {
/* columns rows colors chars-per-pixel */
"32 32 141 2 ",
"   c None",
".  c #454545",
"X  c #484848",
"o  c #4B4B4B",
"O  c #4F4F4F",
"+  c #525252",
"@  c #555555",
"#  c #595959",
"$  c #5F5F5F",
"%  c #626262",
"&  c #636363",
"*  c #666666",
"=  c #696969",
"-  c #6C6C6C",
";  c #6D6D6D",
":  c gray45",
">  c #777777",
",  c #7A7A7A",
"<  c #7D7D7D",
"1  c #818181",
"2  c #848484",
"3  c gray53",
"4  c #8B8B8B",
"5  c #8E8E8E",
"6  c #919191",
"7  c #959595",
"8  c #989898",
"9  c #999999",
"0  c #9B9B9B",
"q  c #9C9C9C",
"w  c #9C9D9D",
"e  c #9D9D9D",
"r  c #9E9F9F",
"t  c #9FA0A0",
"y  c #A1A2A2",
"u  c #A2A2A2",
"i  c #A3A3A4",
"p  c #A5A5A6",
"a  c #A5A6A6",
"s  c #A6A6A6",
"d  c #A7A7A8",
"f  c #A7A8A8",
"g  c #A8A9A9",
"h  c #A9A9AA",
"j  c #A9AAAB",
"k  c #ABACAC",
"l  c #ACACAC",
"z  c #ACADAD",
"x  c #AFAFAF",
"c  c #AFB0B0",
"v  c #B0B2B2",
"b  c #B2B3B4",
"n  c #B6B6B6",
"m  c #B2B7BB",
"M  c #B3B8BC",
"N  c #B4B9BD",
"B  c #B5BABE",
"V  c #B6BABE",
"C  c #B6BBBF",
"Z  c #B7BCBF",
"A  c #BCBCBC",
"S  c #BCBDBE",
"D  c #BCBEBF",
"F  c #B8BDC0",
"G  c #B9BEC1",
"H  c #BABFC2",
"J  c #BFC0C1",
"K  c #BCC0C4",
"L  c #BDC1C5",
"P  c #BEC2C6",
"I  c #BFC3C7",
"U  c #C0C0C0",
"Y  c #C6C6C6",
"T  c #C0C5C8",
"R  c #C2C6C9",
"E  c #C3C7CA",
"W  c #C4C8CB",
"Q  c #C5C9CC",
"!  c #C6CACD",
"~  c #CACACA",
"^  c #CACBCC",
"/  c #C8CBCE",
"(  c #C9CCCF",
")  c #CCCCCC",
"_  c #CDCDCD",
"`  c #CDCECE",
"'  c #CACDD0",
"]  c #CACED0",
"[  c #CBCFD1",
"{  c #CCD0D2",
"}  c #CDD1D3",
"|  c #CFD2D5",
" . c #D0D3D6",
".. c #D1D4D6",
"X. c #D1D4D7",
"o. c #D5D5D6",
"O. c #D2D5D8",
"+. c #D4D7D9",
"@. c #D5D8DA",
"#. c #D6D9DB",
"$. c #D7DADC",
"%. c #D8DBDD",
"&. c #D9DBDD",
"*. c #DADCDE",
"=. c #DBDDDF",
"-. c #DCDEE0",
";. c #DCDFE0",
":. c #DDE0E1",
">. c #DFE1E2",
",. c #E1E1E1",
"<. c #E0E2E3",
"1. c #E2E4E5",
"2. c #E2E4E6",
"3. c #E3E5E7",
"4. c #E4E4E4",
"5. c #E4E5E7",
"6. c #E4E6E7",
"7. c #E4E6E8",
"8. c #E6E7E9",
"9. c #E6E8E9",
"0. c #E7E8EA",
"q. c #E8E9EA",
"w. c #E8EAEB",
"e. c #E9EBEC",
"r. c #EAECED",
"t. c #ECEDEE",
"y. c #EDEEEF",
"u. c #EEEFF0",
"i. c #EFF0F1",
"p. c #F0F2F2",
"a. c #F2F3F3",
"s. c #F3F4F4",
"d. c #F4F5F5",
"f. c #F5F6F7",
"g. c #F7F7F8",
"h. c #F8F8F9",
"j. c #FAFBFB",
"k. c #FCFCFC",
"l. c #FDFDFD",
"z. c #FEFEFE",
"x. c white",
/* pixels */
"o.a a a a a a 7 7 7 7 7 7 7 7 7 7 d A L L x a 7 4 , , , 8 x d o.",
"7 + , , , , , 7 7 7 7 7 7 7 7 7 7 , & $ $ , , 7 8 x x a , , + 7 ",
"4 8 x.x.x.x.x.x.x.x.x.x.x.x.x.x.x.x.x.x.x.x.x.x.x.x.x.x.x.x.7 7 ",
"& A x.x.x.x.x.x.x.x.x.x.x.x.x.x.x.x.x.x.x.x.x.x.x.x.x.x.x.x.7 7 ",
". ,.x.x.%.Q Q Q Q Q Q Q Q Q Q Q Q Q Q R L L R #.%.( Q %.x.x.7 7 ",
"= n x.x.+.( t.t.t.t.t.t.t.t.t.t.t.t.t.t.d.d.t.%.%.,.>.Q x.x.7 7 ",
", x x.x.8.[ x.x.x.x.x.x.x.x.x.x.x.x.x.x.x.x.x.x.x.x.t.Q x.x.7 7 ",
", x x.x.,.| x.x.x.x.x.x.x.x.x.x.x.x.x.x.x.x.d.H o.o.L R x.x.7 7 ",
"= A x.x.%.#.x.x.x.x.x.x.x.x.x.x.x.x.x.x.x.x.t.L %.>.0.H x.x.1 8 ",
"1 a x.x.%.%.x.x.x.x.x.x.x.x.x.x.x.x.x.x.x.x.t.Q x.x.x.m x.x.= x ",
"a : x.x.+.%.x.x.x.x.x.x.x.x.x.x.x.x.x.x.x.x.t.Q x.x.x.H x.x.o ( ",
"L $ x.x.%.%.x.x.x.x.x.x.x.x.x.x.x.x.x.x.x.x.i.m m m m R x.x..   ",
"L $ x.x.+.%.;.L R t.x.x.x.x.x.x.x.x.x.x.x.x.x.x.x.x.,.[ x.x.$ n ",
"c = x.x.B B [ t.;.B t.x.x.x.x.x.x.x.x.x.x.x.x.x.x.x.8.Q x.x.& c ",
"a , x.g.m u.d.%.%.%.L x.x.x.x.x.x.x.x.x.x.x.x.x.x.x.d.H x.x.1 a ",
"8 , x.x.m x.R | | [ o.;.x.x.x.x.x.x.x.x.x.x.x.x.x.x.x.B x.x.8 1 ",
", 7 x.x.F d.L [ Q Q t.Q x.x.x.x.x.x.x.x.x.x.x.x.x.x.x.B x.x.n $ ",
"o ( x.x.[ | i.,.,.t.H t.x.x.x.x.x.x.x.x.x.x.x.x.x.x.t.R x.x.( $ ",
". ,.x.x.Q B u.x.,.L d.x.x.x.x.x.x.x.x.x.x.x.x.x.x.x.,.[ x.x.A & ",
"+ Y x.x.Q | B m L x.x.x.x.x.x.x.x.x.x.x.x.x.x.h.d.d.,.Q x.x.x , ",
"1 8 x.x.[ 0.x.d.x.x.x.x.x.x.x.x.x.x.x.x.x.x.d.B L L H B x.x.7 7 ",
"t , x.x.Q t.x.x.x.x.x.x.x.x.x.x.x.x.x.x.x.x.t.Q x.x.t.m d.x.7 7 ",
"a , x.x.Q t.x.x.x.x.x.x.x.x.x.x.x.x.x.x.x.x.t.Q x.x.d.B x.x.7 7 ",
"a , x.x.Q t.x.x.x.x.x.x.x.x.x.x.x.x.x.x.x.x.t.Q x.x.d.L x.x.7 7 ",
"a : x.x.Q t.x.x.x.x.x.x.x.x.x.x.x.x.x.x.x.x.i.B m B m Q x.x., f ",
"( o x.x.Q t.x.x.x.x.x.x.x.x.x.x.x.x.x.x.x.x.x.x.x.x.,.[ x.x.: x ",
"( o x.x.Q ,.d.i.8.%.%.o.| +.%.%.,.,.,.t.t.t.t.d.d.d.t.L x.x.$ L ",
"x $ x.x.o.L L R Q #.%.>.,.>.%.o.| | | ( Q Q Q R L L L +.x.x.$ A ",
"n $ x.x.x.x.x.x.x.x.x.x.x.x.x.x.x.x.x.x.x.x.x.x.x.x.x.x.x.x., 8 ",
"( o x.x.x.x.x.x.x.x.x.x.x.x.x.x.x.x.x.x.x.x.x.x.x.x.x.x.x.x.7 7 ",
"f o x 8 7 8 x ( ,.,.,.( ( x x x x 7 7 7 7 7 7 x x x 7 , , , $ 7 ",
"( = $ = d 7 : o . . . + & , , , , 7 7 7 7 7 7 1 , , 1 a a a 7 ( "
};
