/* XPM */
static char *exit2_32x32[] = {
/* columns rows colors chars-per-pixel */
"32 32 156 2 ",
"   c None",
".  c #313131",
"X  c #373737",
"o  c #3B3B3B",
"O  c #3E3E3E",
"+  c #404141",
"@  c #414141",
"#  c #464646",
"$  c #484848",
"%  c #4B4B4B",
"&  c #4E4E4E",
"*  c #4F4F4F",
"=  c #525252",
"-  c #585858",
";  c #595959",
":  c #5C5C5C",
">  c #6D6549",
",  c #776F53",
"<  c #7A7256",
"1  c #626262",
"2  c DimGray",
"3  c #6F7071",
"4  c #707070",
"5  c gray45",
"6  c #737475",
"7  c #7A7A7A",
"8  c #9B8633",
"9  c #FFD52E",
"0  c #FCD53B",
"q  c #8A8056",
"w  c #8E8359",
"e  c #AF9A47",
"r  c #A2904A",
"t  c #A5934D",
"y  c #B6A14D",
"u  c #988D63",
"i  c #A59B71",
"p  c #C7AD4B",
"a  c #D4B748",
"s  c #C0AB57",
"d  c #C6B15E",
"f  c #DEC152",
"g  c #F9D449",
"h  c #E1C455",
"j  c #EECF52",
"k  c #E4C858",
"l  c #EBCE5F",
"z  c #FADB5E",
"x  c #D7C26E",
"c  c #EACE60",
"v  c #E6CE6D",
"b  c #EFD364",
"n  c #E2CF7D",
"m  c gray53",
"M  c #8A8A8A",
"N  c #8E8E8E",
"B  c gray57",
"V  c #989898",
"C  c #9B9B9B",
"Z  c #ACACAC",
"A  c #B2B6B8",
"S  c #B2B7BB",
"D  c #B4B9BD",
"F  c #B7BCBF",
"G  c #C3BFA6",
"H  c #DCCC88",
"J  c #E8D582",
"K  c #E9D683",
"L  c #C8C4AA",
"P  c #CAC6AC",
"I  c #CFCAB1",
"U  c #E1D8B0",
"Y  c #E2D9B1",
"T  c #B8BDC0",
"R  c #B9BEC1",
"E  c #BFC0C0",
"W  c #BDC1C4",
"Q  c #BEC2C6",
"!  c #BFC3C7",
"~  c #C0C0C0",
"^  c #C6C6C6",
"/  c #C6C6C7",
"(  c #C1C6C9",
")  c #C2C6C9",
"_  c #C3C7CA",
"`  c #C4C8CB",
"'  c #C6CBCF",
"]  c #C9CACA",
"[  c #CDD1D3",
"{  c #CFD2D5",
"}  c #D3D6D7",
"|  c #D4D4D4",
" . c #D2D5D8",
".. c #D3DADD",
"X. c #D6DCDF",
"o. c #D7DDDF",
"O. c #DADADA",
"+. c #DDDEDE",
"@. c #D8DDE0",
"#. c #D8DEE1",
"$. c #D9DFE1",
"%. c #DADFE2",
"&. c #DBE0E2",
"*. c #DBE0E3",
"=. c #DDE0E1",
"-. c #DCE1E3",
";. c #DCE1E4",
":. c #DDE2E4",
">. c #DDE2E5",
",. c #DEE3E5",
"<. c #DFE4E6",
"1. c #E1E1E1",
"2. c #E1E3E4",
"3. c #E0E5E7",
"4. c #E1E5E7",
"5. c #E4E4E4",
"6. c #E2E6E8",
"7. c #E2E7E9",
"8. c #E5E9EA",
"9. c #E5E9EB",
"0. c #E6EAEB",
"q. c #E6EAEC",
"w. c #E9EBEC",
"e. c #E8EBED",
"r. c #E8ECED",
"t. c #EAECED",
"y. c #E9ECEE",
"u. c #EAEDEE",
"i. c #EBEDEE",
"p. c #EBEEEF",
"a. c #ECEEEE",
"s. c #EEEEEE",
"d. c #EBEEF0",
"f. c #ECEFF0",
"g. c #EDEFF1",
"h. c #EEF0F2",
"j. c #EEF1F2",
"k. c #EFF2F3",
"l. c #F0F2F3",
"z. c #F2F2F2",
"x. c #F1F3F4",
"c. c #F2F4F5",
"v. c #F3F4F5",
"b. c #F3F5F6",
"n. c gray96",
"m. c #F4F5F6",
"M. c #F5F6F7",
"N. c #F7F7F8",
"B. c #F8F8F8",
"V. c #F8F9F9",
"C. c #F8F9FA",
"Z. c #F9FAFB",
"A. c #FAFBFB",
"S. c #FBFCFC",
"D. c #FEFEFE",
"F. c white",
/* pixels */
"b.q.e.e.q.e.e.e.e.e.e.e.e.e.e.e.e.e.e.e.e.e.e.e.e.e.e.e.e.e.e.b.",
"e.$.6.6.6.6.6.e.e.e.e.e.e.e.e.3...e.b.b.d.q.6.6.q.d.b.b.k.e.*.e.",
"e.d.F.F.F.F.F.F.F.F.F.F.F.F.F.b...F.F.F.F.F.F.F.F.F.F.F.F.F.e.e.",
"e.b.F.F.F.F.F.F.F.F.F.F.F.F.F.b.*.F.F.F.F.F.F.F.F.F.F.F.F.F.e.e.",
"e.e.F.F.F.F.F.F.F.F.F.F.F.F.F.b.*.F.F.F.F.F.F.F.F.F.F.F.F.F.e.e.",
"e.q.F.F.F.F.F.F.F.F.F.F.F.F.F.V...F.F.F.F.F.F.F.F.F.F.F.F.F.e.e.",
"q.6.F.F.F.F.F.F.F.F.F.F.F.F.F.F...F.F.F.F.F.F.F.F.F.F.F.F.F.q.e.",
"q.e.F.F.F.F.F.F.F.F.F.F.F.F.F.k.*.F.F.F.F.F.F.F.F.F.F.F.F.F.e.e.",
"q.b.F.F.F.F.F.F.F.F.F.F.O.Z m 5 3 7 V 3.F.F.F.F.F.F.F.F.F.F.q.e.",
"q.b.F.F.F.F.F.F.F.F.| $ @ 4 8 e e 8 < . = Q F.F.F.F.F.F.F.F.*.k.",
"q.d.F.F.F.F.F.F.F.3.O i 9 9 9 9 9 9 9 0 d O 3.F.F.F.F.F.F.F...  ",
"q.q.F.F.F.F.F.F.F.5 > 9 9 z K n n K z 9 9 w N F.F.F.F.F.F.F...  ",
"e.b.F.F.F.F.F.F.F.. h 9 P D ( { { ` T U 9 j @ b.F.F.F.F.F.F.*.  ",
"e.d.F.F.F.F.F.F.~ ; 9 c ( F.F.F.F.F.b.Q U 9 u V F.F.F.F.F.F.*.k.",
"e.*.F.F.F.F.F.F.B r 9 I $.F.F.F.F.F.F.3.` 9 x $ F.F.F.F.F.F.q.e.",
"e...e.6.6.b.F.e.O j 9 ( e.F.F.F.F.F.F.b.D 9 0 . e.e.e.e.e.e.*.e.",
"e.*.q.e.q.*...A ; 9 9 T F.F.F.F.F.F.F.F.A 9 9 O | e.e.e.e.e.3.q.",
"q.k.F.F.F.F.F.| $ 9 9 P e.F.F.F.F.F.F.{ P 9 p . b.F.F.F.F.F.b.e.",
"e.F.F.F.F.F.F.F.O f 9 b Q e.F.F.F.F. .G 0 0 . ] F.F.F.F.F.F.$.k.",
"e.b.F.F.F.F.F.F.B , 9 9 v D ` b.F.e.T 0 9 y 1 F.F.F.F.F.F.F.$.k.",
"e.e.F.F.F.F.F.F.F.1 q 0 9 0 H Q A T v 9 9 w V F.F.F.F.F.F.F.q.q.",
"e.6.F.F.F.F.F.F.F.F.N $ a 9 9 9 9 9 9 l w $ e.F.F.F.F.F.F.F.q.q.",
"e.6.F.F.F.F.F.F.F.F.F.~ . q y g k r $ O V F.F.F.F.F.F.F.F.F.3.q.",
"e.6.F.F.F.F.F.F.F.F.F.F.O.m ; @ @ 2 ~ F.F.F.F.F.F.F.F.F.F.F.*.k.",
"e.3.F.F.F.F.F.F.F.F.F.F.F.F.F.q.q.F.F.F.F.F.F.F.F.F.F.F.F.F.q.e.",
"k.$.F.F.F.F.F.F.F.F.F.F.F.F.F.k.6.F.F.F.F.F.F.F.F.F.F.F.F.F.k.e.",
"  $.F.F.F.F.F.F.F.F.F.F.F.F.F.e.q.F.F.F.F.F.F.F.F.F.F.F.F.F.e.e.",
"e.*.F.F.F.F.F.F.F.F.F.F.F.F.F.q.e.F.F.F.F.F.F.F.F.F.F.F.F.F.q.e.",
"  *.F.F.F.F.F.F.F.F.F.F.F.F.F.3.b.F.F.F.F.F.F.F.F.F.F.F.F.F.3.e.",
"  ..F.F.F.F.F.F.F.F.F.F.F.F.F.3.d.F.F.F.F.F.F.F.F.F.F.F.F.F.3.e.",
"k...b.b.b.b.k.k.k.k.k.k.k.k.q.$.*.q.e.e.e.e.e.d.k.k.q.6.6.6.$.e.",
"b.e.e.e.e.e.e.q.q.q.q.q.e.q.e.q.q.q.e.e.e.e.e.e.q.q.e.e.e.e.e.b."
};
