/* XPM */
static char *exit_32x32[] = {
/* columns rows colors chars-per-pixel */
"32 32 134 2 ",
"   c None",
".  c #313131",
"X  c #373737",
"o  c #3B3B3B",
"O  c #3E3E3E",
"+  c #404141",
"@  c #414141",
"#  c #464646",
"$  c #484848",
"%  c #4B4B4B",
"&  c #4E4E4E",
"*  c #4F4F4F",
"=  c #525252",
"-  c #585858",
";  c #595959",
":  c #5C5C5C",
">  c #626262",
",  c DimGray",
"<  c #6F7071",
"1  c #707070",
"2  c gray45",
"3  c #737475",
"4  c #7A7A7A",
"5  c gray49",
"6  c gray53",
"7  c #8A8A8A",
"8  c #8E8E8E",
"9  c gray57",
"0  c #989898",
"q  c #9B9B9B",
"w  c #A5A5A5",
"e  c #A8A8A8",
"r  c #ACACAC",
"t  c #AFAFAF",
"y  c #B6B6B6",
"u  c #B2B6B8",
"i  c #B2B7BB",
"p  c #B4B9BD",
"a  c #B7BCBF",
"s  c #B8BDC0",
"d  c #B9BEC1",
"f  c #BFC0C0",
"g  c #BDC1C4",
"h  c #BEC2C6",
"j  c #BFC3C7",
"k  c #C0C0C0",
"l  c #C6C6C6",
"z  c #C6C6C7",
"x  c #C1C6C9",
"c  c #C2C6C9",
"v  c #C3C7CA",
"b  c #C4C8CB",
"n  c #C6CACD",
"m  c #C6CBCF",
"M  c #C9CACA",
"N  c #CDCDCD",
"B  c #CBCFD1",
"V  c #CDD1D3",
"C  c #CED1D3",
"Z  c #CFD2D5",
"A  c #D3D6D7",
"S  c #D4D4D4",
"D  c #D7D7D7",
"F  c #D2D5D8",
"G  c #D3DADD",
"H  c #D6DCDF",
"J  c #D7DDDF",
"K  c #DADADA",
"L  c #DDDEDE",
"P  c #D8DDE0",
"I  c #D8DEE1",
"U  c #D9DFE1",
"Y  c #DADFE2",
"T  c #DBE0E2",
"R  c #DBE0E3",
"E  c #DDE0E1",
"W  c #DCE1E3",
"Q  c #DCE1E4",
"!  c #DDE2E4",
"~  c #DDE2E5",
"^  c #DEE3E5",
"/  c #DFE4E6",
"(  c #E1E1E1",
")  c #E0E2E3",
"_  c #E1E3E4",
"`  c #E2E4E5",
"'  c #E0E5E7",
"]  c #E1E5E7",
"[  c #E2E4E6",
"{  c #E4E4E4",
"}  c #E2E6E8",
"|  c #E2E7E9",
" . c #E5E9EA",
".. c #E5E9EB",
"X. c #E6EAEB",
"o. c #E6EAEC",
"O. c #E8E8E8",
"+. c #E8EAEB",
"@. c #E9EBEC",
"#. c #E8EBED",
"$. c #E8ECED",
"%. c #EAECED",
"&. c #E9ECEE",
"*. c #EAEDEE",
"=. c #EBEDEE",
"-. c #EBEEEF",
";. c #ECEEEE",
":. c #EDEEEF",
">. c #EEEEEE",
",. c #EBEEF0",
"<. c #ECEFF0",
"1. c #EDEFF1",
"2. c #EEF0F2",
"3. c #EEF1F2",
"4. c #EFF2F3",
"5. c #F0F2F3",
"6. c #F2F2F2",
"7. c #F2F3F3",
"8. c #F1F3F4",
"9. c #F2F4F5",
"0. c #F3F4F5",
"q. c #F3F5F6",
"w. c gray96",
"e. c #F4F5F6",
"r. c #F5F6F7",
"t. c #F7F7F8",
"y. c #F8F8F8",
"u. c #F8F9F9",
"i. c #F8F9FA",
"p. c #F9FAFB",
"a. c #FAFBFB",
"s. c #FBFCFC",
"d. c #FEFEFE",
"f. c white",
/* pixels */
"q.o.#.#.o.#.#.#.#.#.#.#.#.#.#.#.#.#.#.#.#.#.#.#.#.#.#.#.#.#.#.q.",
"#.U } } } } } #.#.#.#.#.#.#.#.' G #.q.q.,.o.} } o.,.q.q.4.#.R #.",
"#.,.f.f.f.f.f.f.f.f.f.f.f.f.f.q.G f.f.f.f.f.f.f.f.f.f.f.f.f.#.#.",
"#.q.f.f.f.f.f.f.f.f.f.f.f.f.f.q.R f.f.f.f.f.f.f.f.f.f.f.f.f.#.#.",
"#.#.f.f.f.f.f.f.f.f.f.f.f.f.f.q.R f.f.f.f.f.f.f.f.f.f.f.f.f.#.#.",
"#.o.f.f.f.f.f.f.f.f.f.f.f.f.f.u.G f.f.f.f.f.f.f.f.f.f.f.f.f.#.#.",
"o.} f.f.f.f.f.f.f.f.f.f.f.f.f.f.G f.f.f.f.f.f.f.f.f.f.f.f.f.o.#.",
"o.#.f.f.f.f.f.f.f.f.f.f.f.f.f.4.R f.f.f.f.f.f.f.f.f.f.f.f.f.#.#.",
"o.q.f.f.f.f.f.f.f.f.f.f.K r 6 2 < 4 0 ' f.f.f.f.f.f.f.f.f.f.o.#.",
"o.q.f.f.f.f.f.f.f.f.S $ @ 1 q r r q 4 . = h f.f.f.f.f.f.f.f.R 4.",
"o.,.f.f.f.f.f.f.f.' O w f.f.f.f.f.f.f.f.l O ' f.f.f.f.f.f.f.G   ",
"o.o.f.f.f.f.f.f.f.2 2 f.f.f.#.' ' #.f.f.f.7 7 f.f.f.f.f.f.f.G   ",
"#.q.f.f.f.f.f.f.f.. ' f.C p x C C b d ' f.#.@ q.f.f.f.f.f.f.R   ",
"#.,.f.f.f.f.f.f.k ; f.#.x f.f.f.f.f.q.h ' f.q q f.f.f.f.f.f.R 4.",
"#.R f.f.f.f.f.f.9 w f.F U f.f.f.f.f.f.' b f.S $ f.f.f.f.f.f.o.#.",
"#.G #.} } q.f.#.O #.f.x #.f.f.f.f.f.f.q.p f.f.. #.#.#.#.#.#.R #.",
"#.R o.#.o.R G u ; f.f.d f.f.f.f.f.f.f.f.u f.f.O S #.#.#.#.#.' o.",
"o.4.f.f.f.f.f.S $ f.f.B #.f.f.f.f.f.f.C B f.N . q.f.f.f.f.f.q.#.",
"#.f.f.f.f.f.f.f.O ' f.q.h #.f.f.f.f.F b f.f.. N f.f.f.f.f.f.U 4.",
"#.q.f.f.f.f.f.f.9 4 f.f.#.p b q.f.#.d f.f.y > f.f.f.f.f.f.f.U 4.",
"#.#.f.f.f.f.f.f.f.> 7 f.f.f.' h u d #.f.f.7 q f.f.f.f.f.f.f.o.o.",
"#.} f.f.f.f.f.f.f.f.7 $ S f.f.f.f.f.f.#.7 $ #.f.f.f.f.f.f.f.o.o.",
"#.} f.f.f.f.f.f.f.f.f.l . 7 d f.' r $ O q f.f.f.f.f.f.f.f.f.' o.",
"#.} f.f.f.f.f.f.f.f.f.f.K 6 ; @ @ , l f.f.f.f.f.f.f.f.f.f.f.R 4.",
"#.' f.f.f.f.f.f.f.f.f.f.f.f.f.o.o.f.f.f.f.f.f.f.f.f.f.f.f.f.o.#.",
"4.U f.f.f.f.f.f.f.f.f.f.f.f.f.4.} f.f.f.f.f.f.f.f.f.f.f.f.f.4.#.",
"  U f.f.f.f.f.f.f.f.f.f.f.f.f.#.o.f.f.f.f.f.f.f.f.f.f.f.f.f.#.#.",
"#.R f.f.f.f.f.f.f.f.f.f.f.f.f.o.#.f.f.f.f.f.f.f.f.f.f.f.f.f.o.#.",
"  R f.f.f.f.f.f.f.f.f.f.f.f.f.' q.f.f.f.f.f.f.f.f.f.f.f.f.f.' #.",
"  G f.f.f.f.f.f.f.f.f.f.f.f.f.' ,.f.f.f.f.f.f.f.f.f.f.f.f.f.' #.",
"4.G q.q.q.q.4.4.4.4.4.4.4.4.o.U R o.#.#.#.#.#.,.4.4.o.} } } U #.",
"q.#.#.#.#.#.#.o.o.o.o.o.#.o.#.o.o.o.#.#.#.#.#.#.o.o.#.#.#.#.#.q."
};
