/* XPM */
static char *key_32x32[] = {
/* columns rows colors chars-per-pixel */
"32 32 61 1 ",
"  c #6F3E43",
". c #905C39",
"X c #B2792F",
"o c #A76C40",
"O c #8D696E",
"+ c #936E72",
"@ c #F4B41B",
"# c #D39725",
"$ c #E09B3D",
"% c #A69093",
"& c #AB9598",
"* c #B19A9D",
"= c #B79FA1",
"- c #D8CCCE",
"; c #DBCFD0",
": c #D3DADD",
"> c #D6DCDF",
", c #D7DDDF",
"< c #D8DDE0",
"1 c #D8DEE1",
"2 c #D9DFE1",
"3 c #DADFE2",
"4 c #DBE0E2",
"5 c #DBE0E3",
"6 c #DCE1E3",
"7 c #DCE1E4",
"8 c #DDE2E4",
"9 c #DDE2E5",
"0 c #DEE3E5",
"q c #DFE4E6",
"w c #E0E5E7",
"e c #E1E5E7",
"r c #E2E6E8",
"t c #E2E7E9",
"y c #E5E9EA",
"u c #E5E9EB",
"i c #E6EAEB",
"p c #E6EAEC",
"a c #E8EBED",
"s c #E8ECED",
"d c #E9ECEE",
"f c #EAEDEE",
"g c #EBEEEF",
"h c #EBEEF0",
"j c #ECEFF0",
"k c #EDEFF1",
"l c #EEF0F1",
"z c #EEF0F2",
"x c #EEF1F2",
"c c #F0F2F3",
"v c #F1F3F4",
"b c #F2F4F5",
"n c #F3F4F5",
"m c #F3F5F6",
"M c #F4F5F6",
"N c #F5F6F7",
"B c #F6F7F8",
"V c #F8F9F9",
"C c #F8F9FA",
"Z c #F9FAFB",
"A c white",
/* pixels */
"mpaapaaaaaaaaapapaappaaaaaaaaaam",
"a2rrrrraaaaaaaaw:ammhprrphmmzaqa",
"ahAAAAAAAAAAAAAm:AAAAAAAAAAAAAaa",
"amAAAAAAAAAAAAAmqAAAAAAAAAAAAAaa",
"aaAAAAAAAAAAAAAmqAAAAAAAAAAAAAaa",
"apAAAAAAAAAAAAAV:AAAAAAAAAAAAAaa",
"prAAAAAAAAAAAAAA:AAAAAAAAAAAAApa",
"paAAAAAAAAAAAAAmqAAAAAAAAAAAAAaa",
"pmAAAAAAAAAAAAAzrAAAAAAAAAAAAApp",
"pmAAAAAAAAAAAAAzrAAAAAAAAAAAAAqp",
"phAAAAAAAAAAAAAaaAAAAAAAAAAAAA:a",
"ppAAAAAAAAAAAAAqhAAAAAAAAAAAAA:a",
"amAAAAAAAAAAAAA2mAAAAAAAAAAAAAqa",
"ahAAAAAAAAA;    -AAAAAAAAAAAAAqa",
"aqAAAAAAAAA=o@@o+===AAAAAAAAAApa",
"a:arrmAmhap&XXX#XXX.*Amhaaapaaqp",
"aqpapq:2wpp&XXX#X$$o%:2wpaaaaawp",
"pzAAAAAAAAA=o@@o @#X=AAAAAAAAAma",
"pAAAAAAAAAA;    O   ;AAAAAAAAA2a",
"pmAAAAAAAAAAAAA2mAAAAAAAAAAAAA2a",
"aaAAAAAAAAAAAAApaAAAAAAAAAAAAApp",
"arAAAAAAAAAAAAApaAAAAAAAAAAAAApp",
"arAAAAAAAAAAAAAwzAAAAAAAAAAAAAwp",
"arAAAAAAAAAAAAAqmAAAAAAAAAAAAAqa",
"awAAAAAAAAAAAAAppAAAAAAAAAAAAApa",
"a2AAAAAAAAAAAAAzrAAAAAAAAAAAAAza",
"p<AAAAAAAAAAAAAapAAAAAAAAAAAAAaa",
"pqAAAAAAAAAAAAApaAAAAAAAAAAAAApa",
"pqAAAAAAAAAAAAAwmAAAAAAAAAAAAAwa",
"a:AAAAAAAAAAAAAwhAAAAAAAAAAAAAwa",
"p:mmmmzzzzzzzza2qpppaaahzzarrr2a",
"mpaaaaaapaaaaaaappppaaaaapaaaaam"
};
