/* XPM */
static char *player_32x32[] = {
/* columns rows colors chars-per-pixel */
"32 32 145 2 ",
"   c None",
".  c #343434",
"X  c #373737",
"o  c #3A3A3A",
"O  c #3B3B3B",
"+  c #3E3E3E",
"@  c #414141",
"#  c #454545",
"$  c #484848",
"%  c #4B4B4B",
"&  c #4E4E4E",
"*  c #4F4F4F",
"=  c #525252",
"-  c #555555",
";  c gray36",
":  c #5F5F5F",
">  c #666666",
",  c #696969",
"<  c #6C6C6C",
"1  c #6D6D6D",
"2  c #707070",
"3  c #767676",
"4  c #7A7A7A",
"5  c #7D7D7D",
"6  c #37D98C",
"7  c #40DB91",
"8  c #4ADD97",
"9  c #50DE9A",
"0  c #53DE9C",
"q  c #56DF9E",
"w  c #59E0A0",
"e  c #60E1A3",
"r  c #69E3A9",
"t  c #72E4AE",
"y  c #75E5B0",
"u  c #76E5B0",
"i  c #7CE6B3",
"p  c #7FE7B5",
"a  c #808080",
"s  c #818181",
"d  c #848484",
"f  c gray53",
"g  c #8B8B8B",
"h  c #898B8C",
"j  c #8D8E8E",
"k  c #8E8E8E",
"l  c #8F9192",
"z  c gray57",
"x  c #959595",
"c  c #939699",
"v  c #989898",
"b  c #9B9B9B",
"n  c #989B9C",
"m  c #A2A2A2",
"M  c #A5A5A5",
"N  c gray66",
"B  c #AAABAB",
"V  c #AFAFAF",
"C  c #B2B2B2",
"Z  c #B3B3B3",
"A  c #B9B9B9",
"S  c #BCBCBC",
"D  c #82E7B7",
"F  c #85E8B9",
"G  c #8BE9BC",
"H  c #95EBC2",
"J  c #98EBC4",
"K  c #9EEDC7",
"L  c #A8EECD",
"P  c #ABEFCE",
"I  c #B1F0D2",
"U  c #BAF2D7",
"Y  c #C0C0C0",
"T  c #C6C6C6",
"R  c #CACACA",
"E  c #CDCDCD",
"W  c #D0D0D0",
"Q  c #D1D1D1",
"!  c #D3D3D3",
"~  c #D4D4D4",
"^  c #D7D7D7",
"/  c #D5DADE",
"(  c #DEDEDE",
")  c #C3F3DD",
"_  c #C7F4DE",
"`  c #D7DCE0",
"'  c #D7DDE0",
"]  c #D8DDE1",
"[  c #D9DEE1",
"{  c #DADFE2",
"}  c #DBE0E3",
"|  c #DCE0E3",
" . c #DDE1E4",
".. c #DDE2E5",
"X. c #DFE3E6",
"o. c #DFE4E6",
"O. c #D3F7E6",
"+. c #DDF8EB",
"@. c #E1E1E1",
"#. c #E1E5E7",
"$. c #E4E4E4",
"%. c #E1E5E8",
"&. c #E2E6E9",
"*. c #E3E7E9",
"=. c #E4E8EA",
"-. c #E5E8EB",
";. c #E5E9EB",
":. c #E6E9EB",
">. c #E6EAEC",
",. c #E7EAEC",
"<. c #E8E8E8",
"1. c #EBEBEB",
"2. c #E8EBED",
"3. c #E9ECEE",
"4. c #EAEDEF",
"5. c #EBEEEF",
"6. c #EEEEEE",
"7. c #E0F9ED",
"8. c #E3FAEF",
"9. c #EBEEF0",
"0. c #ECEFF0",
"q. c #EEF0F1",
"w. c #EEF0F2",
"e. c #EEF1F2",
"r. c #EFF1F2",
"t. c #EFF1F3",
"y. c #EFF2F3",
"u. c #ECFBF4",
"i. c #F0F1F3",
"p. c #F0F2F3",
"a. c #F2F2F2",
"s. c #F1F2F4",
"d. c #F1F3F4",
"f. c #F2F4F5",
"g. c #F3F4F5",
"h. c #F3F5F6",
"j. c gray96",
"k. c #F4F5F6",
"l. c #F6FDFA",
"z. c #F8F8F8",
"x. c #F9F9F9",
"c. c #F9FAFB",
"v. c #F9FEFB",
"b. c #FCFCFC",
"n. c white",
/* pixels */
"h.,.2.,.,.2.2.2.2.2.2.2.2.2.2.2.2.2.2.2.2.2.,.,.2.2.2.2.2.2.2.h.",
"2.{ &.&.&.&.&.2.2.2.2.2.2.2.2.#./ 2.h.h.e.,.&.&.,.e.h.h.e.2.| 2.",
"2.9.n.n.n.n.n.n.n.n.n.n.n.n.n.h.' n.n.n.n.n.n.n.n.n.n.n.n.n.2.2.",
"2.h.n.n.n.n.n.n.n.n.n.n.n.n.n.h.| n.n.n.n.n.n.n.n.n.n.n.n.n.2.2.",
"2.2.n.n.n.n.n.n.n.n.n.n.n.n.n.h.| n.n.n.n.n.n.n.n.n.n.n.n.n.2.2.",
"2.,.n.n.n.n.n.n.n.n.n.n.n.( R B c B R n.n.n.n.n.n.n.n.n.n.n.2.2.",
",.&.n.n.n.n.n.n.n.n.n.#.- * : 4 4 4 - O n h.n.n.n.n.n.n.n.n.2.2.",
"2.2.n.n.n.n.n.n.h.4 O O m n.n.n.n.n.n.R 3 O A n.n.n.n.n.n.n.2.2.",
"2.h.n.n.n.n.n.n.z , #.n.n.n.n.n.n.n.n.n.n.^ * Y n.n.n.n.n.n.,.2.",
"2.h.n.n.n.n.n.A # h.n.n.8.t r r p H I l.n.n.^ . C n.n.n.n.n.| e.",
"2.9.n.n.n.n.h.# ^ n.n.) 7 6 6 6 6 6 6 e u.n.n.^ . #.n.n.n.n.'   ",
"2.2.n.n.n.n.4 4 n.n.8.7 6 6 6 6 6 6 6 6 q +.n.n.f z n.n.n.n.'   ",
"2.h.n.n.n.2.. 2.n.n.w 6 6 6 6 6 6 6 6 6 6 7 +.n.T # n.n.n.n.|   ",
"2.9.n.n.n.C , n.n.P 6 6 6 6 6 6 6 6 6 6 6 6 F n.n.* C n.n.n.| e.",
",.| n.n.n.m f n.n.u 6 6 6 6 6 6 6 6 6 6 6 6 6 n.n.z f n.n.n.,.2.",
",./ ,.&.&.j z n.n.q 6 6 6 6 6 6 6 6 6 6 6 6 6 n.n.z j 2.2.2.| 2.",
"2.| 2.2.,.n 4 n.n.q 6 6 6 6 6 6 6 6 6 6 6 6 q n.n.z j 2.,.,.#.2.",
"2.e.n.n.n.A > n.n.u 6 6 6 6 6 6 6 6 6 6 6 6 p n.n.j n n.n.n.e.2.",
"2.n.n.n.n.2.. n.n.P 6 6 6 6 6 6 6 6 6 6 6 6 L n.n.O ^ n.n.n.{ e.",
"2.h.n.n.n.n.# ^ n.O.6 6 6 6 6 6 6 6 6 6 6 8 u.n.B - n.n.n.n.{ e.",
"2.2.n.n.n.n.j 3 n.n.u 6 6 6 6 6 6 6 6 6 7 +.n.2.* ^ n.n.n.n.,.2.",
",.&.n.n.n.n.h.* A n.n.P 8 6 6 6 6 6 6 7 ) n.n., z n.n.n.n.n.2.2.",
",.&.n.n.n.n.n.^ O R n.n.u.U K G D D K u.n.n.m , n.n.n.n.n.n.#.,.",
"2.&.n.n.n.n.n.n.A O T n.n.n.n.n.n.n.n.n.n.A * h.n.n.n.n.n.n.| e.",
"2.&.n.n.n.n.n.n.n.^ O n n.n.n.n.n.n.n.( , : #.n.n.n.n.n.n.n.,.2.",
"h.{ n.n.n.n.n.n.n.n.2.3 * f z z j 3 - . B n.n.n.n.n.n.n.n.n.e.2.",
"  { n.n.n.n.n.n.n.n.n.n.^ m z j l C ^ n.n.n.n.n.n.n.n.n.n.n.2.2.",
",.| n.n.n.n.n.n.n.n.n.n.n.n.n.,.2.n.n.n.n.n.n.n.n.n.n.n.n.n.,.2.",
"  | n.n.n.n.n.n.n.n.n.n.n.n.n.#.h.n.n.n.n.n.n.n.n.n.n.n.n.n.#.2.",
"  ' n.n.n.n.n.n.n.n.n.n.n.n.n.#.9.n.n.n.n.n.n.n.n.n.n.n.n.n.#.2.",
"e.' h.h.h.h.e.e.e.e.e.e.e.e.2.{ | ,.,.2.2.2.2.9.e.e.2.&.&.&.{ 2.",
"h.2.2.2.2.2.2.2.2.2.2.2.2.2.2.2.2.2.2.2.2.2.2.2.2.2.2.,.,.,.2.h."
};
