/* XPM */
static char *player_door_32x32[] = {
/* columns rows colors chars-per-pixel */
"32 32 211 2 ",
"   c None",
".  c #343434",
"X  c #373737",
"o  c #373738",
"O  c #3A3B3B",
"+  c #3B3B3B",
"@  c #3C3C3D",
"#  c #3E3E3E",
"$  c #3E3E3F",
"%  c #414141",
"&  c #444545",
"*  c #454545",
"=  c #464647",
"-  c #484848",
";  c #4B4B4B",
":  c #4F4F4F",
">  c #525252",
",  c #555555",
"<  c #595959",
"1  c #5C5C5C",
"2  c #5F5F5F",
"3  c #606161",
"4  c #636363",
"5  c #666666",
"6  c #696969",
"7  c #6C6C6C",
"8  c #6D6D6D",
"9  c #6E7072",
"0  c #6E7173",
"q  c #707070",
"w  c #737373",
"e  c #707375",
"r  c #757677",
"t  c #777777",
"y  c #7A7A7A",
"u  c #7D7D7D",
"i  c #7D8082",
"p  c #7E8082",
"a  c #37D98C",
"s  c #40DB91",
"d  c #4ADD97",
"f  c #50DE9A",
"g  c #53DE9C",
"h  c #56DF9E",
"j  c #59E0A0",
"k  c #60E1A3",
"l  c #69E3A9",
"z  c #72E4AE",
"x  c #75E5B0",
"c  c #76E5B0",
"v  c #7CE6B3",
"b  c #7FE7B5",
"n  c #808080",
"m  c #818181",
"M  c #848484",
"N  c #848687",
"B  c gray53",
"V  c #848789",
"C  c #8B8B8B",
"Z  c #8E8E8E",
"A  c #8E9193",
"S  c #909090",
"D  c #919191",
"F  c #929394",
"G  c #959595",
"H  c #949799",
"J  c #959799",
"K  c #989898",
"L  c #999999",
"P  c #989A9B",
"I  c #9B9B9B",
"U  c #999B9C",
"Y  c #9C9C9C",
"T  c #9C9D9D",
"R  c #9D9D9D",
"E  c #9C9D9E",
"W  c #9E9F9F",
"Q  c #A0A0A1",
"!  c #A1A2A2",
"~  c #A2A2A2",
"^  c #A3A3A4",
"/  c #A5A5A6",
"(  c #A5A6A6",
")  c #A2A5A8",
"_  c #A5A7AA",
"`  c #A7A8A8",
"'  c #A4A9AC",
"]  c #A8A8A8",
"[  c #A9A9A9",
"{  c #A9A9AA",
"}  c #A9AAAB",
"|  c #ABACAC",
" . c #ACACAC",
".. c #ACADAD",
"X. c #AEAFAF",
"o. c #AFAFAF",
"O. c #AFB0B0",
"+. c #B0B2B2",
"@. c #B2B2B2",
"#. c #B2B3B4",
"$. c #B3B5B7",
"%. c #B6B6B6",
"&. c #B2B7BB",
"*. c #B6B8B9",
"=. c #B7B8B9",
"-. c #B3B8BC",
";. c #B4B9BD",
":. c #B6BABE",
">. c #B7BCBF",
",. c #B9B9B9",
"<. c #BCBCBC",
"1. c #BCBDBE",
"2. c #BDBEBE",
"3. c #82E7B7",
"4. c #85E8B9",
"5. c #8BE9BC",
"6. c #B8BDC0",
"7. c #B9BEC1",
"8. c #BABFC2",
"9. c #BFC0C1",
"0. c #BDC0C3",
"q. c #BCC0C4",
"w. c #BDC1C5",
"e. c #BFC3C7",
"r. c #95EBC2",
"t. c #98EBC4",
"y. c #9EEDC7",
"u. c #A8EECD",
"i. c #ABEFCE",
"p. c #B1F0D2",
"a. c #BAF2D7",
"s. c #C0C0C0",
"d. c #C6C6C6",
"f. c #C6C7C7",
"g. c #C7C7C7",
"h. c #C0C5C8",
"j. c #C2C6C9",
"k. c #C3C7CA",
"l. c #C5C8CA",
"z. c #C5C9CC",
"x. c #C6CACD",
"c. c #CACACA",
"v. c #CACBCC",
"b. c #C8CBCE",
"n. c #CACCCD",
"m. c #C9CCCF",
"M. c #CDCDCD",
"N. c #CDCDCE",
"B. c #CDCECE",
"V. c #CACDD0",
"C. c #CACED0",
"Z. c #CBCFD1",
"A. c #CFD2D5",
"S. c #D0D0D0",
"D. c #D1D1D1",
"F. c #D1D2D3",
"G. c #D0D3D6",
"H. c #D1D4D7",
"J. c #D4D4D4",
"K. c #D5D6D6",
"L. c #D7D7D7",
"P. c #D2D5D8",
"I. c #D4D7D9",
"U. c #D5D8DA",
"Y. c #D6D9DB",
"T. c #D7DADC",
"R. c #D8DBDD",
"E. c #D9DBDD",
"W. c #DADCDE",
"Q. c #DBDDDF",
"!. c #DEDEDE",
"~. c #C3F3DD",
"^. c #C7F4DE",
"/. c #DDE0E1",
"(. c #DFE1E2",
"). c #D3F7E6",
"_. c #DDF8EB",
"`. c #E1E1E1",
"'. c #E0E2E3",
"]. c #E1E3E4",
"[. c #E2E4E5",
"{. c #E2E4E6",
"}. c #E4E4E4",
"|. c #E4E6E7",
" X c #E4E6E8",
".X c #E6E7E9",
"XX c #E6E8E9",
"oX c #E7E8EA",
"OX c #E8E8E8",
"+X c #E9EBEC",
"@X c #ECEDEE",
"#X c #EDEEEF",
"$X c #EFEFEF",
"%X c #E0F9ED",
"&X c #E3FAEF",
"*X c #EFF0F1",
"=X c #ECFBF4",
"-X c #F0F2F2",
";X c #F2F2F2",
":X c #F4F5F5",
">X c gray96",
",X c #F5F6F7",
"<X c #F7F7F8",
"1X c #F6FDFA",
"2X c #F8F8F8",
"3X c #FAFBFB",
"4X c #F9FEFB",
"5X c #FCFCFC",
"6X c #FDFDFD",
"7X c #FEFEFE",
"8X c white",
/* pixels */
"K.( ( ( ( ( ( G G G G G G G G G G ' <.9.9.o.( G C y y y K o.' K.",
"G > y y y y y G G G =.G G G G G G y 4 2 2 y y G K o.o.( y y > G ",
"C K 8X8X8X8X8X8X8X8X8X8X8X8X8X8X8X8X8X8X8X8X8X8X8X8X8X8X8X8XG G ",
"4 <.8X8X8X8X8X8X8X8X8X8X8X8X8X8X8X8X8X8X8X8X8X8X8X8X8X8X8X8XG G ",
"* `.8X8XR.z.z.z.z.z.z.z.z.z.z.z.z.z.z.j.9.9.j.Y.R.m.z.R.8X8XG G ",
"6 %.8X8XI.m.@X@X@X@X@X@X@Xm.*.K K K =.@X>X>X@XR.R.`.(.z.8X8XG G ",
"y o.8X8X.XZ.8X8X8X8X8X`.> : 2 y y y > + K >X8X8X8X8X@Xz.8X8XG G ",
"y o.8X8X`.A.8X8X>Xy + + ( 8X8X8X8X8X8Xm.w + o.7.K.K.9.j.8X8XG G ",
"6 <.8X8XR.Y.8X8XG 6 `.8X8X8X8X8X8X8X8X8X8XK.* H R.(..X7.8X8XB K ",
"B ( 8X8XR.R.8X<.* >X8X8X&Xz l l b r.p.1X8X8XK.. %.8X8X*.8X8X6 o.",
"( w 8X8XI.R.>X* K.8X8X~.s a a a a a a j =X8X8XK.. `.8X7.8X8X* m.",
"9.2 8X8XR.R.y y 8X8X&Xs a a a a a a a a h _.8X8XB 0 *.j.8X8X*   ",
"9.2 8X8XI.z.. @X8X8Xj a a a a a a a a a a s _.8Xg.* (.Z.8X8X2 %.",
"O.6 8X8X=.V 6 8X8Xi.a a a a a a a a a a a a 4.8X8X* K z.8X8X4 O.",
"( y 8X>X*.G B 8X8Xc a a a a a a a a a a a a s 8X8XG w 7.8X8XB ( ",
"K y 8X8X*.G G 8X8Xh a a a a a a a a a a a a a 8X8XG G =.8X8XK B ",
"y G 8X8X=.( y 8X8Xh a a a a a a a a a a a a h 8X8XG A =.8X8X%.2 ",
": m.8X8XZ.A 4 8X8Xc a a a a a a a a a a a a b 8X8XC B j.8X8Xm.2 ",
"* `.8X8Xz.' . 8X8Xi.a a a a a a a a a a a a u.8X8X+ %.Z.8X8X<.4 ",
"> g.8X8Xz.A.+ K.8X).a a a a a a a a a a a d =X8Xo.: `.z.8X8Xo.y ",
"B K 8X8XZ.oXC w 8X8Xz a a a a a a a a a s _.8X@X: _ 7.=.8X8XG G ",
"( y 8X8Xz.@X>X: <.8X8Xi.d a a a a a a s ~.8X8X6 G 8X@X*.>X8XG G ",
"( y 8X8Xz.@X8XK.+ m.8X8X=Xa.y.5.3.3.y.=X8X8X( 4 8X8X>X=.8X8XG G ",
"( y 8X8Xz.@X8X8X<.+ g.8X8X8X8X8X8X8X8X8X8X<.* 9.8X8X>X9.8X8XG G ",
"( w 8X8Xz.@X8X8X8XK.+ K 8X8X8X8X8X8X8XR.6 2 K.=.*.=.*.z.8X8Xy ' ",
"m.: 8X8Xz.@X8X8X8X8X@Xw : B G G C w > . o.8X8X8X8X8X`.Z.8X8Xw o.",
"m.: 8X8Xz.`.>X*X`.R.R.K._ i 0 w i J %.`.@X@X@X>X>X>X@X9.8X8X2 9.",
"o.2 8X8XK.9.9.j.z.Y.R.(.`.(.R.K.A.A.A.m.z.z.z.j.9.9.9.I.8X8X2 <.",
"%.2 8X8X8X8X8X8X8X8X8X8X8X8X8X8X8X8X8X8X8X8X8X8X8X8X8X8X8X8Xy K ",
"m.: 8X8X8X8X8X8X8X8X8X8X8X8X8X8X8X8X8X8X8X8X8X8X8X8X8X8X8X8XG G ",
"_ - o.K G K o.m.`.`.`.m.m.o.o.o.o.G G G G G G o.o.O.G y y y 2 G ",
"m.6 2 6 ' G w : * * * > 4 y y y y G G G G G G B y y B ( ( ( G m."
};
