/* XPM */
static char *player2_32x32[] = {
/* columns rows colors chars-per-pixel */
"32 32 60 1 ",
"  c #905C39",
". c #B2792F",
"X c #936853",
"o c #F4B41B",
"O c #D39725",
"+ c #B48549",
"@ c #B79162",
"# c #CB815E",
"$ c #F9CC4E",
"% c #A69093",
"& c #A89296",
"* c #AB9598",
"= c #AD9699",
"- c #B19A9D",
"; c #B79FA1",
": c #D3DADD",
"> c #D6DCDF",
", c #D7DDDF",
"< c #D8DDE0",
"1 c #D8DEE1",
"2 c #D9DFE1",
"3 c #DADFE2",
"4 c #DBE0E2",
"5 c #DBE0E3",
"6 c #DCE1E3",
"7 c #DCE1E4",
"8 c #DDE2E4",
"9 c #DDE2E5",
"0 c #DEE3E5",
"q c #DFE4E6",
"w c #E0E5E7",
"e c #E1E5E7",
"r c #E2E6E8",
"t c #E2E7E9",
"y c #E5E9EA",
"u c #E5E9EB",
"i c #E6EAEB",
"p c #E6EAEC",
"a c #E8EBED",
"s c #E8ECED",
"d c #E9ECEE",
"f c #EAEDEE",
"g c #EBEEEF",
"h c #EBEEF0",
"j c #ECEFF0",
"k c #EDEFF1",
"l c #EEF0F1",
"z c #EEF0F2",
"x c #EEF1F2",
"c c #F0F2F3",
"v c #F1F3F4",
"b c #F2F4F5",
"n c #F3F4F5",
"m c #F3F5F6",
"M c #F4F5F6",
"N c #F5F6F7",
"B c #F8F9F9",
"V c #F8F9FA",
"C c #F9FAFB",
"Z c white",
/* pixels */
"mpaapaaaaaaaaapaaaaaaaaaaaaaaaam",
"a2rrrrraaaaaaaaw:ammhprrphmmza5a",
"ahZZZZZZZZZZZZZm:ZZZZZZZZZZZZZaa",
"amZZZZZZZZZZZZZm5ZZZZZZZZZZZZZaa",
"aaZZZZZZZZZZZZZm5ZZZZZZZZZZZZZaa",
"apZZZZZZZZZZZZZB:ZZZZZZZZZZZZZaa",
"prZZZZZZZZZZZZZZ:ZZZZZZZZZZZZZpa",
"paZZZZZZZZZZZZZm5ZZZZZZZZZZZZZaa",
"pmZZZZZZZZZZZZZzrZZZZZZZZZZZZZpa",
"pmZZZZZZZZZZZZZzrZZZZZZZZZZZZZ5a",
"phZZZZZZZZZZZZZapZZZZZZZZZZZZZ:a",
"ppZZZZZZZZZZ;;;&*;;;ZZZZZZZZZZ:a",
"amZZZZZZZZZ;X@@@@@@X;ZZZZZZZZZ5a",
"ahZZZZZZZZZ;+$$$$$$+;ZZZZZZZZZ5a",
"a5ZZZZZZZZZ;.#oooo#.;ZZZZZZZZZpa",
"a:arrmZmhaa*.oOOOOo.-Zmhaapaaa5p",
"a5aap5:2wpa*.oOOOOo.%:2wpaaaaawp",
"pzZZZZZZZZZ;.oO;;Oo.;ZZZZZZZZZma",
"aZZZZZZZZZZ;.#oooo#.;ZZZZZZZZZ2a",
"amZZZZZZZZZ; ...... ;ZZZZZZZZZ2a",
"aaZZZZZZZZZZ;;;**;;;ZZZZZZZZZZpa",
"arZZZZZZZZZZZZZaaZZZZZZZZZZZZZaa",
"arZZZZZZZZZZZZZwzZZZZZZZZZZZZZwp",
"arZZZZZZZZZZZZZ5mZZZZZZZZZZZZZ5a",
"awZZZZZZZZZZZZZppZZZZZZZZZZZZZpa",
"a2ZZZZZZZZZZZZZzrZZZZZZZZZZZZZza",
"a2ZZZZZZZZZZZZZapZZZZZZZZZZZZZaa",
"a5ZZZZZZZZZZZZZpaZZZZZZZZZZZZZpa",
"a5ZZZZZZZZZZZZZwmZZZZZZZZZZZZZwa",
"a:ZZZZZZZZZZZZZwhZZZZZZZZZZZZZwa",
"a:mmmmzzzzzzzza25pppaaahzzarrr2a",
"maaaaaaapaaaaaaappppaaaaapaaaaam"
};
