/* XPM */
static char *stair_32x32[] = {
/* columns rows colors chars-per-pixel */
"32 32 144 2 ",
"   c None",
".  c #454545",
"X  c #484848",
"o  c #4B4B4B",
"O  c #4F4F4F",
"+  c #525252",
"@  c #555555",
"#  c #595959",
"$  c #5F5F5F",
"%  c #5D5F60",
"&  c #626262",
"*  c #636363",
"=  c #636466",
"-  c #666666",
";  c #696969",
":  c #6C6C6C",
">  c #6D6D6D",
",  c #6F7070",
"<  c gray45",
"1  c #777777",
"2  c #7A7A7A",
"3  c #7D7D7D",
"4  c #808181",
"5  c #818181",
"6  c #838484",
"7  c gray53",
"8  c #8B8B8B",
"9  c #8E8E8E",
"0  c #919191",
"q  c #949495",
"w  c #959595",
"e  c #989898",
"r  c #999999",
"t  c #9B9B9B",
"y  c #9C9C9C",
"u  c #9C9D9D",
"i  c #9D9D9D",
"p  c #9E9F9F",
"a  c #9FA0A0",
"s  c #A1A2A2",
"d  c #A2A2A2",
"f  c #A3A3A4",
"g  c #A5A5A6",
"h  c #A5A6A6",
"j  c #A6A6A6",
"k  c #A7A7A8",
"l  c #A7A8A8",
"z  c #A8A9A9",
"x  c #A9A9AA",
"c  c #A9AAAB",
"v  c #ABACAC",
"b  c #ACACAC",
"n  c #ACADAD",
"m  c #AFAFAF",
"M  c #AFB0B0",
"N  c #B0B2B2",
"B  c #B2B3B4",
"V  c #B6B6B6",
"C  c #B2B7BB",
"Z  c #B3B8BC",
"A  c #B4B9BD",
"S  c #B6BABE",
"D  c #B7BCBF",
"F  c #BCBCBC",
"G  c #BCBDBE",
"H  c #BCBEBF",
"J  c #B8BDC0",
"K  c #B9BEC1",
"L  c #BABFC2",
"P  c #BFC0C1",
"I  c #BCC0C4",
"U  c #BDC1C4",
"Y  c #BDC1C5",
"T  c #BEC2C6",
"R  c #C0C0C0",
"E  c #C6C6C6",
"W  c #C0C5C8",
"Q  c #C3C7CA",
"!  c #C4C8CB",
"~  c #C5C9CC",
"^  c #C6CACD",
"/  c #C7CBCE",
"(  c #CACACA",
")  c #CACBCC",
"_  c #C8CBCE",
"`  c #C9CCCF",
"'  c #CCCCCC",
"]  c #CDCDCD",
"[  c #CDCECE",
"{  c #CACED0",
"}  c #CBCFD1",
"|  c #CCD0D2",
" . c #CDD1D3",
".. c #CFD2D4",
"X. c #CFD2D5",
"o. c #D0D3D5",
"O. c #D0D3D6",
"+. c #D1D4D6",
"@. c #D1D4D7",
"#. c #D5D5D6",
"$. c #D2D5D8",
"%. c #D4D6D8",
"&. c #D4D7D9",
"*. c #D5D8DA",
"=. c #D6D9DB",
"-. c #D7DADC",
";. c #D8DBDD",
":. c #D9DBDD",
">. c #DADCDE",
",. c #DBDDDF",
"<. c #DCDEE0",
"1. c #DDE0E1",
"2. c #DEE1E2",
"3. c #E1E1E1",
"4. c #E0E2E3",
"5. c #E1E3E4",
"6. c #E2E4E5",
"7. c #E2E4E6",
"8. c #E3E5E6",
"9. c #E3E5E7",
"0. c #E4E4E4",
"q. c #E4E6E8",
"w. c #E5E7E8",
"e. c #E6E7E9",
"r. c #E7E9EA",
"t. c #E8EAEB",
"y. c #E9EBEC",
"u. c #EAECED",
"i. c #EBECED",
"p. c #ECEDEE",
"a. c #EEEFF0",
"s. c #EFF0F1",
"d. c #F0F2F2",
"f. c #F2F3F3",
"g. c #F3F4F4",
"h. c #F5F6F6",
"j. c #F5F6F7",
"k. c #F7F7F7",
"l. c #F6F7F8",
"z. c #F9F9FA",
"x. c #FBFCFC",
"c. c #FDFDFD",
"v. c #FEFEFE",
"b. c white",
/* pixels */
"#.h h h h h h w w w w w w w w w w l F I I m h w 8 2 2 2 e m k #.",
"w + 2 % 2 2 2 w w w w w w w w w w 2 * * * 2 2 w e m V h * , + w ",
"8 e c.C c.c.c.c.c.c.c.c.c.c.c.c.c.c.c.c.c.c.c.c.c.c.c.c.^ 3.w w ",
"* F j.J c.c.c.c.c.c.c.c.c.c.c.c.c.c.c.c.c.c.c.c.c.c.c.c.I j.w w ",
". 3.j.I c.c.c.c.c.c.c.c.c.c.c.c.c.c.c.c.c.c.c.c.c.c.c.c.^ y.w w ",
"; V c.A 3.:.:.3.3.3.3.3.3.<.%.{ ^ { :.3.3.y.y.y.y.3.3.<.Q a.w w ",
"2 m c.%.J ^ :.#...........=.2.y.y.3.=.....{ ^ ^ ^ { [ I <.c.w w ",
"2 m c.c...<.c.c.c.c.c.c.c.c.c.c.c.c.c.c.c.c.c.c.c.c.y.^ c.c.w w ",
"; F c.c.^ s.c.c.c.c.c.c.c.c.c.c.c.c.c.c.c.c.c.c.c.c.l.I c.c.5 e ",
"5 h c.c.{ 3.c.c.c.c.c.c.c.c.c.c.c.c.c.c.c.c.c.c.c.c.l.J c.c.; m ",
"h < c.c...{ :.:.:.:.:.:.:.y.y.y.3.3.3.3.3.3.3.3.:.:...[ c.c.o [ ",
"I $ c.c.r.{ ^ :.:.:.:.:.%.^ ^ ^ ................=.^ ^ 3.c.c..   ",
"I $ c.c.c.^ <.c.c.c.c.c.c.c.c.c.c.c.c.c.c.c.c.c.c.3...c.c.c.$ V ",
"M ; c.c.c.{ e.c.c.c.c.c.c.c.c.c.c.c.c.c.c.c.c.c.c.y.^ c.c.c.* M ",
"h 2 c.c.c.3.^ c.c.c.c.c.c.c.c.c.c.c.c.c.c.c.c.c.c.:.#.c.c.c.5 h ",
"e 2 c.c.c.3.J #...%.:.:.:.:.:.:.<.y.j.j.:.:.:.:.:.I =.j.c.c.e 5 ",
"2 w c.c.c.j.=.A 3.:.:.:.:.:.:.:.%.Q I I { 3.3.:.Q ^ :.y.c.c.V * ",
"o [ c.c.c.c.j.J c.c.c.c.c.c.c.c.c.c.c.c.c.c.c.c.#.2.c.c.c.c.[ * ",
". 3.c.c.c.c.y.^ c.c.c.c.c.c.c.c.c.c.c.c.c.c.c.c.A c.c.c.c.c.E * ",
"+ E c.c.c.c.j.I c.c.c.c.c.c.c.c.c.c.c.c.c.c.c.c.A j.c.c.c.c.m 2 ",
"5 a c.c.c.c.j.A :.3.3.2.:.2.3.e.y.y.y.r.3.:.:.2.Q y.c.c.c.c.w w ",
"h 2 c.c.c.c.c.:.J ..%.:.:.%...{ ^ ^ ^ { ..:.:.A ^ j.c.c.c.c.w w ",
"h 2 c.c.c.c.c.y.I c.c.c.c.c.c.c.c.c.c.c.c.c.c.C c.c.c.c.c.c.w w ",
"h 2 c.c.c.c.c.3...c.c.c.c.c.c.c.c.c.c.c.c.c.c.A c.c.c.c.c.c.w w ",
"h < c.c.c.c.c.j.I c.c.c.c.c.c.c.c.c.c.c.c.c.c.C c.c.c.c.c.c.2 l ",
"[ o c.c.c.c.c.c.A :.:.y.y.y.y.y.3.<.:.:.:.=.:.A c.c.c.c.c.c.< m ",
"[ o c.c.c.c.c.c.2.:.#.^ ^ ^ ^ { ..=.:.:.:.:.:.2.c.c.c.c.c.c.$ I ",
"m $ c.c.c.c.c.c.c.c.c.c.c.c.c.c.c.c.c.c.c.c.c.c.c.c.c.c.c.c.$ F ",
"V $ c.c.c.c.c.c.c.c.c.c.c.c.c.c.c.c.c.c.c.c.c.c.c.c.c.c.c.c.2 e ",
"[ o c.c.c.c.c.c.c.c.c.c.c.c.c.c.c.c.c.c.c.c.c.c.c.c.c.c.c.c.w w ",
"l o m e w e V [ 3.3.3.[ [ V V m V w w w w w w m V V w 2 2 2 * w ",
"[ ; $ ; l w < o . . . + * 2 2 2 2 w w w w w w 5 2 2 5 h h h w [ "
};
