/* XPM */
static char *tiles_center_32x32[] = {
/* columns rows colors chars-per-pixel */
"32 32 67 1 ",
"  c None",
". c #D4D9DD",
"X c #D4DADD",
"o c #D5DADE",
"O c #D5DBDE",
"+ c #D6DBDF",
"@ c #D7DCDF",
"# c #D7DCE0",
"$ c #D7DDE0",
"% c #D8DDE1",
"& c #D9DEE1",
"* c #D9DEE2",
"= c #DADFE2",
"- c #DBE0E3",
"; c #DCE0E3",
": c #DCE1E4",
"> c #DDE1E4",
", c #DDE2E5",
"< c #DEE2E5",
"1 c #DEE3E6",
"2 c #DFE3E6",
"3 c #DFE4E6",
"4 c #E1E5E7",
"5 c #E1E5E8",
"6 c #E2E6E9",
"7 c #E3E7E9",
"8 c #E4E8EA",
"9 c #E5E8EB",
"0 c #E5E9EB",
"q c #E6E9EB",
"w c #E6EAEC",
"e c #E7EAEC",
"r c #E8EBED",
"t c #E9ECED",
"y c #E9ECEE",
"u c #EAEDEF",
"i c #EBEEEF",
"p c #EBEEF0",
"a c #ECEFF0",
"s c #EDF0F1",
"d c #EEF0F1",
"f c #EEF0F2",
"g c #EEF1F2",
"h c #EFF1F2",
"j c #EFF1F3",
"k c #EFF2F3",
"l c #F0F1F3",
"z c #F0F2F3",
"x c #F0F2F4",
"c c #F1F2F4",
"v c #F1F3F4",
"b c #F2F4F5",
"n c #F3F4F5",
"m c #F3F5F6",
"M c #F4F5F6",
"N c #F4F6F7",
"B c #F5F6F7",
"V c #F6F7F8",
"C c #F8F9F9",
"Z c #F8F9FA",
"A c #F9FAFB",
"S c #FAFBFB",
"D c #FBFBFC",
"F c #FBFCFC",
"G c #FDFDFD",
"H c #FEFEFE",
"J c white",
/* pixels */
"mrreererrrrrrrrrrrrrrreerrrrrrrm",
"r*66666rrrrrrrr4ormmfe66efmmfr;r",
"rpJJJJJJJJJJJJJm$JJJJJJJJJJJJJrr",
"rmJJJJJJJJJJJJJm;JJJJJJJJJJJJJrr",
"rrJJJJJJJJJJJJJm;JJJJJJJJJJJJJrr",
"reJJJJJJJJJJJJJC$JJJJJJJJJJJJJrr",
"e6JJJJJJJJJJJJJJoJJJJJJJJJJJJJrr",
"rrJJJJJJJJJJJJJm;JJJJJJJJJJJJJrr",
"rmJJJJJJJJJJJJJf6JJJJJJJJJJJJJer",
"rmJJJJJJJJJJJJJf6JJJJJJJJJJJJJ;f",
"rpJJJJJJJJJJJJJreJJJJJJJJJJJJJ$ ",
"rrJJJJJJJJJJJJJ$oJJJJJJJJJJJJJ$ ",
"rmJJJJJJJJJJJJ$mroJJJJJJJJJJJJ; ",
"rpJJJJJJJJJJJ*fJJr*JJJJJJJJJJJ;f",
"e;JJJJJJJJJJ*eJJJJe*JJJJJJJJJJer",
"eoe66mJmpre$rJJJJJJr*mmprrrrrr;r",
"r;rre;o*4rromJJJJJJmoo*4rrrrrr4r",
"rfJJJJJJJJJJomJJJJ;orJJJJJJJJJfr",
"rJJJJJJJJJJJfomJJp;JJJJJJJJJJJ;f",
"rmJJJJJJJJJJJVofJ*mJJJJJJJJJJJ*f",
"rrJJJJJJJJJJJJJ$oeJJJJJJJJJJJJer",
"r6JJJJJJJJJJJJJreJJJJJJJJJJJJJrr",
"r6JJJJJJJJJJJJJ4fJJJJJJJJJJJJJ4e",
"r6JJJJJJJJJJJJJ;mJJJJJJJJJJJJJ;f",
"r6JJJJJJJJJJJJJeeJJJJJJJJJJJJJer",
"m*JJJJJJJJJJJJJf6JJJJJJJJJJJJJfr",
" *JJJJJJJJJJJJJreJJJJJJJJJJJJJrr",
"r;JJJJJJJJJJJJJerJJJJJJJJJJJJJer",
" ;JJJJJJJJJJJJJ4mJJJJJJJJJJJJJ4r",
" $JJJJJJJJJJJJJ4pJJJJJJJJJJJJJ4r",
"f$mmmmffffffffr*;rrrrrrpffr666*r",
"mrrrrrrrrrrrrrrrrrrrrrrrrrrrrerm"
};
