/* XPM */
static char *tiles_32x32[] = {
/* columns rows colors chars-per-pixel */
"32 32 52 1 ",
"  c None",
". c #D5DADE",
"X c #D7DCE0",
"o c #D7DDE0",
"O c #D8DDE1",
"+ c #D9DEE1",
"@ c #DADFE2",
"# c #DBE0E3",
"$ c #DCE0E3",
"% c #DDE1E4",
"& c #DDE2E5",
"* c #DEE2E5",
"= c #DFE3E6",
"- c #DFE4E6",
"; c #E0E4E7",
": c #E1E5E7",
"> c #E1E5E8",
", c #E2E6E9",
"< c #E3E7E9",
"1 c #E4E8EA",
"2 c #E5E8EB",
"3 c #E5E9EB",
"4 c #E6E9EB",
"5 c #E6EAEC",
"6 c #E7EAEC",
"7 c #E8EBED",
"8 c #E9ECEE",
"9 c #EAEDEF",
"0 c #EBEEEF",
"q c #EBEEF0",
"w c #ECEFF0",
"e c #EDEFF1",
"r c #EEF0F1",
"t c #EEF0F2",
"y c #EEF1F2",
"u c #EFF1F2",
"i c #EFF1F3",
"p c #EFF2F3",
"a c #F0F1F3",
"s c #F0F2F3",
"d c #F1F2F4",
"f c #F1F3F4",
"g c #F2F4F5",
"h c #F3F4F5",
"j c #F3F5F6",
"k c #F4F5F6",
"l c #F5F6F7",
"z c #F6F7F8",
"x c #F8F9F9",
"c c #F8F9FA",
"v c #F9FAFB",
"b c white",
/* pixels */
"j676667777777777777777667777777j",
"7@,,,,,77777777:.7jjt6,,6tjjt7%7",
"7qbbbbbbbbbbbbbjobbbbbbbbbbbbb77",
"7jbbbbbbbbbbbbbj%bbbbbbbbbbbbb77",
"77bbbbbbbbbbbbbj%bbbbbbbbbbbbb77",
"76bbbbbbbbbbbbbxobbbbbbbbbbbbb77",
"6,bbbbbbbbbbbbbbobbbbbbbbbbbbb77",
"77bbbbbbbbbbbbbj%bbbbbbbbbbbbb77",
"7jbbbbbbbbbbbbbt,bbbbbbbbbbbbb67",
"7jbbbbbbbbbbbbbt,bbbbbbbbbbbbb%t",
"7qbbbbbbbbbbbbb76bbbbbbbbbbbbbo ",
"77bbbbbbbbbbbbb:qbbbbbbbbbbbbbo ",
"7jbbbbbbbbbbbbb@jbbbbbbbbbbbbb% ",
"7qbbbbbbbbbbbbb.bbbbbbbbbbbbbb%t",
"6%bbbbbbbbbbbbb,qbbbbbbbbbbbbb67",
"6.6,,jbjq777777%%6,,jbjq777777%7",
"7%776%.@:777777:.776%.@:777777:7",
"7tbbbbbbbbbbbbbt%bbbbbbbbbbbbbt7",
"7bbbbbbbbbbbbbb%jbbbbbbbbbbbbb%t",
"7jbbbbbbbbbbbbb@jbbbbbbbbbbbbb@t",
"77bbbbbbbbbbbbb67bbbbbbbbbbbbb67",
"7,bbbbbbbbbbbbb77bbbbbbbbbbbbb77",
"7,bbbbbbbbbbbbb:tbbbbbbbbbbbbb:6",
"7,bbbbbbbbbbbbb%jbbbbbbbbbbbbb%t",
"7,bbbbbbbbbbbbb66bbbbbbbbbbbbb67",
"j@bbbbbbbbbbbbbt,bbbbbbbbbbbbbt7",
" @bbbbbbbbbbbbb76bbbbbbbbbbbbb77",
"6%bbbbbbbbbbbbb67bbbbbbbbbbbbb67",
" %bbbbbbbbbbbbb:jbbbbbbbbbbbbb:7",
" obbbbbbbbbbbbb:qbbbbbbbbbbbbb:7",
"tojjjjtttttttt7@%777777qtt7,,,@7",
"j777777777777777777777777777767j"
};
