/* XPM */
static char *wall_32x32[] = {
/* columns rows colors chars-per-pixel */
"32 32 103 2 ",
"   c None",
".  c #454545",
"X  c #484848",
"o  c #4B4B4B",
"O  c #4F4F4F",
"+  c #525252",
"@  c #585858",
"#  c #5F5F5F",
"$  c #626262",
"%  c DimGray",
"&  c #6C6C6C",
"*  c #717171",
"=  c gray45",
"-  c #767676",
";  c #7A7A7A",
":  c gray49",
">  c #808080",
",  c gray53",
"<  c gray57",
"1  c #949494",
"2  c #959595",
"3  c #989898",
"4  c #9B9B9B",
"5  c #9E9E9E",
"6  c #A2A2A2",
"7  c #A8A8A8",
"8  c #AFAFAF",
"9  c #B6B6B6",
"0  c #B3B8BC",
"q  c #B4B9BD",
"w  c #B7BBBF",
"e  c #B8B8B8",
"r  c #BCBCBC",
"t  c #B8BDC0",
"y  c #B9BEC1",
"u  c #BABFC2",
"i  c #BBC0C3",
"p  c #BCC0C4",
"a  c #BDC1C4",
"s  c #BDC1C5",
"d  c #BEC2C6",
"f  c #BFC3C7",
"g  c #C0C0C0",
"h  c #C6C6C6",
"j  c #C0C5C8",
"k  c #C1C5C9",
"l  c #C3C7CA",
"z  c #C5C9CC",
"x  c #C6CACD",
"c  c #CACACA",
"v  c #C8CBCE",
"b  c #C9CCCF",
"n  c #CDCDCD",
"m  c #CACED0",
"M  c #CBCED1",
"N  c #CBCFD1",
"B  c #CCD0D2",
"V  c #CDD1D3",
"C  c #CFD2D5",
"Z  c #D1D4D7",
"A  c #D2D5D8",
"S  c #D4D7D9",
"D  c #D5D8DA",
"F  c #D6D9DB",
"G  c #D7DADC",
"H  c #D9DBDD",
"J  c #DADCDE",
"K  c #DBDDDF",
"L  c #DCDEE0",
"P  c #DDE0E1",
"I  c #DEE0E2",
"U  c #DEE1E2",
"Y  c #E1E1E1",
"T  c #E0E2E3",
"R  c #E1E3E4",
"E  c #E2E4E5",
"W  c #E2E4E6",
"Q  c #E3E5E6",
"!  c #E3E5E7",
"~  c #E4E4E4",
"^  c #E4E6E8",
"/  c #E5E7E9",
"(  c #E6E7E9",
")  c #E7E8EA",
"_  c #E7E9EA",
"`  c #E8E9EB",
"'  c #E8EAEB",
"]  c #E9EBEC",
"[  c #EAECED",
"{  c #ECEDEE",
"}  c #EDEEEF",
"|  c #EEEFF0",
" . c #EFF0F1",
".. c #F1F1F2",
"X. c #F3F4F4",
"o. c #F4F5F5",
"O. c #F5F6F6",
"+. c #F7F7F8",
"@. c #F8F8F9",
"#. c #F9F9FA",
"$. c #FBFCFC",
"%. c #FEFEFE",
"&. c white",
/* pixels */
"e 2 2 2 2 2 2 2 2 2 2 2 2 2 2 2 2 2 e     2 2 2 2 2 2 2 2 2 2 n ",
"2 + ; ; ; ; ; 2 2 2 2 2 2 2 2 2 2 ; $ # # ; ; 2 3 8 8 6 ; ; + 2 ",
"2 3 &.&.&.&.&.&.&.&.&.&.&.&.&.&.&.&.&.&.&.&.&.&.&.&.&.&.&.&.2 2 ",
"2 e &.&.&.&.&.&.&.&.&.&.&.&.&.&.&.&.&.&.&.&.&.&.&.&.&.&.&.&.2 2 ",
"2 Y &.&.&.&.&.&.&.&.&.&.&.&.&.&.&.&.&.&.&.&.&.&.&.&.&.&.&.&.2 2 ",
"2 9 &.&.&.X.Y { _ G H H H H H H H H H H H Y { Y U H X.&.&.&.2 2 ",
"2 8 &.&.&.H t p x G H H H H H H H H H n w j p m S x G &.&.&.2 2 ",
"2 8 &.&.&.H H &.&.&.&.&.&.&.&.&.&.&.C p { &.&.&.&.L S &.&.&.2 2 ",
"2 e &.&.&.H H &.&.&.&.&.&.&.&.&.&.X.t &.&.&.&.&.&.H H &.&.&.> 2 ",
"2 6 &.&.&.H H &.&.&.&.&.&.&.&.&.X.j / &.&.&.&.&.&.H H &.&.&.& e ",
"2 = &.&.&.H H &.&.&.&.&.&.&.&.{ t U &.&.&.&.&.&.&.H H &.&.&.O   ",
"  # &.&.&.H H &.&.&.&.&.&.&.{ w / &.&.&.&.&.&.&.H w H &.&.&..   ",
"  # &.&.&.U Z &.&.&.&.&.&.&.t / &.&.&.&.&.&.&.H j U C &.&.&.#   ",
"2 & &.&.&._ x &.&.&.&.&. .p Y &.&.&.&.&.&.&.Y t X.{ x &.&.&.$ e ",
"2 ; &.&.&.{ x &.&.&.&.X.p / &.&.&.&.&.&.&. .w  .&./ n &.&.&.> 2 ",
"2 ; &.&.&.Y C &.&.&.&.p { &.&.&.&.&.&.&.X.p { &.&.x L &.&.&.3 2 ",
"2 2 &.&.&.Y C &.&.&.x m &.&.&.&.&.&.&./ w _ &.&.&.p { &.&.&.9 2 ",
"2 n &.&.&.Y C &.+.j H &.&.&.&.&.&.&.Y t { &.&.&.&.n / &.&.&.n 2 ",
"2 Y &.&.&.{ x X.t Y &.&.&.&.&.&.&.X.p X.&.&.&.&.&.G H &.&.&.t 2 ",
"2 h &.&.&._ t t L &.&.&.&.&.&.&.X.t { &.&.&.&.&.&.H H &.&.&.8 2 ",
"2 3 &.&.&.L w / &.&.&.&.&.&.&.| p H &.&.&.&.&.&.&.S U &.&.&.2 2 ",
"2 ; &.&.&.H S &.&.&.&.&.&.&./ t  .&.&.&.&.&.&.&.&.C Y &.&.&.2 2 ",
"2 ; &.&.&.H H &.&.&.&.&.&.{ w { &.&.&.&.&.&.&.&.&.n _ &.&.&.2 2 ",
"2 ; &.&.&.H H &.&.&.&.&.X.t / &.&.&.&.&.&.&.&.&.&.C Y &.&.&.2 2 ",
"2 = &.&.&.H H &.&.&.&.&.p { &.&.&.&.&.&.&.&.&.&.&.G H &.&.&.; 2 ",
"e O &.&.&.H x L Y { Y p C X.U H H H Y Y Y U H H H x H &.&.&.= 2 ",
"  O &.&.&.| H S m p j m p p x G H G C C C Z H H H H { &.&.&.#   ",
"2 # &.&.&.&.&.&.&.&.&.&.&.&.&.&.&.&.&.&.&.&.&.&.&.&.&.&.&.&.#   ",
"  # &.&.&.&.&.&.&.&.&.&.&.&.&.&.&.&.&.&.&.&.&.&.&.&.&.&.&.&.; 2 ",
"  O &.&.&.&.&.&.&.&.&.&.&.&.&.&.&.&.&.&.&.&.&.&.&.&.&.&.&.&.2 2 ",
"e O 8 3 2 2 8 n Y Y Y n n 8 8 8 8 2 2 2 2 2 2 8 8 8 2 ; ; ; # 2 ",
"n 2 2 2 2 2 2 2 2 2 2 2 2 2 2 2 2 2 2 2 2 2 2 2 2 2 = 2 2 2 2 e "
};
