/* XPM */
static char *win_32x32[] = {
/* columns rows colors chars-per-pixel */
"32 32 201 2 ",
"   c None",
".  c #2A2A2A",
"X  c #313131",
"o  c #313232",
"O  c #343434",
"+  c #373737",
"@  c #3B3B3B",
"#  c #3E3E3E",
"$  c #414141",
"%  c #414142",
"&  c #454545",
"*  c #474849",
"=  c #484848",
"-  c #4B4B4B",
";  c #4F4F4F",
":  c #525252",
">  c #555555",
",  c #545556",
"<  c #585858",
"1  c #595959",
"2  c #5C5C5C",
"3  c #5F5F5F",
"4  c #5D5F60",
"5  c #636363",
"6  c #636566",
"7  c #666666",
"8  c #676767",
"9  c #696969",
"0  c #6C6C6C",
"q  c #6D6D6D",
"w  c #6F7070",
"e  c #707070",
"r  c #737373",
"t  c #767677",
"y  c #777777",
"u  c #797A7A",
"i  c #7A7A7A",
"p  c #797B7D",
"a  c #7D7D7D",
"s  c #7E7E7E",
"d  c #31825B",
"f  c #568870",
"g  c #4B9C76",
"h  c #5B9F7E",
"j  c #7DA592",
"k  c #37D98C",
"l  c #3ADA8E",
"z  c #40DB91",
"x  c #44DB93",
"c  c #4ADD97",
"v  c #69E3A9",
"b  c #6FE3AC",
"n  c #6FE4AC",
"m  c #72E4AE",
"M  c #808181",
"N  c #818181",
"B  c #838484",
"V  c #848484",
"C  c gray53",
"Z  c gray54",
"A  c #8B8B8B",
"S  c #8E8E8E",
"D  c #919191",
"F  c #949495",
"G  c #959595",
"H  c #989898",
"J  c #999999",
"K  c #9B9B9B",
"L  c #9C9C9C",
"P  c #9C9D9D",
"I  c #9D9D9D",
"U  c #9E9F9F",
"Y  c #9F9F9F",
"T  c #A0A0A1",
"R  c #A1A2A2",
"E  c #A2A2A2",
"W  c #A3A3A4",
"Q  c #A5A5A5",
"!  c #A5A5A6",
"~  c #A5A6A6",
"^  c #A7A8A8",
"/  c #A8A8A9",
"(  c #A9A9AA",
")  c #A9AAAB",
"_  c #AAABAD",
"`  c #ABACAC",
"'  c #ACACAC",
"]  c #ACADAD",
"[  c #AFAFAF",
"{  c #AFB0B0",
"}  c #B0B2B2",
"|  c #B2B2B2",
" . c #B2B3B4",
".. c #B5B5B6",
"X. c #B6B6B6",
"o. c #B2B7BB",
"O. c #B3B8BC",
"+. c #B4B9BD",
"@. c #B7BBBF",
"#. c #B7BCBF",
"$. c #B9B9B9",
"%. c #BCBCBC",
"&. c #BCBDBE",
"*. c #BDBEBE",
"=. c #82E7B7",
"-. c #88E8BB",
";. c #B8BDC0",
":. c #B9BDC0",
">. c #BABFC2",
",. c #BFC0C1",
"<. c #BCC0C4",
"1. c #98EBC4",
"2. c #9BECC5",
"3. c #9BECC6",
"4. c #9EEDC7",
"5. c #A1EDC9",
"6. c #A4EECB",
"7. c #B1F0D2",
"8. c #B4F1D4",
"9. c #B7F1D6",
"0. c #BAF2D7",
"q. c #C0C0C0",
"w. c #C7C7C7",
"e. c #C0C5C8",
"r. c #C4C8CB",
"t. c #C5C9CC",
"y. c #C6CACD",
"u. c #C7CBCE",
"i. c #CACACA",
"p. c #CACBCC",
"a. c #C8CBCE",
"s. c #C9CCCF",
"d. c #CDCDCD",
"f. c #CDCECE",
"g. c #CACED0",
"h. c #CBCFD1",
"j. c #CCD0D2",
"k. c #CED0D2",
"l. c #CFD2D4",
"z. c #CFD2D5",
"x. c #D0D0D0",
"c. c #D1D1D1",
"v. c #D0D3D5",
"b. c #D0D3D6",
"n. c #D1D4D7",
"m. c #D2D4D6",
"M. c #D4D4D5",
"N. c #D5D6D6",
"B. c #D7D7D7",
"V. c #D2D5D8",
"C. c #D4D6D8",
"Z. c #D4D7D9",
"A. c #D5D8DA",
"S. c #D6D8DA",
"D. c #D6D9DB",
"F. c #D7DADC",
"G. c #D8DBDD",
"H. c #D9DBDD",
"J. c #DADCDE",
"K. c #DBDDDF",
"L. c #DDDEDE",
"P. c #DCDEE0",
"I. c #DEE1E2",
"U. c #D0F6E4",
"Y. c #D3F6E6",
"T. c #D9F8E9",
"R. c #DAF8E9",
"E. c #E1E1E1",
"W. c #E1E3E4",
"Q. c #E2E4E5",
"!. c #E2E4E6",
"~. c #E3E5E6",
"^. c #E3E5E7",
"/. c #E4E4E4",
"(. c #E5E7E8",
"). c #E6E7E9",
"_. c #E8E8E8",
"`. c #E8EAEB",
"'. c #EBEBEB",
"]. c #E9EBEC",
"[. c #EBECED",
"{. c #ECEDEE",
"}. c #EFEFEF",
"|. c #E3FAEF",
" X c #EEEFF0",
".X c #EFF0F1",
"XX c #E6FAF0",
"oX c #E6FAF1",
"OX c #F0F2F2",
"+X c #F2F2F2",
"@X c #F3F4F4",
"#X c gray96",
"$X c #F5F6F7",
"%X c #F7F7F7",
"&X c #F6F7F8",
"*X c #F6FDFA",
"=X c #F9F9F9",
"-X c #FBFCFC",
";X c #FDFDFD",
":X c #FCFEFD",
">X c white",
/* pixels */
"N.~ ~ ~ ~ ~ ~ G G G G G G G G G G ^ %.<.<.[ ~ G A i i i H [ ^ N.",
"G : i 4 i i i G G G G G G G G G G i 5 5 5 i i G H [ X.~ 5 w : G ",
"A H ;Xo.;X;X;X;X;X;X;X;X;X;X;X;X;X;X;X;X;X;X;X;X;X;X;X;Xy.E.G G ",
"5 %.$X;.;X;X;X;X;X;X;X;X;X;X;X;X;X;X;X;X;X;X;X;X;X;X;X;X<.$XG G ",
"& E.$X<.;X;X;X;X;X;X;X;X;X;X;X;X;X;X;X;X;X;X;X;X;X;X;X;Xy.].G G ",
"9 X.;X+.E.H.H.E.E.E.E.E.E.P.C.g.y.g.H.E.E.].].].].E.E.P.e..XG G ",
"i [ ;XC.;.y.H.N.l.l.l.l.l.D.I.].].E.D.l.l.g.y.y.y.g.d.<.P.;XG G ",
"i [ ;X;Xl.P.;X;X;X;X;X;X;X;X;X;X;X;X;X;X;X;X;X;X;X;X].y.;X;XG G ",
"9 %.;X;Xy.$X;X;X;X;X;X;X;X;X;X;X;X;X;X;X;X;X;X;X;X;X*X<.;X;XN H ",
"N ~ ;X;Xg.E.;X;X;X;X;X;X;X;X;X;X;X;X;X;X;X;X;X;X;X;X*X;.;X;X9 [ ",
"~ r ;X;Xl.g.H.H.H.H.H.H.H.].].].E.E.E.E.E.E.E.E.H.H.l.d.;X;X- d.",
"<.3 ;X;X).g.y.H.H.H.H.H.C.y.y.y.l.l.l.l.l.l.l.l.D.y.y.E.;X;X&   ",
"<.3 ;X;X;Xy.H.;X;X;X;X;X;X;X;X;X;X;X;X;X;X;X;X;X;XE.l.;X;X;X2 X.",
"{ 9 ;X;X;Xg.).;X;X;X;X;X;X$Xd.%.[ [ %.].;X;X;X;X;X].y.;X;X;X5 { ",
"~ i ;X;X;XE.y.;X;X;X;X;X~ @ 2 9 i i r @ 5 N.;X;X;XH.N.;X;X;XN ~ ",
"H i ;X;X;XE.;.N.l.[ : o 5 H.;X;X;X;X;X].~ & 5 N.H.<.D.$X;X;XH N ",
"i G ;X;X;X$XD.+.l.@ %.;X;X;X;X;X;X;X;X;X;X;XN : ;.y.H.].;X;XX.5 ",
"- d.;X;X;X;X$X+.: ~ ;X;X;X4.b b b -.5.U.;X;X;Xr * D.;X;X;X;Xd.5 ",
"& E.;X;X;X;X].i r ;X;X*Xm k k k k k k k 8.;X;X;Xr i ;X;X;X;Xw.5 ",
": w.;X;X;X;XN.o E.;X;X-.k k k k k k k k l 1.;X;X].o $X;X;X;X[ i ",
"N H ;X;X;X;XN N ;X;X8.k k k k k k k k k l k =.;X;X2 [ ;X;X;XG G ",
"~ i ;X;X;X;X- N.;X;Xc k k k k k k k k k k k l oX;XX.- ;X;X;XG G ",
"~ i ;X;X;X;X@ $X;XR.k k k k k k k k k k k k k 5.;X;X. ].;X;XG G ",
"~ i ;X;X;X;X. ;X;X0.k k k k k k k k k k k k k 1.;X;X. ;X;X;XG G ",
"~ r ;X;X;X;X& ].;X8.l l k k k k k k k k k k k 8.;X;X. ;X;X;Xi [ ",
"d.- ;X;X;X;X- N.;XR.k l k k k k k k k k k k l |.;X$Xo ;X;X;Xr [ ",
"d.- ;X;X;X;Xi ~ ;X;Xx k k k k k k k k k k k x ;X;X~ 5 ;X;X;X2 <.",
"[ 2 ;X;X;X;X[ 5 ;X;Xb k k k k k k k k k k k 1.;X;X& %.;X;X;X2 %.",
"X.5 ;X;X;X;X$Xo E.;XU.x k l k k k k k k k =.;X;XH r ;X;X;X;Xi H ",
"d.- ;X;X;X;X;X~ 2 $X;XoXm k k k k k k k b ;X;XN.@ ].;X;X;X;XG G ",
"^ - [ H G H X.d.A X.E.d.d.j h g g d d f G G G 2 N [ G i i i 5 G ",
"d.9 2 9 ^ G r - & o & : 5 i i i i G G G G G G N i i N ~ ~ ~ G d."
};
